<svg width="850" height="200" viewBox="0 0 850 200" fill="none" xmlns="http://www.w3.org/2000/svg">
<g clip-path="url(#clip0)">
<path d="M21.1084 78.7041C20.5804 77.2161 20.1964 76.0881 19.9564 75.3201C19.7164 74.5041 19.5004 73.6641 19.3084 72.8001L16.5004 72.9441V67.4721H33.7804V72.0801C31.9084 72.1281 30.9724 73.1361 30.9724 75.1041C30.9724 75.5841 31.1164 76.4481 31.4044 77.6961L33.8524 86.4801C34.5244 88.9281 35.0284 91.2081 35.3644 93.3201H35.4364C35.5324 92.9361 35.7244 92.0241 36.0124 90.5841C36.3004 89.1441 36.7324 87.4641 37.3084 85.5441L42.5644 67.4721H50.4124L56.1724 87.3441C56.5084 88.5441 57.0844 90.7041 57.9004 93.8241H57.9724C58.1644 92.4321 58.7164 90.3441 59.6284 87.5601L62.4364 78.4161C62.7724 77.2641 63.1084 76.2321 63.4444 75.3201C63.7804 74.3601 64.1404 73.4961 64.5244 72.7281V72.6561L60.4204 72.9441V67.4721H74.1004V72.0801C71.5564 72.0801 69.3964 74.6721 67.6204 79.8561L59.4124 103.688H51.7804L46.8124 88.3521C46.0444 85.9521 45.2044 83.0001 44.2924 79.4961H44.2204C43.6924 82.3761 42.5884 86.4801 40.9084 91.8081L36.9484 103.688H29.8204L21.1084 78.7041ZM94.1727 104.624C90.6687 104.624 87.5247 103.88 84.7407 102.392C81.9567 100.904 79.7727 98.7681 78.1887 95.9841C76.6047 93.2001 75.8127 89.9601 75.8127 86.2641C75.8127 82.3761 76.6287 78.9201 78.2607 75.8961C79.8927 72.8721 82.0767 70.5201 84.8127 68.8401C87.5967 67.1601 90.6447 66.3201 93.9567 66.3201C97.4127 66.3201 100.509 67.0641 103.245 68.5521C105.981 70.0401 108.141 72.2001 109.725 75.0321C111.309 77.8161 112.101 81.0801 112.101 84.8241C112.101 88.8081 111.333 92.2881 109.797 95.2641C108.309 98.2401 106.197 100.544 103.461 102.176C100.773 103.808 97.6767 104.624 94.1727 104.624ZM94.3167 99.5121C96.9567 99.5121 98.8047 98.2881 99.8607 95.8401C100.917 93.3921 101.445 90.3201 101.445 86.6241C101.445 82.4961 100.845 78.9201 99.6447 75.8961C98.4447 72.8721 96.5487 71.3601 93.9567 71.3601C91.3167 71.3601 89.3967 72.6081 88.1967 75.1041C86.9967 77.6001 86.3967 80.6721 86.3967 84.3201C86.3967 88.4961 87.0447 92.0721 88.3407 95.0481C89.6367 98.0241 91.6287 99.5121 94.3167 99.5121ZM134.954 104.624C131.45 104.624 128.306 103.88 125.522 102.392C122.738 100.904 120.554 98.7681 118.97 95.9841C117.386 93.2001 116.594 89.9601 116.594 86.2641C116.594 82.3761 117.41 78.9201 119.042 75.8961C120.674 72.8721 122.858 70.5201 125.594 68.8401C128.378 67.1601 131.426 66.3201 134.738 66.3201C138.194 66.3201 141.29 67.0641 144.026 68.5521C146.762 70.0401 148.922 72.2001 150.506 75.0321C152.09 77.8161 152.882 81.0801 152.882 84.8241C152.882 88.8081 152.114 92.2881 150.578 95.2641C149.09 98.2401 146.978 100.544 144.242 102.176C141.554 103.808 138.458 104.624 134.954 104.624ZM135.098 99.5121C137.738 99.5121 139.586 98.2881 140.642 95.8401C141.698 93.3921 142.226 90.3201 142.226 86.6241C142.226 82.4961 141.626 78.9201 140.426 75.8961C139.226 72.8721 137.33 71.3601 134.738 71.3601C132.098 71.3601 130.178 72.6081 128.978 75.1041C127.778 77.6001 127.178 80.6721 127.178 84.3201C127.178 88.4961 127.826 92.0721 129.122 95.0481C130.418 98.0241 132.41 99.5121 135.098 99.5121ZM171.991 104.624C169.111 104.624 166.567 103.88 164.359 102.392C162.199 100.904 160.495 98.7921 159.247 96.0561C158.047 93.2721 157.447 90.0561 157.447 86.4081C157.447 82.5681 158.191 79.1361 159.679 76.1121C161.167 73.0401 163.255 70.6401 165.943 68.9121C168.679 67.1841 171.799 66.3201 175.303 66.3201C177.175 66.3201 179.311 66.7521 181.711 67.6161V62.8641C181.711 60.5601 181.807 58.4481 181.999 56.5281C180.415 56.6721 178.711 56.7441 176.887 56.7441V51.2721C179.911 51.2721 182.359 51.0561 184.231 50.6241C186.103 50.1921 187.351 49.6881 187.975 49.1121H191.863V91.8801C191.863 94.1841 191.767 96.2961 191.575 98.2161C193.159 98.0721 194.719 98.0001 196.255 98.0001V103.472H182.575L182.215 100.16H182.143C179.311 103.136 175.927 104.624 171.991 104.624ZM175.735 98.0721C176.935 98.0721 178.063 97.7601 179.119 97.1361C180.175 96.5121 181.039 95.6721 181.711 94.6161V73.0161C181.183 72.6321 180.439 72.3201 179.479 72.0801C178.519 71.7921 177.559 71.6481 176.599 71.6481C173.527 71.6961 171.319 73.0161 169.975 75.6081C168.679 78.2001 168.031 81.4401 168.031 85.3281C168.031 88.7841 168.655 91.7841 169.903 94.3281C171.199 96.8241 173.143 98.0721 175.735 98.0721ZM201.073 76.9761H227.569V84.5361L201.073 84.7521V76.9761ZM251.308 104.624C247.804 104.624 244.708 103.856 242.02 102.32C239.332 100.736 237.244 98.5041 235.756 95.6241C234.268 92.7441 233.524 89.3841 233.524 85.5441C233.524 82.1841 234.268 79.0401 235.756 76.1121C237.292 73.1361 239.428 70.7601 242.164 68.9841C244.9 67.2081 248.02 66.3201 251.524 66.3201C256.18 66.3201 260.044 67.6881 263.116 70.4241C266.236 73.1601 267.772 77.7201 267.724 84.1041L244.108 84.5361C244.108 88.7601 244.9 92.0961 246.484 94.5441C248.116 96.9921 250.708 98.2161 254.26 98.2161C255.94 98.2161 257.74 97.7841 259.66 96.9201C261.58 96.0561 263.308 94.6881 264.844 92.8161L268.084 95.8401C264.004 101.696 258.412 104.624 251.308 104.624ZM257.788 79.4961C257.644 74.0721 255.676 71.3601 251.884 71.3601C249.82 71.3601 248.164 72.1041 246.916 73.5921C245.716 75.0321 244.924 77.0001 244.54 79.4961H257.788ZM281.986 104.624C278.962 104.624 276.562 103.736 274.786 101.96C273.058 100.136 272.194 97.8321 272.194 95.0481C272.194 90.8241 274.162 87.6321 278.098 85.4721C282.034 83.2641 286.762 82.0401 292.282 81.8001V78.0561C292.282 73.6881 290.65 71.5041 287.386 71.5041C285.274 71.5041 283.546 72.1761 282.202 73.5201C282.778 74.1921 283.066 75.1041 283.066 76.2561C283.066 77.4081 282.658 78.4401 281.842 79.3521C281.074 80.2641 279.922 80.7201 278.386 80.7201C276.946 80.7201 275.818 80.2641 275.002 79.3521C274.186 78.3921 273.778 77.2161 273.778 75.8241C273.778 73.9521 274.45 72.2961 275.794 70.8561C277.138 69.4161 278.962 68.3121 281.266 67.5441C283.618 66.7281 286.186 66.3201 288.97 66.3201C297.85 66.3201 302.29 70.9041 302.29 80.0721L302.218 91.8801C302.218 94.1841 302.122 96.2961 301.93 98.2161C303.514 98.0721 305.074 98.0001 306.61 98.0001V103.472H293.002C292.906 102.848 292.81 101.744 292.714 100.16H292.642C289.714 103.136 286.162 104.624 281.986 104.624ZM286.522 97.5681C288.682 97.5681 290.578 96.7041 292.21 94.9761V86.9121C289.378 87.2001 287.026 87.9201 285.154 89.0721C283.33 90.2241 282.418 91.7841 282.418 93.7521C282.418 95.0481 282.802 96.0081 283.57 96.6321C284.386 97.2561 285.37 97.5681 286.522 97.5681ZM310.744 98.7921C312.568 98.7921 313.72 98.2881 314.2 97.2801C314.728 96.2721 314.992 94.6401 314.992 92.3841V80.2881C314.992 78.1281 315.088 76.0881 315.28 74.1681L310.24 74.3841V68.9121C313.264 68.9121 315.712 68.6961 317.584 68.2641C319.456 67.8321 320.704 67.3281 321.328 66.7521H324.856C324.952 67.4721 325.024 68.4081 325.072 69.5601C325.12 70.7121 325.144 71.8401 325.144 72.9441H325.288C328.552 68.5281 332.008 66.3201 335.656 66.3201C337.48 66.3201 338.968 66.8241 340.12 67.8321C341.32 68.8401 341.92 70.3281 341.92 72.2961C341.92 73.5441 341.512 74.6961 340.696 75.7521C339.88 76.8081 338.656 77.3361 337.024 77.3361C335.824 77.3361 334.744 77.0241 333.784 76.4001C332.872 75.7761 332.344 74.6961 332.2 73.1601C330.856 73.1601 329.464 73.9521 328.024 75.5361C326.632 77.0721 325.696 78.6081 325.216 80.1441V91.8801C325.216 94.1841 325.12 96.2961 324.928 98.2161C326.464 98.0721 328.024 98.0001 329.608 98.0001V103.472H310.744V98.7921Z" fill="#BFD9F2"/>
<path d="M463.532 127.504C465.356 127.504 466.508 127 466.988 125.992C467.516 124.984 467.78 123.352 467.78 121.096V109C467.78 106.84 467.876 104.8 468.068 102.88L463.028 103.096V97.6242C466.052 97.6242 468.5 97.4082 470.372 96.9762C472.244 96.5442 473.492 96.0402 474.116 95.4642H477.644C477.644 95.5602 477.74 96.7602 477.932 99.0642H478.076C479.564 97.8642 481.244 96.9042 483.116 96.1842C484.988 95.4162 486.812 95.0322 488.588 95.0322C490.748 95.0322 492.548 95.4402 493.988 96.2562C495.476 97.0242 496.652 98.2002 497.516 99.7842C499.244 98.3442 501.164 97.1922 503.276 96.3282C505.388 95.4642 507.38 95.0322 509.252 95.0322C513.236 95.0322 516.188 96.1842 518.108 98.4882C520.076 100.792 521.06 104.632 521.06 110.008V120.592C521.06 122.896 520.964 125.008 520.772 126.928C522.308 126.784 523.868 126.712 525.452 126.712V132.184H507.236V127.504C508.772 127.504 509.756 127 510.188 125.992C510.62 124.936 510.836 123.304 510.836 121.096V110.08C510.788 107.056 510.284 104.92 509.324 103.672C508.364 102.376 506.972 101.728 505.148 101.728C503.036 101.728 500.972 102.52 498.956 104.104C499.388 106.024 499.604 108.304 499.604 110.944V120.592C499.604 122.896 499.508 125.008 499.316 126.928C500.852 126.784 502.412 126.712 503.996 126.712V132.184H485.42V127.504C487.1 127.504 488.18 127 488.66 125.992C489.14 124.984 489.38 123.352 489.38 121.096L489.308 109.864C489.308 106.888 488.876 104.8 488.012 103.6C487.148 102.352 485.852 101.704 484.124 101.656C482.012 101.656 479.972 102.544 478.004 104.32V120.592C478.004 122.896 477.908 125.008 477.716 126.928C479.252 126.784 480.692 126.712 482.036 126.712V132.184H463.532V127.504ZM544.319 133.336C540.047 133.336 536.975 132.088 535.103 129.592C533.279 127.096 532.367 123.04 532.367 117.424V109.144C532.367 107.128 532.439 105.04 532.583 102.88L527.543 103.096V97.6242C530.567 97.6242 533.015 97.4082 534.887 96.9762C536.759 96.5442 538.007 96.0402 538.631 95.4642H542.591V117.496C542.591 120.664 542.999 122.992 543.815 124.48C544.631 125.968 545.927 126.712 547.703 126.712C548.903 126.712 550.127 126.376 551.375 125.704C552.671 125.032 553.751 124.216 554.615 123.256V109.144C554.615 106.888 554.711 104.8 554.903 102.88L549.863 103.096V97.6242C552.887 97.6242 555.311 97.4082 557.135 96.9762C559.007 96.5442 560.255 96.0402 560.879 95.4642H564.839V120.592C564.839 122.896 564.743 125.008 564.551 126.928C566.087 126.784 567.647 126.712 569.231 126.712V132.184H555.551L555.119 128.44H555.047C553.271 129.976 551.543 131.176 549.863 132.04C548.231 132.904 546.383 133.336 544.319 133.336ZM590.483 133.336C588.419 133.336 586.403 133.072 584.435 132.544C582.467 132.016 580.931 131.344 579.827 130.528H579.755L579.971 132.688H574.499L574.211 120.304H578.891C579.131 122.512 580.283 124.384 582.347 125.92C584.459 127.408 587.027 128.152 590.051 128.152C591.395 128.152 592.547 127.84 593.507 127.216C594.515 126.592 595.019 125.704 595.019 124.552C595.019 123.688 594.707 122.968 594.083 122.392C593.459 121.816 592.715 121.336 591.851 120.952C590.987 120.568 589.259 119.872 586.667 118.864C583.595 117.664 581.291 116.68 579.755 115.912C578.219 115.144 576.827 114.016 575.579 112.528C574.379 110.992 573.779 109.024 573.779 106.624C573.779 104.656 574.259 102.808 575.219 101.08C576.227 99.3042 577.739 97.8642 579.755 96.7602C581.819 95.6082 584.339 95.0322 587.315 95.0322C588.707 95.0322 590.219 95.2482 591.851 95.6802C593.483 96.1122 594.851 96.7122 595.955 97.4802H596.027L595.955 95.3922H601.427V108.136H596.747C596.315 105.64 595.211 103.672 593.435 102.232C591.659 100.792 589.475 100.072 586.883 100.072C585.539 100.072 584.411 100.384 583.499 101.008C582.587 101.632 582.131 102.592 582.131 103.888C582.131 105.232 582.659 106.24 583.715 106.912C584.771 107.536 586.547 108.256 589.043 109.072C589.331 109.12 589.955 109.312 590.915 109.648C594.995 111.088 598.115 112.768 600.275 114.688C602.483 116.608 603.587 119.128 603.587 122.248C603.587 124.648 602.963 126.688 601.715 128.368C600.515 130 598.907 131.248 596.891 132.112C594.923 132.928 592.787 133.336 590.483 133.336ZM607.716 127.504C609.012 127.504 609.948 127.264 610.524 126.784C611.148 126.256 611.532 125.56 611.676 124.696C611.868 123.832 611.964 122.632 611.964 121.096V91.5042C611.964 89.2002 612.06 87.1122 612.252 85.2402L607.212 85.4562V79.9842C610.236 79.9842 612.684 79.7682 614.556 79.3362C616.428 78.9042 617.676 78.4002 618.3 77.8242H622.188V99.0642C623.58 97.9602 625.308 97.0242 627.372 96.2562C629.436 95.4402 631.212 95.0322 632.7 95.0322C637.02 95.0322 640.116 96.2802 641.988 98.7762C643.86 101.272 644.82 105.328 644.868 110.944V120.592C644.868 122.896 644.772 125.008 644.58 126.928C646.116 126.784 647.676 126.712 649.26 126.712V132.184H630.324V127.504C632.148 127.504 633.324 127 633.852 125.992C634.38 124.984 634.644 123.352 634.644 121.096L634.572 110.872C634.572 107.704 634.092 105.376 633.132 103.888C632.22 102.4 630.756 101.656 628.74 101.656C627.588 101.656 626.412 101.92 625.212 102.448C624.012 102.928 623.004 103.552 622.188 104.32V120.592C622.188 122.896 622.092 125.008 621.9 126.928C623.484 126.784 625.044 126.712 626.58 126.712V132.184H607.716V127.504ZM653.587 127.504C655.411 127.504 656.563 127 657.043 125.992C657.571 124.984 657.835 123.352 657.835 121.096V109C657.835 106.84 657.931 104.8 658.123 102.88L653.083 103.096V97.6242C656.107 97.6242 658.555 97.4082 660.427 96.9762C662.299 96.5442 663.547 96.0402 664.171 95.4642H667.699C667.795 96.1842 667.867 97.1202 667.915 98.2722C667.963 99.4242 667.987 100.552 667.987 101.656H668.131C671.395 97.2402 674.851 95.0322 678.499 95.0322C680.323 95.0322 681.811 95.5362 682.963 96.5442C684.163 97.5522 684.763 99.0402 684.763 101.008C684.763 102.256 684.355 103.408 683.539 104.464C682.723 105.52 681.499 106.048 679.867 106.048C678.667 106.048 677.587 105.736 676.627 105.112C675.715 104.488 675.187 103.408 675.043 101.872C673.699 101.872 672.307 102.664 670.867 104.248C669.475 105.784 668.539 107.32 668.059 108.856V120.592C668.059 122.896 667.963 125.008 667.771 126.928C669.307 126.784 670.867 126.712 672.451 126.712V132.184H653.587V127.504ZM705.258 133.336C701.754 133.336 698.61 132.592 695.826 131.104C693.042 129.616 690.858 127.48 689.274 124.696C687.69 121.912 686.898 118.672 686.898 114.976C686.898 111.088 687.714 107.632 689.346 104.608C690.978 101.584 693.162 99.2322 695.898 97.5522C698.682 95.8722 701.73 95.0322 705.042 95.0322C708.498 95.0322 711.594 95.7762 714.33 97.2642C717.066 98.7522 719.226 100.912 720.81 103.744C722.394 106.528 723.186 109.792 723.186 113.536C723.186 117.52 722.418 121 720.882 123.976C719.394 126.952 717.282 129.256 714.546 130.888C711.858 132.52 708.762 133.336 705.258 133.336ZM705.402 128.224C708.042 128.224 709.89 127 710.946 124.552C712.002 122.104 712.53 119.032 712.53 115.336C712.53 111.208 711.93 107.632 710.73 104.608C709.53 101.584 707.634 100.072 705.042 100.072C702.402 100.072 700.482 101.32 699.282 103.816C698.082 106.312 697.482 109.384 697.482 113.032C697.482 117.208 698.13 120.784 699.426 123.76C700.722 126.736 702.714 128.224 705.402 128.224ZM746.039 133.336C742.535 133.336 739.391 132.592 736.607 131.104C733.823 129.616 731.639 127.48 730.055 124.696C728.471 121.912 727.679 118.672 727.679 114.976C727.679 111.088 728.495 107.632 730.127 104.608C731.759 101.584 733.943 99.2322 736.679 97.5522C739.463 95.8722 742.511 95.0322 745.823 95.0322C749.279 95.0322 752.375 95.7762 755.111 97.2642C757.847 98.7522 760.007 100.912 761.591 103.744C763.175 106.528 763.967 109.792 763.967 113.536C763.967 117.52 763.199 121 761.663 123.976C760.175 126.952 758.063 129.256 755.327 130.888C752.639 132.52 749.543 133.336 746.039 133.336ZM746.183 128.224C748.823 128.224 750.671 127 751.727 124.552C752.783 122.104 753.311 119.032 753.311 115.336C753.311 111.208 752.711 107.632 751.511 104.608C750.311 101.584 748.415 100.072 745.823 100.072C743.183 100.072 741.263 101.32 740.063 103.816C738.863 106.312 738.263 109.384 738.263 113.032C738.263 117.208 738.911 120.784 740.207 123.76C741.503 126.736 743.495 128.224 746.183 128.224ZM769.181 127.504C771.005 127.504 772.157 127 772.637 125.992C773.165 124.984 773.429 123.352 773.429 121.096V109C773.429 106.84 773.525 104.8 773.717 102.88L768.677 103.096V97.6242C771.701 97.6242 774.149 97.4082 776.021 96.9762C777.893 96.5442 779.141 96.0402 779.765 95.4642H783.293C783.293 95.5602 783.389 96.7602 783.581 99.0642H783.725C785.213 97.8642 786.893 96.9042 788.765 96.1842C790.637 95.4162 792.461 95.0322 794.237 95.0322C796.397 95.0322 798.197 95.4402 799.637 96.2562C801.125 97.0242 802.301 98.2002 803.165 99.7842C804.893 98.3442 806.813 97.1922 808.925 96.3282C811.037 95.4642 813.029 95.0322 814.901 95.0322C818.885 95.0322 821.837 96.1842 823.757 98.4882C825.725 100.792 826.709 104.632 826.709 110.008V120.592C826.709 122.896 826.613 125.008 826.421 126.928C827.957 126.784 829.517 126.712 831.101 126.712V132.184H812.885V127.504C814.421 127.504 815.405 127 815.837 125.992C816.269 124.936 816.485 123.304 816.485 121.096V110.08C816.437 107.056 815.933 104.92 814.973 103.672C814.013 102.376 812.621 101.728 810.797 101.728C808.685 101.728 806.621 102.52 804.605 104.104C805.037 106.024 805.253 108.304 805.253 110.944V120.592C805.253 122.896 805.157 125.008 804.965 126.928C806.501 126.784 808.061 126.712 809.645 126.712V132.184H791.069V127.504C792.749 127.504 793.829 127 794.309 125.992C794.789 124.984 795.029 123.352 795.029 121.096L794.957 109.864C794.957 106.888 794.525 104.8 793.661 103.6C792.797 102.352 791.501 101.704 789.773 101.656C787.661 101.656 785.621 102.544 783.653 104.32V120.592C783.653 122.896 783.557 125.008 783.365 126.928C784.901 126.784 786.341 126.712 787.685 126.712V132.184H769.181V127.504Z" fill="#BFD9F2"/>
<path d="M297.724 189.512C295.66 189.512 293.644 189.248 291.676 188.72C289.708 188.192 288.172 187.52 287.068 186.704H286.996L287.212 188.864H281.74L281.452 176.48H286.132C286.372 178.688 287.524 180.56 289.588 182.096C291.7 183.584 294.268 184.328 297.292 184.328C298.636 184.328 299.788 184.016 300.748 183.392C301.756 182.768 302.26 181.88 302.26 180.728C302.26 179.864 301.948 179.144 301.324 178.568C300.7 177.992 299.956 177.512 299.092 177.128C298.228 176.744 296.5 176.048 293.908 175.04C290.836 173.84 288.532 172.856 286.996 172.088C285.46 171.32 284.068 170.192 282.82 168.704C281.62 167.168 281.02 165.2 281.02 162.8C281.02 160.832 281.5 158.984 282.46 157.256C283.468 155.48 284.98 154.04 286.996 152.936C289.06 151.784 291.58 151.208 294.556 151.208C295.948 151.208 297.46 151.424 299.092 151.856C300.724 152.288 302.092 152.888 303.196 153.656H303.268L303.196 151.568H308.668V164.312H303.988C303.556 161.816 302.452 159.848 300.676 158.408C298.9 156.968 296.716 156.248 294.124 156.248C292.78 156.248 291.652 156.56 290.74 157.184C289.828 157.808 289.372 158.768 289.372 160.064C289.372 161.408 289.9 162.416 290.956 163.088C292.012 163.712 293.788 164.432 296.284 165.248C296.572 165.296 297.196 165.488 298.156 165.824C302.236 167.264 305.356 168.944 307.516 170.864C309.724 172.784 310.828 175.304 310.828 178.424C310.828 180.824 310.204 182.864 308.956 184.544C307.756 186.176 306.148 187.424 304.132 188.288C302.164 189.104 300.028 189.512 297.724 189.512ZM325.109 189.512C322.085 189.512 319.685 188.624 317.909 186.848C316.181 185.024 315.317 182.72 315.317 179.936C315.317 175.712 317.285 172.52 321.221 170.36C325.157 168.152 329.885 166.928 335.405 166.688V162.944C335.405 158.576 333.773 156.392 330.509 156.392C328.397 156.392 326.669 157.064 325.325 158.408C325.901 159.08 326.189 159.992 326.189 161.144C326.189 162.296 325.781 163.328 324.965 164.24C324.197 165.152 323.045 165.608 321.509 165.608C320.069 165.608 318.941 165.152 318.125 164.24C317.309 163.28 316.901 162.104 316.901 160.712C316.901 158.84 317.573 157.184 318.917 155.744C320.261 154.304 322.085 153.2 324.389 152.432C326.741 151.616 329.309 151.208 332.093 151.208C340.973 151.208 345.413 155.792 345.413 164.96L345.341 176.768C345.341 179.072 345.245 181.184 345.053 183.104C346.637 182.96 348.197 182.888 349.733 182.888V188.36H336.125C336.029 187.736 335.933 186.632 335.837 185.048H335.765C332.837 188.024 329.285 189.512 325.109 189.512ZM329.645 182.456C331.805 182.456 333.701 181.592 335.333 179.864V171.8C332.501 172.088 330.149 172.808 328.277 173.96C326.453 175.112 325.541 176.672 325.541 178.64C325.541 179.936 325.925 180.896 326.693 181.52C327.509 182.144 328.493 182.456 329.645 182.456ZM352.715 183.68C354.011 183.68 354.947 183.44 355.523 182.96C356.147 182.432 356.531 181.736 356.675 180.872C356.867 180.008 356.963 178.808 356.963 177.272V147.68C356.963 145.376 357.059 143.288 357.251 141.416L352.211 141.632V136.16C355.235 136.16 357.683 135.944 359.555 135.512C361.427 135.08 362.675 134.576 363.299 134H367.187V176.768C367.187 179.072 367.091 181.184 366.899 183.104C368.483 182.96 370.043 182.888 371.579 182.888V188.36H352.715V183.68ZM385.296 189.512C382.272 189.512 379.872 188.624 378.096 186.848C376.368 185.024 375.504 182.72 375.504 179.936C375.504 175.712 377.472 172.52 381.408 170.36C385.344 168.152 390.072 166.928 395.592 166.688V162.944C395.592 158.576 393.96 156.392 390.696 156.392C388.584 156.392 386.856 157.064 385.512 158.408C386.088 159.08 386.376 159.992 386.376 161.144C386.376 162.296 385.968 163.328 385.152 164.24C384.384 165.152 383.232 165.608 381.696 165.608C380.256 165.608 379.128 165.152 378.312 164.24C377.496 163.28 377.088 162.104 377.088 160.712C377.088 158.84 377.76 157.184 379.104 155.744C380.448 154.304 382.272 153.2 384.576 152.432C386.928 151.616 389.496 151.208 392.28 151.208C401.16 151.208 405.6 155.792 405.6 164.96L405.528 176.768C405.528 179.072 405.432 181.184 405.24 183.104C406.824 182.96 408.384 182.888 409.92 182.888V188.36H396.312C396.216 187.736 396.12 186.632 396.024 185.048H395.952C393.024 188.024 389.472 189.512 385.296 189.512ZM389.832 182.456C391.992 182.456 393.888 181.592 395.52 179.864V171.8C392.688 172.088 390.336 172.808 388.464 173.96C386.64 175.112 385.728 176.672 385.728 178.64C385.728 179.936 386.112 180.896 386.88 181.52C387.696 182.144 388.68 182.456 389.832 182.456ZM427.95 189.512C425.07 189.512 422.526 188.768 420.318 187.28C418.158 185.792 416.454 183.68 415.206 180.944C414.006 178.16 413.406 174.944 413.406 171.296C413.406 167.456 414.15 164.024 415.638 161C417.126 157.928 419.214 155.528 421.902 153.8C424.638 152.072 427.758 151.208 431.262 151.208C433.134 151.208 435.27 151.64 437.67 152.504V147.752C437.67 145.448 437.766 143.336 437.958 141.416C436.374 141.56 434.67 141.632 432.846 141.632V136.16C435.87 136.16 438.318 135.944 440.19 135.512C442.062 135.08 443.31 134.576 443.934 134H447.822V176.768C447.822 179.072 447.726 181.184 447.534 183.104C449.118 182.96 450.678 182.888 452.214 182.888V188.36H438.534L438.174 185.048H438.102C435.27 188.024 431.886 189.512 427.95 189.512ZM431.694 182.96C432.894 182.96 434.022 182.648 435.078 182.024C436.134 181.4 436.998 180.56 437.67 179.504V157.904C437.142 157.52 436.398 157.208 435.438 156.968C434.478 156.68 433.518 156.536 432.558 156.536C429.486 156.584 427.278 157.904 425.934 160.496C424.638 163.088 423.99 166.328 423.99 170.216C423.99 173.672 424.614 176.672 425.862 179.216C427.158 181.712 429.102 182.96 431.694 182.96Z" fill="#BFD9F2"/>
<path d="M21.1084 47.232C20.5804 45.744 20.1964 44.616 19.9564 43.848C19.7164 43.032 19.5004 42.192 19.3084 41.328L16.5004 41.472V36H33.7804V40.608C31.9084 40.656 30.9724 41.664 30.9724 43.632C30.9724 44.112 31.1164 44.976 31.4044 46.224L33.8524 55.008C34.5244 57.456 35.0284 59.736 35.3644 61.848H35.4364C35.5324 61.464 35.7244 60.552 36.0124 59.112C36.3004 57.672 36.7324 55.992 37.3084 54.072L42.5644 36H50.4124L56.1724 55.872C56.5084 57.072 57.0844 59.232 57.9004 62.352H57.9724C58.1644 60.96 58.7164 58.872 59.6284 56.088L62.4364 46.944C62.7724 45.792 63.1084 44.76 63.4444 43.848C63.7804 42.888 64.1404 42.024 64.5244 41.256V41.184L60.4204 41.472V36H74.1004V40.608C71.5564 40.608 69.3964 43.2 67.6204 48.384L59.4124 72.216H51.7804L46.8124 56.88C46.0444 54.48 45.2044 51.528 44.2924 48.024H44.2204C43.6924 50.904 42.5884 55.008 40.9084 60.336L36.9484 72.216H29.8204L21.1084 47.232ZM94.1727 73.152C90.6687 73.152 87.5247 72.408 84.7407 70.92C81.9567 69.432 79.7727 67.296 78.1887 64.512C76.6047 61.728 75.8127 58.488 75.8127 54.792C75.8127 50.904 76.6287 47.448 78.2607 44.424C79.8927 41.4 82.0767 39.048 84.8127 37.368C87.5967 35.688 90.6447 34.848 93.9567 34.848C97.4127 34.848 100.509 35.592 103.245 37.08C105.981 38.568 108.141 40.728 109.725 43.56C111.309 46.344 112.101 49.608 112.101 53.352C112.101 57.336 111.333 60.816 109.797 63.792C108.309 66.768 106.197 69.072 103.461 70.704C100.773 72.336 97.6767 73.152 94.1727 73.152ZM94.3167 68.04C96.9567 68.04 98.8047 66.816 99.8607 64.368C100.917 61.92 101.445 58.848 101.445 55.152C101.445 51.024 100.845 47.448 99.6447 44.424C98.4447 41.4 96.5487 39.888 93.9567 39.888C91.3167 39.888 89.3967 41.136 88.1967 43.632C86.9967 46.128 86.3967 49.2 86.3967 52.848C86.3967 57.024 87.0447 60.6 88.3407 63.576C89.6367 66.552 91.6287 68.04 94.3167 68.04ZM134.954 73.152C131.45 73.152 128.306 72.408 125.522 70.92C122.738 69.432 120.554 67.296 118.97 64.512C117.386 61.728 116.594 58.488 116.594 54.792C116.594 50.904 117.41 47.448 119.042 44.424C120.674 41.4 122.858 39.048 125.594 37.368C128.378 35.688 131.426 34.848 134.738 34.848C138.194 34.848 141.29 35.592 144.026 37.08C146.762 38.568 148.922 40.728 150.506 43.56C152.09 46.344 152.882 49.608 152.882 53.352C152.882 57.336 152.114 60.816 150.578 63.792C149.09 66.768 146.978 69.072 144.242 70.704C141.554 72.336 138.458 73.152 134.954 73.152ZM135.098 68.04C137.738 68.04 139.586 66.816 140.642 64.368C141.698 61.92 142.226 58.848 142.226 55.152C142.226 51.024 141.626 47.448 140.426 44.424C139.226 41.4 137.33 39.888 134.738 39.888C132.098 39.888 130.178 41.136 128.978 43.632C127.778 46.128 127.178 49.2 127.178 52.848C127.178 57.024 127.826 60.6 129.122 63.576C130.418 66.552 132.41 68.04 135.098 68.04ZM171.991 73.152C169.111 73.152 166.567 72.408 164.359 70.92C162.199 69.432 160.495 67.32 159.247 64.584C158.047 61.8 157.447 58.584 157.447 54.936C157.447 51.096 158.191 47.664 159.679 44.64C161.167 41.568 163.255 39.168 165.943 37.44C168.679 35.712 171.799 34.848 175.303 34.848C177.175 34.848 179.311 35.28 181.711 36.144V31.392C181.711 29.088 181.807 26.976 181.999 25.056C180.415 25.2 178.711 25.272 176.887 25.272V19.8C179.911 19.8 182.359 19.584 184.231 19.152C186.103 18.72 187.351 18.216 187.975 17.64H191.863V60.408C191.863 62.712 191.767 64.824 191.575 66.744C193.159 66.6 194.719 66.528 196.255 66.528V72H182.575L182.215 68.688H182.143C179.311 71.664 175.927 73.152 171.991 73.152ZM175.735 66.6C176.935 66.6 178.063 66.288 179.119 65.664C180.175 65.04 181.039 64.2 181.711 63.144V41.544C181.183 41.16 180.439 40.848 179.479 40.608C178.519 40.32 177.559 40.176 176.599 40.176C173.527 40.224 171.319 41.544 169.975 44.136C168.679 46.728 168.031 49.968 168.031 53.856C168.031 57.312 168.655 60.312 169.903 62.856C171.199 65.352 173.143 66.6 175.735 66.6ZM201.073 45.504H227.569V53.064L201.073 53.28V45.504ZM251.308 73.152C247.804 73.152 244.708 72.384 242.02 70.848C239.332 69.264 237.244 67.032 235.756 64.152C234.268 61.272 233.524 57.912 233.524 54.072C233.524 50.712 234.268 47.568 235.756 44.64C237.292 41.664 239.428 39.288 242.164 37.512C244.9 35.736 248.02 34.848 251.524 34.848C256.18 34.848 260.044 36.216 263.116 38.952C266.236 41.688 267.772 46.248 267.724 52.632L244.108 53.064C244.108 57.288 244.9 60.624 246.484 63.072C248.116 65.52 250.708 66.744 254.26 66.744C255.94 66.744 257.74 66.312 259.66 65.448C261.58 64.584 263.308 63.216 264.844 61.344L268.084 64.368C264.004 70.224 258.412 73.152 251.308 73.152ZM257.788 48.024C257.644 42.6 255.676 39.888 251.884 39.888C249.82 39.888 248.164 40.632 246.916 42.12C245.716 43.56 244.924 45.528 244.54 48.024H257.788ZM281.986 73.152C278.962 73.152 276.562 72.264 274.786 70.488C273.058 68.664 272.194 66.36 272.194 63.576C272.194 59.352 274.162 56.16 278.098 54C282.034 51.792 286.762 50.568 292.282 50.328V46.584C292.282 42.216 290.65 40.032 287.386 40.032C285.274 40.032 283.546 40.704 282.202 42.048C282.778 42.72 283.066 43.632 283.066 44.784C283.066 45.936 282.658 46.968 281.842 47.88C281.074 48.792 279.922 49.248 278.386 49.248C276.946 49.248 275.818 48.792 275.002 47.88C274.186 46.92 273.778 45.744 273.778 44.352C273.778 42.48 274.45 40.824 275.794 39.384C277.138 37.944 278.962 36.84 281.266 36.072C283.618 35.256 286.186 34.848 288.97 34.848C297.85 34.848 302.29 39.432 302.29 48.6L302.218 60.408C302.218 62.712 302.122 64.824 301.93 66.744C303.514 66.6 305.074 66.528 306.61 66.528V72H293.002C292.906 71.376 292.81 70.272 292.714 68.688H292.642C289.714 71.664 286.162 73.152 281.986 73.152ZM286.522 66.096C288.682 66.096 290.578 65.232 292.21 63.504V55.44C289.378 55.728 287.026 56.448 285.154 57.6C283.33 58.752 282.418 60.312 282.418 62.28C282.418 63.576 282.802 64.536 283.57 65.16C284.386 65.784 285.37 66.096 286.522 66.096ZM310.744 67.32C312.568 67.32 313.72 66.816 314.2 65.808C314.728 64.8 314.992 63.168 314.992 60.912V48.816C314.992 46.656 315.088 44.616 315.28 42.696L310.24 42.912V37.44C313.264 37.44 315.712 37.224 317.584 36.792C319.456 36.36 320.704 35.856 321.328 35.28H324.856C324.952 36 325.024 36.936 325.072 38.088C325.12 39.24 325.144 40.368 325.144 41.472H325.288C328.552 37.056 332.008 34.848 335.656 34.848C337.48 34.848 338.968 35.352 340.12 36.36C341.32 37.368 341.92 38.856 341.92 40.824C341.92 42.072 341.512 43.224 340.696 44.28C339.88 45.336 338.656 45.864 337.024 45.864C335.824 45.864 334.744 45.552 333.784 44.928C332.872 44.304 332.344 43.224 332.2 41.688C330.856 41.688 329.464 42.48 328.024 44.064C326.632 45.6 325.696 47.136 325.216 48.672V60.408C325.216 62.712 325.12 64.824 324.928 66.744C326.464 66.6 328.024 66.528 329.608 66.528V72H310.744V67.32Z" fill="#92928B"/>
<path d="M463.532 96.0321C465.356 96.0321 466.508 95.5281 466.988 94.5201C467.516 93.5121 467.78 91.8801 467.78 89.6241V77.5281C467.78 75.3681 467.876 73.3281 468.068 71.4081L463.028 71.6241V66.1521C466.052 66.1521 468.5 65.9361 470.372 65.5041C472.244 65.0721 473.492 64.5681 474.116 63.9921H477.644C477.644 64.0881 477.74 65.2881 477.932 67.5921H478.076C479.564 66.3921 481.244 65.4321 483.116 64.7121C484.988 63.9441 486.812 63.5601 488.588 63.5601C490.748 63.5601 492.548 63.9681 493.988 64.7841C495.476 65.5521 496.652 66.7281 497.516 68.3121C499.244 66.8721 501.164 65.7201 503.276 64.8561C505.388 63.9921 507.38 63.5601 509.252 63.5601C513.236 63.5601 516.188 64.7121 518.108 67.0161C520.076 69.3201 521.06 73.1601 521.06 78.5361V89.1201C521.06 91.4241 520.964 93.5361 520.772 95.4561C522.308 95.3121 523.868 95.2401 525.452 95.2401V100.712H507.236V96.0321C508.772 96.0321 509.756 95.5281 510.188 94.5201C510.62 93.4641 510.836 91.8321 510.836 89.6241V78.6081C510.788 75.5841 510.284 73.4481 509.324 72.2001C508.364 70.9041 506.972 70.2561 505.148 70.2561C503.036 70.2561 500.972 71.0481 498.956 72.6321C499.388 74.5521 499.604 76.8321 499.604 79.4721V89.1201C499.604 91.4241 499.508 93.5361 499.316 95.4561C500.852 95.3121 502.412 95.2401 503.996 95.2401V100.712H485.42V96.0321C487.1 96.0321 488.18 95.5281 488.66 94.5201C489.14 93.5121 489.38 91.8801 489.38 89.6241L489.308 78.3921C489.308 75.4161 488.876 73.3281 488.012 72.1281C487.148 70.8801 485.852 70.2321 484.124 70.1841C482.012 70.1841 479.972 71.0721 478.004 72.8481V89.1201C478.004 91.4241 477.908 93.5361 477.716 95.4561C479.252 95.3121 480.692 95.2401 482.036 95.2401V100.712H463.532V96.0321ZM544.319 101.864C540.047 101.864 536.975 100.616 535.103 98.1201C533.279 95.6241 532.367 91.5681 532.367 85.9521V77.6721C532.367 75.6561 532.439 73.5681 532.583 71.4081L527.543 71.6241V66.1521C530.567 66.1521 533.015 65.9361 534.887 65.5041C536.759 65.0721 538.007 64.5681 538.631 63.9921H542.591V86.0241C542.591 89.1921 542.999 91.5201 543.815 93.0081C544.631 94.4961 545.927 95.2401 547.703 95.2401C548.903 95.2401 550.127 94.9041 551.375 94.2321C552.671 93.5601 553.751 92.7441 554.615 91.7841V77.6721C554.615 75.4161 554.711 73.3281 554.903 71.4081L549.863 71.6241V66.1521C552.887 66.1521 555.311 65.9361 557.135 65.5041C559.007 65.0721 560.255 64.5681 560.879 63.9921H564.839V89.1201C564.839 91.4241 564.743 93.5361 564.551 95.4561C566.087 95.3121 567.647 95.2401 569.231 95.2401V100.712H555.551L555.119 96.9681H555.047C553.271 98.5041 551.543 99.7041 549.863 100.568C548.231 101.432 546.383 101.864 544.319 101.864ZM590.483 101.864C588.419 101.864 586.403 101.6 584.435 101.072C582.467 100.544 580.931 99.8721 579.827 99.0561H579.755L579.971 101.216H574.499L574.211 88.8321H578.891C579.131 91.0401 580.283 92.9121 582.347 94.4481C584.459 95.9361 587.027 96.6801 590.051 96.6801C591.395 96.6801 592.547 96.3681 593.507 95.7441C594.515 95.1201 595.019 94.2321 595.019 93.0801C595.019 92.2161 594.707 91.4961 594.083 90.9201C593.459 90.3441 592.715 89.8641 591.851 89.4801C590.987 89.0961 589.259 88.4001 586.667 87.3921C583.595 86.1921 581.291 85.2081 579.755 84.4401C578.219 83.6721 576.827 82.5441 575.579 81.0561C574.379 79.5201 573.779 77.5521 573.779 75.1521C573.779 73.1841 574.259 71.3361 575.219 69.6081C576.227 67.8321 577.739 66.3921 579.755 65.2881C581.819 64.1361 584.339 63.5601 587.315 63.5601C588.707 63.5601 590.219 63.7761 591.851 64.2081C593.483 64.6401 594.851 65.2401 595.955 66.0081H596.027L595.955 63.9201H601.427V76.6641H596.747C596.315 74.1681 595.211 72.2001 593.435 70.7601C591.659 69.3201 589.475 68.6001 586.883 68.6001C585.539 68.6001 584.411 68.9121 583.499 69.5361C582.587 70.1601 582.131 71.1201 582.131 72.4161C582.131 73.7601 582.659 74.7681 583.715 75.4401C584.771 76.0641 586.547 76.7841 589.043 77.6001C589.331 77.6481 589.955 77.8401 590.915 78.1761C594.995 79.6161 598.115 81.2961 600.275 83.2161C602.483 85.1361 603.587 87.6561 603.587 90.7761C603.587 93.1761 602.963 95.2161 601.715 96.8961C600.515 98.5281 598.907 99.7761 596.891 100.64C594.923 101.456 592.787 101.864 590.483 101.864ZM607.716 96.0321C609.012 96.0321 609.948 95.7921 610.524 95.3121C611.148 94.7841 611.532 94.0881 611.676 93.2241C611.868 92.3601 611.964 91.1601 611.964 89.6241V60.0321C611.964 57.7281 612.06 55.6401 612.252 53.7681L607.212 53.9841V48.5121C610.236 48.5121 612.684 48.2961 614.556 47.8641C616.428 47.4321 617.676 46.9281 618.3 46.3521H622.188V67.5921C623.58 66.4881 625.308 65.5521 627.372 64.7841C629.436 63.9681 631.212 63.5601 632.7 63.5601C637.02 63.5601 640.116 64.8081 641.988 67.3041C643.86 69.8001 644.82 73.8561 644.868 79.4721V89.1201C644.868 91.4241 644.772 93.5361 644.58 95.4561C646.116 95.3121 647.676 95.2401 649.26 95.2401V100.712H630.324V96.0321C632.148 96.0321 633.324 95.5281 633.852 94.5201C634.38 93.5121 634.644 91.8801 634.644 89.6241L634.572 79.4001C634.572 76.2321 634.092 73.9041 633.132 72.4161C632.22 70.9281 630.756 70.1841 628.74 70.1841C627.588 70.1841 626.412 70.4481 625.212 70.9761C624.012 71.4561 623.004 72.0801 622.188 72.8481V89.1201C622.188 91.4241 622.092 93.5361 621.9 95.4561C623.484 95.3121 625.044 95.2401 626.58 95.2401V100.712H607.716V96.0321ZM653.587 96.0321C655.411 96.0321 656.563 95.5281 657.043 94.5201C657.571 93.5121 657.835 91.8801 657.835 89.6241V77.5281C657.835 75.3681 657.931 73.3281 658.123 71.4081L653.083 71.6241V66.1521C656.107 66.1521 658.555 65.9361 660.427 65.5041C662.299 65.0721 663.547 64.5681 664.171 63.9921H667.699C667.795 64.7121 667.867 65.6481 667.915 66.8001C667.963 67.9521 667.987 69.0801 667.987 70.1841H668.131C671.395 65.7681 674.851 63.5601 678.499 63.5601C680.323 63.5601 681.811 64.0641 682.963 65.0721C684.163 66.0801 684.763 67.5681 684.763 69.5361C684.763 70.7841 684.355 71.9361 683.539 72.9921C682.723 74.0481 681.499 74.5761 679.867 74.5761C678.667 74.5761 677.587 74.2641 676.627 73.6401C675.715 73.0161 675.187 71.9361 675.043 70.4001C673.699 70.4001 672.307 71.1921 670.867 72.7761C669.475 74.3121 668.539 75.8481 668.059 77.3841V89.1201C668.059 91.4241 667.963 93.5361 667.771 95.4561C669.307 95.3121 670.867 95.2401 672.451 95.2401V100.712H653.587V96.0321ZM705.258 101.864C701.754 101.864 698.61 101.12 695.826 99.6321C693.042 98.1441 690.858 96.0081 689.274 93.2241C687.69 90.4401 686.898 87.2001 686.898 83.5041C686.898 79.6161 687.714 76.1601 689.346 73.1361C690.978 70.1121 693.162 67.7601 695.898 66.0801C698.682 64.4001 701.73 63.5601 705.042 63.5601C708.498 63.5601 711.594 64.3041 714.33 65.7921C717.066 67.2801 719.226 69.4401 720.81 72.2721C722.394 75.0561 723.186 78.3201 723.186 82.0641C723.186 86.0481 722.418 89.5281 720.882 92.5041C719.394 95.4801 717.282 97.7841 714.546 99.4161C711.858 101.048 708.762 101.864 705.258 101.864ZM705.402 96.7521C708.042 96.7521 709.89 95.5281 710.946 93.0801C712.002 90.6321 712.53 87.5601 712.53 83.8641C712.53 79.7361 711.93 76.1601 710.73 73.1361C709.53 70.1121 707.634 68.6001 705.042 68.6001C702.402 68.6001 700.482 69.8481 699.282 72.3441C698.082 74.8401 697.482 77.9121 697.482 81.5601C697.482 85.7361 698.13 89.3121 699.426 92.2881C700.722 95.2641 702.714 96.7521 705.402 96.7521ZM746.039 101.864C742.535 101.864 739.391 101.12 736.607 99.6321C733.823 98.1441 731.639 96.0081 730.055 93.2241C728.471 90.4401 727.679 87.2001 727.679 83.5041C727.679 79.6161 728.495 76.1601 730.127 73.1361C731.759 70.1121 733.943 67.7601 736.679 66.0801C739.463 64.4001 742.511 63.5601 745.823 63.5601C749.279 63.5601 752.375 64.3041 755.111 65.7921C757.847 67.2801 760.007 69.4401 761.591 72.2721C763.175 75.0561 763.967 78.3201 763.967 82.0641C763.967 86.0481 763.199 89.5281 761.663 92.5041C760.175 95.4801 758.063 97.7841 755.327 99.4161C752.639 101.048 749.543 101.864 746.039 101.864ZM746.183 96.7521C748.823 96.7521 750.671 95.5281 751.727 93.0801C752.783 90.6321 753.311 87.5601 753.311 83.8641C753.311 79.7361 752.711 76.1601 751.511 73.1361C750.311 70.1121 748.415 68.6001 745.823 68.6001C743.183 68.6001 741.263 69.8481 740.063 72.3441C738.863 74.8401 738.263 77.9121 738.263 81.5601C738.263 85.7361 738.911 89.3121 740.207 92.2881C741.503 95.2641 743.495 96.7521 746.183 96.7521ZM769.181 96.0321C771.005 96.0321 772.157 95.5281 772.637 94.5201C773.165 93.5121 773.429 91.8801 773.429 89.6241V77.5281C773.429 75.3681 773.525 73.3281 773.717 71.4081L768.677 71.6241V66.1521C771.701 66.1521 774.149 65.9361 776.021 65.5041C777.893 65.0721 779.141 64.5681 779.765 63.9921H783.293C783.293 64.0881 783.389 65.2881 783.581 67.5921H783.725C785.213 66.3921 786.893 65.4321 788.765 64.7121C790.637 63.9441 792.461 63.5601 794.237 63.5601C796.397 63.5601 798.197 63.9681 799.637 64.7841C801.125 65.5521 802.301 66.7281 803.165 68.3121C804.893 66.8721 806.813 65.7201 808.925 64.8561C811.037 63.9921 813.029 63.5601 814.901 63.5601C818.885 63.5601 821.837 64.7121 823.757 67.0161C825.725 69.3201 826.709 73.1601 826.709 78.5361V89.1201C826.709 91.4241 826.613 93.5361 826.421 95.4561C827.957 95.3121 829.517 95.2401 831.101 95.2401V100.712H812.885V96.0321C814.421 96.0321 815.405 95.5281 815.837 94.5201C816.269 93.4641 816.485 91.8321 816.485 89.6241V78.6081C816.437 75.5841 815.933 73.4481 814.973 72.2001C814.013 70.9041 812.621 70.2561 810.797 70.2561C808.685 70.2561 806.621 71.0481 804.605 72.6321C805.037 74.5521 805.253 76.8321 805.253 79.4721V89.1201C805.253 91.4241 805.157 93.5361 804.965 95.4561C806.501 95.3121 808.061 95.2401 809.645 95.2401V100.712H791.069V96.0321C792.749 96.0321 793.829 95.5281 794.309 94.5201C794.789 93.5121 795.029 91.8801 795.029 89.6241L794.957 78.3921C794.957 75.4161 794.525 73.3281 793.661 72.1281C792.797 70.8801 791.501 70.2321 789.773 70.1841C787.661 70.1841 785.621 71.0721 783.653 72.8481V89.1201C783.653 91.4241 783.557 93.5361 783.365 95.4561C784.901 95.3121 786.341 95.2401 787.685 95.2401V100.712H769.181V96.0321Z" fill="#92928B"/>
<path d="M297.724 158.04C295.66 158.04 293.644 157.776 291.676 157.248C289.708 156.72 288.172 156.048 287.068 155.232H286.996L287.212 157.392H281.74L281.452 145.008H286.132C286.372 147.216 287.524 149.088 289.588 150.624C291.7 152.112 294.268 152.856 297.292 152.856C298.636 152.856 299.788 152.544 300.748 151.92C301.756 151.296 302.26 150.408 302.26 149.256C302.26 148.392 301.948 147.672 301.324 147.096C300.7 146.52 299.956 146.04 299.092 145.656C298.228 145.272 296.5 144.576 293.908 143.568C290.836 142.368 288.532 141.384 286.996 140.616C285.46 139.848 284.068 138.72 282.82 137.232C281.62 135.696 281.02 133.728 281.02 131.328C281.02 129.36 281.5 127.512 282.46 125.784C283.468 124.008 284.98 122.568 286.996 121.464C289.06 120.312 291.58 119.736 294.556 119.736C295.948 119.736 297.46 119.952 299.092 120.384C300.724 120.816 302.092 121.416 303.196 122.184H303.268L303.196 120.096H308.668V132.84H303.988C303.556 130.344 302.452 128.376 300.676 126.936C298.9 125.496 296.716 124.776 294.124 124.776C292.78 124.776 291.652 125.088 290.74 125.712C289.828 126.336 289.372 127.296 289.372 128.592C289.372 129.936 289.9 130.944 290.956 131.616C292.012 132.24 293.788 132.96 296.284 133.776C296.572 133.824 297.196 134.016 298.156 134.352C302.236 135.792 305.356 137.472 307.516 139.392C309.724 141.312 310.828 143.832 310.828 146.952C310.828 149.352 310.204 151.392 308.956 153.072C307.756 154.704 306.148 155.952 304.132 156.816C302.164 157.632 300.028 158.04 297.724 158.04ZM325.109 158.04C322.085 158.04 319.685 157.152 317.909 155.376C316.181 153.552 315.317 151.248 315.317 148.464C315.317 144.24 317.285 141.048 321.221 138.888C325.157 136.68 329.885 135.456 335.405 135.216V131.472C335.405 127.104 333.773 124.92 330.509 124.92C328.397 124.92 326.669 125.592 325.325 126.936C325.901 127.608 326.189 128.52 326.189 129.672C326.189 130.824 325.781 131.856 324.965 132.768C324.197 133.68 323.045 134.136 321.509 134.136C320.069 134.136 318.941 133.68 318.125 132.768C317.309 131.808 316.901 130.632 316.901 129.24C316.901 127.368 317.573 125.712 318.917 124.272C320.261 122.832 322.085 121.728 324.389 120.96C326.741 120.144 329.309 119.736 332.093 119.736C340.973 119.736 345.413 124.32 345.413 133.488L345.341 145.296C345.341 147.6 345.245 149.712 345.053 151.632C346.637 151.488 348.197 151.416 349.733 151.416V156.888H336.125C336.029 156.264 335.933 155.16 335.837 153.576H335.765C332.837 156.552 329.285 158.04 325.109 158.04ZM329.645 150.984C331.805 150.984 333.701 150.12 335.333 148.392V140.328C332.501 140.616 330.149 141.336 328.277 142.488C326.453 143.64 325.541 145.2 325.541 147.168C325.541 148.464 325.925 149.424 326.693 150.048C327.509 150.672 328.493 150.984 329.645 150.984ZM352.715 152.208C354.011 152.208 354.947 151.968 355.523 151.488C356.147 150.96 356.531 150.264 356.675 149.4C356.867 148.536 356.963 147.336 356.963 145.8V116.208C356.963 113.904 357.059 111.816 357.251 109.944L352.211 110.16V104.688C355.235 104.688 357.683 104.472 359.555 104.04C361.427 103.608 362.675 103.104 363.299 102.528H367.187V145.296C367.187 147.6 367.091 149.712 366.899 151.632C368.483 151.488 370.043 151.416 371.579 151.416V156.888H352.715V152.208ZM385.296 158.04C382.272 158.04 379.872 157.152 378.096 155.376C376.368 153.552 375.504 151.248 375.504 148.464C375.504 144.24 377.472 141.048 381.408 138.888C385.344 136.68 390.072 135.456 395.592 135.216V131.472C395.592 127.104 393.96 124.92 390.696 124.92C388.584 124.92 386.856 125.592 385.512 126.936C386.088 127.608 386.376 128.52 386.376 129.672C386.376 130.824 385.968 131.856 385.152 132.768C384.384 133.68 383.232 134.136 381.696 134.136C380.256 134.136 379.128 133.68 378.312 132.768C377.496 131.808 377.088 130.632 377.088 129.24C377.088 127.368 377.76 125.712 379.104 124.272C380.448 122.832 382.272 121.728 384.576 120.96C386.928 120.144 389.496 119.736 392.28 119.736C401.16 119.736 405.6 124.32 405.6 133.488L405.528 145.296C405.528 147.6 405.432 149.712 405.24 151.632C406.824 151.488 408.384 151.416 409.92 151.416V156.888H396.312C396.216 156.264 396.12 155.16 396.024 153.576H395.952C393.024 156.552 389.472 158.04 385.296 158.04ZM389.832 150.984C391.992 150.984 393.888 150.12 395.52 148.392V140.328C392.688 140.616 390.336 141.336 388.464 142.488C386.64 143.64 385.728 145.2 385.728 147.168C385.728 148.464 386.112 149.424 386.88 150.048C387.696 150.672 388.68 150.984 389.832 150.984ZM427.95 158.04C425.07 158.04 422.526 157.296 420.318 155.808C418.158 154.32 416.454 152.208 415.206 149.472C414.006 146.688 413.406 143.472 413.406 139.824C413.406 135.984 414.15 132.552 415.638 129.528C417.126 126.456 419.214 124.056 421.902 122.328C424.638 120.6 427.758 119.736 431.262 119.736C433.134 119.736 435.27 120.168 437.67 121.032V116.28C437.67 113.976 437.766 111.864 437.958 109.944C436.374 110.088 434.67 110.16 432.846 110.16V104.688C435.87 104.688 438.318 104.472 440.19 104.04C442.062 103.608 443.31 103.104 443.934 102.528H447.822V145.296C447.822 147.6 447.726 149.712 447.534 151.632C449.118 151.488 450.678 151.416 452.214 151.416V156.888H438.534L438.174 153.576H438.102C435.27 156.552 431.886 158.04 427.95 158.04ZM431.694 151.488C432.894 151.488 434.022 151.176 435.078 150.552C436.134 149.928 436.998 149.088 437.67 148.032V126.432C437.142 126.048 436.398 125.736 435.438 125.496C434.478 125.208 433.518 125.064 432.558 125.064C429.486 125.112 427.278 126.432 425.934 129.024C424.638 131.616 423.99 134.856 423.99 138.744C423.99 142.2 424.614 145.2 425.862 147.744C427.158 150.24 429.102 151.488 431.694 151.488Z" fill="#92928B"/>
</g>
<defs>
<clipPath id="clip0">
<rect width="850" height="200" fill="white"/>
</clipPath>
</defs>
</svg>
