<svg width="292" height="56" viewBox="0 0 292 56" fill="none" xmlns="http://www.w3.org/2000/svg">
<path d="M13.4568 14.406C15.9768 14.406 18.0648 15 19.7208 16.188C21.3768 17.376 22.2048 18.942 22.2048 20.886C22.2048 22.002 21.8808 22.902 21.2328 23.586C20.5848 24.27 19.7208 24.612 18.6408 24.612C17.5608 24.612 16.7508 24.27 16.2108 23.586C15.6708 22.902 15.4008 22.182 15.4008 21.426C15.4008 20.598 15.5808 19.842 15.9408 19.158C15.7608 18.834 15.4368 18.564 14.9688 18.348C14.5008 18.096 13.9608 17.97 13.3488 17.97C11.2248 17.97 9.73084 19.266 8.86684 21.858C8.00284 24.414 7.57084 27.168 7.57084 30.12C7.57084 32.748 8.05684 34.656 9.02884 35.844C10.0368 37.032 11.2068 37.626 12.5388 37.626C13.7628 37.626 14.9868 37.212 16.2108 36.384C17.4348 35.556 18.5148 34.098 19.4508 32.01L22.5288 33.522C21.0888 36.834 19.3788 39.174 17.3988 40.542C15.4548 41.874 13.2408 42.558 10.7568 42.594C7.48084 42.558 4.88884 41.568 2.98084 39.624C1.10884 37.644 0.172844 34.71 0.172844 30.822C0.172844 28.338 0.676844 25.836 1.68484 23.316C2.69284 20.76 4.20484 18.636 6.22084 16.944C8.23684 15.252 10.6488 14.406 13.4568 14.406ZM36.2339 4.2C35.8739 7.368 35.5499 10.05 35.2619 12.246C35.1539 13.29 34.9559 14.856 34.6679 16.944C34.4159 19.032 34.1099 20.904 33.7499 22.56H33.8039C34.9559 19.572 36.3239 17.466 37.9079 16.242C39.5279 15.018 41.2379 14.406 43.0379 14.406C45.2699 14.406 46.9259 15.144 48.0059 16.62C49.0859 18.06 49.6259 20.094 49.6259 22.722C49.6259 24.018 49.4099 26.25 48.9779 29.418C48.5099 32.37 48.2759 34.62 48.2759 36.168C48.2759 37.104 48.5459 37.572 49.0859 37.572C50.0219 37.572 50.8859 36.15 51.6779 33.306L54.5939 34.17C54.3779 35.358 53.9099 36.6 53.1899 37.896C52.5059 39.192 51.5879 40.308 50.4359 41.244C49.2839 42.144 47.9519 42.594 46.4399 42.594C44.5319 42.594 43.1999 42.09 42.4439 41.082C41.6879 40.074 41.3099 38.544 41.3099 36.492C41.3099 34.872 41.5619 32.118 42.0659 28.23C42.1379 27.618 42.2459 26.574 42.3899 25.098C42.5699 23.586 42.6599 22.434 42.6599 21.642C42.6599 20.814 42.5339 20.238 42.2819 19.914C42.0659 19.554 41.6879 19.374 41.1479 19.374C40.1039 19.374 38.9879 20.4 37.7999 22.452C36.6119 24.504 35.6039 27.024 34.7759 30.012C33.9839 32.964 33.5879 35.664 33.5879 38.112C33.5879 38.976 33.6419 40.272 33.7499 42H26.8379C26.7299 40.992 26.6759 40.128 26.6759 39.408C26.6759 35.268 26.8379 30.534 27.1619 25.206C27.5219 19.878 27.9179 15.414 28.3499 11.814C28.5299 9.762 28.7639 8.088 29.0519 6.792L25.2719 6.954L25.4879 2.85C27.7559 2.85 29.5739 2.688 30.9419 2.364C32.3099 2.04 33.2279 1.662 33.6959 1.23H36.6119L36.2339 4.2ZM65.2437 0.797999C66.3957 0.797999 67.3317 1.212 68.0517 2.04C68.7717 2.832 69.1317 3.84 69.1317 5.064C69.1317 6.36 68.7177 7.458 67.8897 8.358C67.0977 9.222 66.1077 9.654 64.9197 9.654C63.7317 9.654 62.7597 9.258 62.0037 8.466C61.2837 7.674 60.9237 6.684 60.9237 5.496C60.9237 4.236 61.3557 3.138 62.2197 2.202C63.1197 1.266 64.1277 0.797999 65.2437 0.797999ZM63.3537 14.406C65.1537 14.406 66.4317 14.946 67.1877 16.026C67.9797 17.106 68.3757 18.654 68.3757 20.67C68.3757 21.75 68.2317 23.388 67.9437 25.584C67.6557 27.744 67.4757 29.13 67.4037 29.742C67.3317 30.21 67.1877 31.254 66.9717 32.874C66.7557 34.458 66.6477 35.556 66.6477 36.168C66.6477 37.104 66.9177 37.572 67.4577 37.572C68.4297 37.572 69.3117 36.15 70.1037 33.306L73.0197 34.17C72.8037 35.358 72.3357 36.6 71.6157 37.896C70.8957 39.192 69.9597 40.308 68.8077 41.244C67.6557 42.144 66.3237 42.594 64.8117 42.594C62.9037 42.594 61.5537 42.09 60.7617 41.082C60.0057 40.074 59.6277 38.544 59.6277 36.492C59.6277 34.872 59.9517 32.01 60.5997 27.906C61.1397 24.378 61.4097 22.02 61.4097 20.832C61.4097 19.896 61.1217 19.428 60.5457 19.428C59.6097 19.428 58.7457 20.85 57.9537 23.694L55.0377 22.83C55.2537 21.678 55.7217 20.454 56.4417 19.158C57.1977 17.826 58.1517 16.71 59.3037 15.81C60.4917 14.874 61.8417 14.406 63.3537 14.406ZM86.6142 1.23C86.5422 1.986 86.4522 2.796 86.3442 3.66C86.2362 4.524 86.1282 5.424 86.0202 6.36C85.0482 14.928 84.2922 21.66 83.7522 26.556C83.2482 31.452 82.9962 34.602 82.9962 36.006C82.9962 37.05 83.2482 37.572 83.7522 37.572C84.7242 37.572 85.6062 36.15 86.3982 33.306L89.3142 34.17C88.7382 36.474 87.7842 38.454 86.4522 40.11C85.1562 41.766 83.3382 42.594 80.9982 42.594C79.5942 42.594 78.4242 42.18 77.4882 41.352C76.5882 40.488 76.1382 39.174 76.1382 37.41C76.1382 34.53 76.3182 31.164 76.6782 27.312C77.0742 23.424 77.6502 18.258 78.4062 11.814C78.6222 9.906 78.8562 8.232 79.1082 6.792L75.3282 6.954L75.5442 2.85C77.7762 2.85 79.5582 2.688 80.8902 2.364C82.2582 2.04 83.1942 1.662 83.6982 1.23H86.6142ZM100.154 0.797999C101.306 0.797999 102.242 1.212 102.962 2.04C103.682 2.832 104.042 3.84 104.042 5.064C104.042 6.36 103.628 7.458 102.8 8.358C102.008 9.222 101.018 9.654 99.8298 9.654C98.6418 9.654 97.6698 9.258 96.9138 8.466C96.1938 7.674 95.8338 6.684 95.8338 5.496C95.8338 4.236 96.2658 3.138 97.1298 2.202C98.0298 1.266 99.0378 0.797999 100.154 0.797999ZM98.2638 14.406C100.064 14.406 101.342 14.946 102.098 16.026C102.89 17.106 103.286 18.654 103.286 20.67C103.286 21.75 103.142 23.388 102.854 25.584C102.566 27.744 102.386 29.13 102.314 29.742C102.242 30.21 102.098 31.254 101.882 32.874C101.666 34.458 101.558 35.556 101.558 36.168C101.558 37.104 101.828 37.572 102.368 37.572C103.34 37.572 104.222 36.15 105.014 33.306L107.93 34.17C107.714 35.358 107.246 36.6 106.526 37.896C105.806 39.192 104.87 40.308 103.718 41.244C102.566 42.144 101.234 42.594 99.7218 42.594C97.8138 42.594 96.4638 42.09 95.6718 41.082C94.9158 40.074 94.5378 38.544 94.5378 36.492C94.5378 34.872 94.8618 32.01 95.5098 27.906C96.0498 24.378 96.3198 22.02 96.3198 20.832C96.3198 19.896 96.0318 19.428 95.4558 19.428C94.5198 19.428 93.6558 20.85 92.8638 23.694L89.9478 22.83C90.1638 21.678 90.6318 20.454 91.3518 19.158C92.1078 17.826 93.0618 16.71 94.2138 15.81C95.4018 14.874 96.7518 14.406 98.2638 14.406ZM143.81 14.406C146.366 14.406 148.328 15.342 149.696 17.214C151.1 19.086 151.802 21.588 151.802 24.72C151.802 28.212 151.226 31.308 150.074 34.008C148.958 36.672 147.266 38.778 144.998 40.326C142.73 41.838 139.922 42.594 136.574 42.594C135.818 42.594 135.242 42.576 134.846 42.54L134.63 46.968C134.522 48.768 134.378 50.388 134.198 51.828C135.35 51.72 136.538 51.666 137.762 51.666V55.77H124.1V52.26C125.324 52.26 126.152 51.864 126.584 51.072C127.052 50.28 127.358 49.056 127.502 47.4C128.762 33.792 129.392 24.99 129.392 20.994C129.392 19.95 129.122 19.428 128.582 19.428C127.646 19.428 126.782 20.85 125.99 23.694L123.074 22.83C123.47 20.706 124.244 18.78 125.396 17.052C126.584 15.288 128.222 14.406 130.31 14.406C131.642 14.406 132.704 14.784 133.496 15.54C134.324 16.296 134.738 17.556 134.738 19.32C134.738 20.364 134.666 21.444 134.522 22.56H134.576C135.728 19.608 137.132 17.52 138.788 16.296C140.444 15.036 142.118 14.406 143.81 14.406ZM141.812 19.32C140.048 19.32 138.608 20.958 137.492 24.234C136.376 27.51 135.566 32.334 135.062 38.706C135.818 38.922 136.538 39.03 137.222 39.03C139.094 39.03 140.57 38.22 141.65 36.6C142.73 34.944 143.468 33.036 143.864 30.876C144.26 28.68 144.458 26.646 144.458 24.774C144.458 21.138 143.576 19.32 141.812 19.32ZM168.768 14.406C171.252 14.406 173.214 14.964 174.654 16.08C176.13 17.196 176.868 18.906 176.868 21.21C176.868 23.838 175.5 25.818 172.764 27.15C170.028 28.482 166.608 29.436 162.504 30.012C162.504 32.82 162.972 34.8 163.908 35.952C164.844 37.068 165.996 37.626 167.364 37.626C168.588 37.626 169.848 37.266 171.144 36.546C172.44 35.79 173.52 34.422 174.384 32.442L177.408 33.9C175.968 37.212 174.276 39.498 172.332 40.758C170.388 41.982 168.192 42.594 165.744 42.594C162.396 42.594 159.786 41.604 157.914 39.624C156.042 37.644 155.106 34.71 155.106 30.822C155.106 28.302 155.61 25.782 156.618 23.262C157.626 20.742 159.156 18.636 161.208 16.944C163.26 15.252 165.78 14.406 168.768 14.406ZM168.174 17.97C166.518 17.97 165.24 18.798 164.34 20.454C163.476 22.11 162.918 24.126 162.666 26.502C165.402 25.998 167.4 25.242 168.66 24.234C169.92 23.19 170.55 21.966 170.55 20.562C170.55 19.698 170.298 19.05 169.794 18.618C169.326 18.186 168.786 17.97 168.174 17.97ZM200.236 14.406C202.792 14.406 204.754 15.342 206.122 17.214C207.526 19.086 208.228 21.588 208.228 24.72C208.228 28.212 207.652 31.308 206.5 34.008C205.384 36.672 203.692 38.778 201.424 40.326C199.156 41.838 196.348 42.594 193 42.594C192.244 42.594 191.668 42.576 191.272 42.54L191.056 46.968C190.948 48.768 190.804 50.388 190.624 51.828C191.776 51.72 192.964 51.666 194.188 51.666V55.77H180.526V52.26C181.75 52.26 182.578 51.864 183.01 51.072C183.478 50.28 183.784 49.056 183.928 47.4C185.188 33.792 185.818 24.99 185.818 20.994C185.818 19.95 185.548 19.428 185.008 19.428C184.072 19.428 183.208 20.85 182.416 23.694L179.5 22.83C179.896 20.706 180.67 18.78 181.822 17.052C183.01 15.288 184.648 14.406 186.736 14.406C188.068 14.406 189.13 14.784 189.922 15.54C190.75 16.296 191.164 17.556 191.164 19.32C191.164 20.364 191.092 21.444 190.948 22.56H191.002C192.154 19.608 193.558 17.52 195.214 16.296C196.87 15.036 198.544 14.406 200.236 14.406ZM198.238 19.32C196.474 19.32 195.034 20.958 193.918 24.234C192.802 27.51 191.992 32.334 191.488 38.706C192.244 38.922 192.964 39.03 193.648 39.03C195.52 39.03 196.996 38.22 198.076 36.6C199.156 34.944 199.894 33.036 200.29 30.876C200.686 28.68 200.884 26.646 200.884 24.774C200.884 21.138 200.002 19.32 198.238 19.32ZM231.296 14.406C233.852 14.406 235.814 15.342 237.182 17.214C238.586 19.086 239.288 21.588 239.288 24.72C239.288 28.212 238.712 31.308 237.56 34.008C236.444 36.672 234.752 38.778 232.484 40.326C230.216 41.838 227.408 42.594 224.06 42.594C223.304 42.594 222.728 42.576 222.332 42.54L222.116 46.968C222.008 48.768 221.864 50.388 221.684 51.828C222.836 51.72 224.024 51.666 225.248 51.666V55.77H211.586V52.26C212.81 52.26 213.638 51.864 214.07 51.072C214.538 50.28 214.844 49.056 214.988 47.4C216.248 33.792 216.878 24.99 216.878 20.994C216.878 19.95 216.608 19.428 216.068 19.428C215.132 19.428 214.268 20.85 213.476 23.694L210.56 22.83C210.956 20.706 211.73 18.78 212.882 17.052C214.07 15.288 215.708 14.406 217.796 14.406C219.128 14.406 220.19 14.784 220.982 15.54C221.81 16.296 222.224 17.556 222.224 19.32C222.224 20.364 222.152 21.444 222.008 22.56H222.062C223.214 19.608 224.618 17.52 226.274 16.296C227.93 15.036 229.604 14.406 231.296 14.406ZM229.298 19.32C227.534 19.32 226.094 20.958 224.978 24.234C223.862 27.51 223.052 32.334 222.548 38.706C223.304 38.922 224.024 39.03 224.708 39.03C226.58 39.03 228.056 38.22 229.136 36.6C230.216 34.944 230.954 33.036 231.35 30.876C231.746 28.68 231.944 26.646 231.944 24.774C231.944 21.138 231.062 19.32 229.298 19.32ZM256.255 14.406C258.739 14.406 260.701 14.964 262.141 16.08C263.617 17.196 264.355 18.906 264.355 21.21C264.355 23.838 262.987 25.818 260.251 27.15C257.515 28.482 254.095 29.436 249.991 30.012C249.991 32.82 250.459 34.8 251.395 35.952C252.331 37.068 253.483 37.626 254.851 37.626C256.075 37.626 257.335 37.266 258.631 36.546C259.927 35.79 261.007 34.422 261.871 32.442L264.895 33.9C263.455 37.212 261.763 39.498 259.819 40.758C257.875 41.982 255.679 42.594 253.231 42.594C249.883 42.594 247.273 41.604 245.401 39.624C243.529 37.644 242.593 34.71 242.593 30.822C242.593 28.302 243.097 25.782 244.105 23.262C245.113 20.742 246.643 18.636 248.695 16.944C250.747 15.252 253.267 14.406 256.255 14.406ZM255.661 17.97C254.005 17.97 252.727 18.798 251.827 20.454C250.963 22.11 250.405 24.126 250.153 26.502C252.889 25.998 254.887 25.242 256.147 24.234C257.407 23.19 258.037 21.966 258.037 20.562C258.037 19.698 257.785 19.05 257.281 18.618C256.813 18.186 256.273 17.97 255.661 17.97ZM287.074 14.406C288.442 14.406 289.54 14.784 290.368 15.54C291.196 16.296 291.61 17.286 291.61 18.51C291.61 19.482 291.268 20.346 290.584 21.102C289.9 21.822 289.036 22.182 287.992 22.182C287.164 22.182 286.444 21.93 285.832 21.426C285.256 20.886 284.986 20.202 285.022 19.374C284.05 19.266 283.042 20.238 281.998 22.29C280.954 24.306 280.09 26.826 279.406 29.85C278.722 32.838 278.38 35.592 278.38 38.112C278.38 38.976 278.434 40.272 278.542 42H271.468C271.36 40.992 271.306 40.128 271.306 39.408C271.306 38.256 271.432 36.582 271.684 34.386C271.936 32.154 272.206 29.976 272.494 27.852C272.566 27.204 272.71 26.034 272.926 24.342C273.142 22.614 273.25 21.444 273.25 20.832C273.25 19.896 272.998 19.428 272.494 19.428C271.558 19.428 270.694 20.85 269.902 23.694L266.932 22.83C267.4 20.67 268.192 18.726 269.308 16.998C270.46 15.27 272.08 14.406 274.168 14.406C275.5 14.406 276.58 14.784 277.408 15.54C278.272 16.296 278.704 17.556 278.704 19.32C278.704 20.58 278.524 22.182 278.164 24.126H278.218C279.55 20.418 280.954 17.88 282.43 16.512C283.942 15.108 285.49 14.406 287.074 14.406Z" fill="#92BCE4"/>
</svg>
