<svg width="850" height="200" viewBox="0 0 850 200" fill="none" xmlns="http://www.w3.org/2000/svg">
<g clip-path="url(#clip0)">
<path d="M65.7126 96.32C67.5366 96.32 68.7126 95.816 69.2406 94.808C69.7686 93.8 70.0326 92.168 70.0326 89.912V70.904L64.7766 70.976V65H70.0326V62.912C70.0326 57.296 71.2566 53.192 73.7046 50.6C76.1526 47.96 79.6326 46.64 84.1446 46.64C87.2646 46.64 89.5686 47.264 91.0566 48.512C92.5446 49.76 93.2886 51.248 93.2886 52.976C93.2886 54.32 92.8806 55.472 92.0646 56.432C91.2486 57.344 90.1206 57.8 88.6806 57.8C87.3366 57.8 86.2806 57.416 85.5126 56.648C84.7926 55.88 84.4326 54.896 84.4326 53.696C84.4326 53.072 84.4806 52.592 84.5766 52.256C84.1926 51.872 83.6406 51.68 82.9206 51.68C81.0006 51.728 80.0406 53.216 80.0406 56.144V65H88.1046V70.544L80.1126 70.76L80.1846 89.264C80.1846 91.664 80.0886 93.824 79.8966 95.744C81.4806 95.6 83.1606 95.528 84.9366 95.528V101H65.7126V96.32ZM108.789 102.152C105.285 102.152 102.189 101.384 99.5009 99.848C96.8129 98.264 94.7249 96.032 93.2369 93.152C91.7489 90.272 91.0049 86.912 91.0049 83.072C91.0049 79.712 91.7489 76.568 93.2369 73.64C94.7729 70.664 96.9089 68.288 99.6449 66.512C102.381 64.736 105.501 63.848 109.005 63.848C113.661 63.848 117.525 65.216 120.597 67.952C123.717 70.688 125.253 75.248 125.205 81.632L101.589 82.064C101.589 86.288 102.381 89.624 103.965 92.072C105.597 94.52 108.189 95.744 111.741 95.744C113.421 95.744 115.221 95.312 117.141 94.448C119.061 93.584 120.789 92.216 122.325 90.344L125.565 93.368C121.485 99.224 115.893 102.152 108.789 102.152ZM115.269 77.024C115.125 71.6 113.157 68.888 109.365 68.888C107.301 68.888 105.645 69.632 104.397 71.12C103.197 72.56 102.405 74.528 102.021 77.024H115.269ZM130.467 96.32C132.291 96.32 133.443 95.816 133.923 94.808C134.451 93.8 134.715 92.168 134.715 89.912V77.816C134.715 75.656 134.811 73.616 135.003 71.696L129.963 71.912V66.44C132.987 66.44 135.435 66.224 137.307 65.792C139.179 65.36 140.427 64.856 141.051 64.28H144.579C144.675 65 144.747 65.936 144.795 67.088C144.843 68.24 144.867 69.368 144.867 70.472H145.011C148.275 66.056 151.731 63.848 155.379 63.848C157.203 63.848 158.691 64.352 159.843 65.36C161.043 66.368 161.643 67.856 161.643 69.824C161.643 71.072 161.235 72.224 160.419 73.28C159.603 74.336 158.379 74.864 156.747 74.864C155.547 74.864 154.467 74.552 153.507 73.928C152.595 73.304 152.067 72.224 151.923 70.688C150.579 70.688 149.187 71.48 147.747 73.064C146.355 74.6 145.419 76.136 144.939 77.672V89.408C144.939 91.712 144.843 93.824 144.651 95.744C146.187 95.6 147.747 95.528 149.331 95.528V101H130.467V96.32ZM165.061 96.32C166.885 96.32 168.037 95.816 168.517 94.808C169.045 93.8 169.309 92.168 169.309 89.912V77.816C169.309 75.656 169.405 73.616 169.597 71.696L164.557 71.912V66.44C167.581 66.44 170.029 66.224 171.901 65.792C173.773 65.36 175.021 64.856 175.645 64.28H179.173C179.173 64.376 179.269 65.576 179.461 67.88H179.605C181.093 66.68 182.773 65.72 184.645 65C186.517 64.232 188.341 63.848 190.117 63.848C192.277 63.848 194.077 64.256 195.517 65.072C197.005 65.84 198.181 67.016 199.045 68.6C200.773 67.16 202.693 66.008 204.805 65.144C206.917 64.28 208.909 63.848 210.781 63.848C214.765 63.848 217.717 65 219.637 67.304C221.605 69.608 222.589 73.448 222.589 78.824V89.408C222.589 91.712 222.493 93.824 222.301 95.744C223.837 95.6 225.397 95.528 226.981 95.528V101H208.765V96.32C210.301 96.32 211.285 95.816 211.717 94.808C212.149 93.752 212.365 92.12 212.365 89.912V78.896C212.317 75.872 211.813 73.736 210.853 72.488C209.893 71.192 208.501 70.544 206.677 70.544C204.565 70.544 202.501 71.336 200.485 72.92C200.917 74.84 201.133 77.12 201.133 79.76V89.408C201.133 91.712 201.037 93.824 200.845 95.744C202.381 95.6 203.941 95.528 205.525 95.528V101H186.949V96.32C188.629 96.32 189.709 95.816 190.189 94.808C190.669 93.8 190.909 92.168 190.909 89.912L190.837 78.68C190.837 75.704 190.405 73.616 189.541 72.416C188.677 71.168 187.381 70.52 185.653 70.472C183.541 70.472 181.501 71.36 179.533 73.136V89.408C179.533 91.712 179.437 93.824 179.245 95.744C180.781 95.6 182.221 95.528 183.565 95.528V101H165.061V96.32ZM248.359 102.152C244.855 102.152 241.759 101.384 239.071 99.848C236.383 98.264 234.295 96.032 232.807 93.152C231.319 90.272 230.575 86.912 230.575 83.072C230.575 79.712 231.319 76.568 232.807 73.64C234.343 70.664 236.479 68.288 239.215 66.512C241.951 64.736 245.071 63.848 248.575 63.848C253.231 63.848 257.095 65.216 260.167 67.952C263.287 70.688 264.823 75.248 264.775 81.632L241.159 82.064C241.159 86.288 241.951 89.624 243.535 92.072C245.167 94.52 247.759 95.744 251.311 95.744C252.991 95.744 254.791 95.312 256.711 94.448C258.631 93.584 260.359 92.216 261.895 90.344L265.135 93.368C261.055 99.224 255.463 102.152 248.359 102.152ZM254.839 77.024C254.695 71.6 252.727 68.888 248.935 68.888C246.871 68.888 245.215 69.632 243.967 71.12C242.767 72.56 241.975 74.528 241.591 77.024H254.839ZM270.037 96.32C271.861 96.32 273.013 95.816 273.493 94.808C274.021 93.8 274.285 92.168 274.285 89.912V77.816C274.285 75.656 274.381 73.616 274.573 71.696L269.533 71.912V66.44C272.557 66.44 275.005 66.224 276.877 65.792C278.749 65.36 279.997 64.856 280.621 64.28H284.149C284.149 64.376 284.245 65.576 284.437 67.88H284.581C285.973 66.776 287.677 65.84 289.693 65.072C291.757 64.256 293.509 63.848 294.949 63.848C299.317 63.848 302.437 65.096 304.309 67.592C306.181 70.088 307.117 74.144 307.117 79.76V89.408C307.117 91.712 307.021 93.824 306.829 95.744C308.413 95.6 309.973 95.528 311.509 95.528V101H292.645V96.32C294.469 96.32 295.645 95.816 296.173 94.808C296.701 93.8 296.965 92.168 296.965 89.912L296.893 79.688C296.893 76.52 296.437 74.192 295.525 72.704C294.661 71.216 293.173 70.472 291.061 70.472C289.909 70.472 288.733 70.736 287.533 71.264C286.333 71.744 285.325 72.368 284.509 73.136V89.408C284.509 91.712 284.413 93.824 284.221 95.744C285.757 95.6 287.317 95.528 288.901 95.528V101H270.037V96.32ZM329.645 102.152C322.157 102.152 318.413 97.544 318.413 88.328L318.557 70.976H313.661V65C315.197 65 316.637 64.52 317.981 63.56C319.373 62.6 320.549 61.424 321.509 60.032C322.469 58.64 323.141 57.296 323.525 56H328.853L328.781 65H337.925V70.544L328.781 70.76L328.709 88.472C328.709 93.128 330.149 95.456 333.029 95.456C335.333 95.456 337.517 94.016 339.581 91.136L343.037 94.376C340.781 97.688 338.525 99.824 336.269 100.784C334.013 101.696 331.805 102.152 329.645 102.152ZM362.195 102.152C358.691 102.152 355.595 101.384 352.907 99.848C350.219 98.264 348.131 96.032 346.643 93.152C345.155 90.272 344.411 86.912 344.411 83.072C344.411 79.712 345.155 76.568 346.643 73.64C348.179 70.664 350.315 68.288 353.051 66.512C355.787 64.736 358.907 63.848 362.411 63.848C367.067 63.848 370.931 65.216 374.003 67.952C377.123 70.688 378.659 75.248 378.611 81.632L354.995 82.064C354.995 86.288 355.787 89.624 357.371 92.072C359.003 94.52 361.595 95.744 365.147 95.744C366.827 95.744 368.627 95.312 370.547 94.448C372.467 93.584 374.195 92.216 375.731 90.344L378.971 93.368C374.891 99.224 369.299 102.152 362.195 102.152ZM368.675 77.024C368.531 71.6 366.563 68.888 362.771 68.888C360.707 68.888 359.051 69.632 357.803 71.12C356.603 72.56 355.811 74.528 355.427 77.024H368.675ZM397.769 102.152C394.889 102.152 392.345 101.408 390.137 99.92C387.977 98.432 386.273 96.32 385.025 93.584C383.825 90.8 383.225 87.584 383.225 83.936C383.225 80.096 383.969 76.664 385.457 73.64C386.945 70.568 389.033 68.168 391.721 66.44C394.457 64.712 397.577 63.848 401.081 63.848C402.953 63.848 405.089 64.28 407.489 65.144V60.392C407.489 58.088 407.585 55.976 407.777 54.056C406.193 54.2 404.489 54.272 402.665 54.272V48.8C405.689 48.8 408.137 48.584 410.009 48.152C411.881 47.72 413.129 47.216 413.753 46.64H417.641V89.408C417.641 91.712 417.545 93.824 417.353 95.744C418.937 95.6 420.497 95.528 422.033 95.528V101H408.353L407.993 97.688H407.921C405.089 100.664 401.705 102.152 397.769 102.152ZM401.513 95.6C402.713 95.6 403.841 95.288 404.897 94.664C405.953 94.04 406.817 93.2 407.489 92.144V70.544C406.961 70.16 406.217 69.848 405.257 69.608C404.297 69.32 403.337 69.176 402.377 69.176C399.305 69.224 397.097 70.544 395.753 73.136C394.457 75.728 393.809 78.968 393.809 82.856C393.809 86.312 394.433 89.312 395.681 91.856C396.977 94.352 398.921 95.6 401.513 95.6Z" fill="#BFD9F2"/>
<path d="M548.384 131.152C546.32 131.152 544.304 130.888 542.336 130.36C540.368 129.832 538.832 129.16 537.728 128.344H537.656L537.872 130.504H532.4L532.112 118.12H536.792C537.032 120.328 538.184 122.2 540.248 123.736C542.36 125.224 544.928 125.968 547.952 125.968C549.296 125.968 550.448 125.656 551.408 125.032C552.416 124.408 552.92 123.52 552.92 122.368C552.92 121.504 552.608 120.784 551.984 120.208C551.36 119.632 550.616 119.152 549.752 118.768C548.888 118.384 547.16 117.688 544.568 116.68C541.496 115.48 539.192 114.496 537.656 113.728C536.12 112.96 534.728 111.832 533.48 110.344C532.28 108.808 531.68 106.84 531.68 104.44C531.68 102.472 532.16 100.624 533.12 98.896C534.128 97.12 535.64 95.68 537.656 94.576C539.72 93.424 542.24 92.848 545.216 92.848C546.608 92.848 548.12 93.064 549.752 93.496C551.384 93.928 552.752 94.528 553.856 95.296H553.928L553.856 93.208H559.328V105.952H554.648C554.216 103.456 553.112 101.488 551.336 100.048C549.56 98.608 547.376 97.888 544.784 97.888C543.44 97.888 542.312 98.2 541.4 98.824C540.488 99.448 540.032 100.408 540.032 101.704C540.032 103.048 540.56 104.056 541.616 104.728C542.672 105.352 544.448 106.072 546.944 106.888C547.232 106.936 547.856 107.128 548.816 107.464C552.896 108.904 556.016 110.584 558.176 112.504C560.384 114.424 561.488 116.944 561.488 120.064C561.488 122.464 560.864 124.504 559.616 126.184C558.416 127.816 556.808 129.064 554.792 129.928C552.824 130.744 550.688 131.152 548.384 131.152ZM569.001 105.232C568.473 103.744 568.089 102.616 567.849 101.848C567.609 101.032 567.393 100.192 567.201 99.328L564.393 99.472V94H581.673V98.608C579.801 98.656 578.865 99.664 578.865 101.632C578.865 102.112 579.009 102.976 579.297 104.224L581.745 113.008C582.417 115.456 582.921 117.736 583.257 119.848H583.329C583.425 119.464 583.617 118.552 583.905 117.112C584.193 115.672 584.625 113.992 585.201 112.072L590.457 94H598.305L604.065 113.872C604.401 115.072 604.977 117.232 605.793 120.352H605.865C606.057 118.96 606.609 116.872 607.521 114.088L610.329 104.944C610.665 103.792 611.001 102.76 611.337 101.848C611.673 100.888 612.033 100.024 612.417 99.256V99.184L608.313 99.472V94H621.993V98.608C619.449 98.608 617.289 101.2 615.513 106.384L607.305 130.216H599.673L594.705 114.88C593.937 112.48 593.097 109.528 592.185 106.024H592.113C591.585 108.904 590.481 113.008 588.801 118.336L584.841 130.216H577.713L569.001 105.232ZM641.489 131.152C637.985 131.152 634.889 130.384 632.201 128.848C629.513 127.264 627.425 125.032 625.937 122.152C624.449 119.272 623.705 115.912 623.705 112.072C623.705 108.712 624.449 105.568 625.937 102.64C627.473 99.664 629.609 97.288 632.345 95.512C635.081 93.736 638.201 92.848 641.705 92.848C646.361 92.848 650.225 94.216 653.297 96.952C656.417 99.688 657.953 104.248 657.905 110.632L634.289 111.064C634.289 115.288 635.081 118.624 636.665 121.072C638.297 123.52 640.889 124.744 644.441 124.744C646.121 124.744 647.921 124.312 649.841 123.448C651.761 122.584 653.489 121.216 655.025 119.344L658.265 122.368C654.185 128.224 648.593 131.152 641.489 131.152ZM647.969 106.024C647.825 100.6 645.857 97.888 642.065 97.888C640.001 97.888 638.345 98.632 637.097 100.12C635.897 101.56 635.105 103.528 634.721 106.024H647.969ZM680.231 131.152C676.727 131.152 673.631 130.384 670.943 128.848C668.255 127.264 666.167 125.032 664.679 122.152C663.191 119.272 662.447 115.912 662.447 112.072C662.447 108.712 663.191 105.568 664.679 102.64C666.215 99.664 668.351 97.288 671.087 95.512C673.823 93.736 676.943 92.848 680.447 92.848C685.103 92.848 688.967 94.216 692.039 96.952C695.159 99.688 696.695 104.248 696.647 110.632L673.031 111.064C673.031 115.288 673.823 118.624 675.407 121.072C677.039 123.52 679.631 124.744 683.183 124.744C684.863 124.744 686.663 124.312 688.583 123.448C690.503 122.584 692.231 121.216 693.767 119.344L697.007 122.368C692.927 128.224 687.335 131.152 680.231 131.152ZM686.711 106.024C686.567 100.6 684.599 97.888 680.807 97.888C678.743 97.888 677.087 98.632 675.839 100.12C674.639 101.56 673.847 103.528 673.463 106.024H686.711ZM716.166 131.152C708.678 131.152 704.934 126.544 704.934 117.328L705.078 99.976H700.182V94C701.718 94 703.158 93.52 704.502 92.56C705.894 91.6 707.07 90.424 708.03 89.032C708.99 87.64 709.662 86.296 710.046 85H715.374L715.302 94H724.446V99.544L715.302 99.76L715.23 117.472C715.23 122.128 716.67 124.456 719.55 124.456C721.854 124.456 724.038 123.016 726.102 120.136L729.558 123.376C727.302 126.688 725.046 128.824 722.79 129.784C720.534 130.696 718.326 131.152 716.166 131.152Z" fill="#BFD9F2"/>
<path d="M340.66 179.935C342.484 179.935 343.636 179.431 344.116 178.423C344.644 177.415 344.908 175.783 344.908 173.527V161.431C344.908 159.271 345.004 157.231 345.196 155.311L340.156 155.527V150.055C343.18 150.055 345.628 149.839 347.5 149.407C349.372 148.975 350.62 148.471 351.244 147.895H354.772C354.868 148.615 354.94 149.551 354.988 150.703C355.036 151.855 355.06 152.983 355.06 154.087H355.204C358.468 149.671 361.924 147.463 365.572 147.463C367.396 147.463 368.884 147.967 370.036 148.975C371.236 149.983 371.836 151.471 371.836 153.439C371.836 154.687 371.428 155.839 370.612 156.895C369.796 157.951 368.572 158.479 366.94 158.479C365.74 158.479 364.66 158.167 363.7 157.543C362.788 156.919 362.26 155.839 362.116 154.303C360.772 154.303 359.38 155.095 357.94 156.679C356.548 158.215 355.612 159.751 355.132 161.287V173.023C355.132 175.327 355.036 177.439 354.844 179.359C356.38 179.215 357.94 179.143 359.524 179.143V184.615H340.66V179.935ZM385.405 141.487C383.773 141.487 382.429 140.935 381.373 139.831C380.317 138.679 379.789 137.287 379.789 135.655C379.789 134.023 380.341 132.631 381.445 131.479C382.549 130.279 383.845 129.679 385.333 129.679C386.869 129.679 388.141 130.255 389.149 131.407C390.205 132.559 390.733 133.975 390.733 135.655C390.733 137.335 390.229 138.727 389.221 139.831C388.261 140.935 386.989 141.487 385.405 141.487ZM375.253 179.935C377.077 179.935 378.229 179.431 378.709 178.423C379.237 177.415 379.501 175.783 379.501 173.527V161.575C379.501 159.319 379.597 157.231 379.789 155.311L374.749 155.527V150.055C377.773 150.055 380.221 149.839 382.093 149.407C383.965 148.975 385.213 148.471 385.837 147.895H389.725V173.023C389.725 175.327 389.629 177.439 389.437 179.359C390.973 179.215 392.533 179.143 394.117 179.143V184.615H375.253V179.935ZM415.8 185.767C412.536 185.767 409.56 185.047 406.872 183.607C404.184 182.119 402.048 180.007 400.464 177.271C398.88 174.487 398.088 171.199 398.088 167.407C398.088 163.807 398.88 160.495 400.464 157.471C402.048 154.399 404.256 151.975 407.088 150.199C409.968 148.375 413.208 147.463 416.808 147.463C419.736 147.463 422.232 147.919 424.296 148.831C426.408 149.743 427.992 150.967 429.048 152.503C430.104 153.991 430.632 155.599 430.632 157.327C430.632 158.815 430.176 160.087 429.264 161.143C428.4 162.199 427.2 162.727 425.664 162.727C424.08 162.727 422.88 162.247 422.064 161.287C421.296 160.327 420.912 159.247 420.912 158.047C420.912 156.943 421.2 155.887 421.776 154.879C421.344 154.015 420.648 153.415 419.688 153.079C418.728 152.695 417.768 152.503 416.808 152.503C414.36 152.503 412.368 153.631 410.832 155.887C409.344 158.095 408.6 161.239 408.6 165.319C408.6 169.399 409.392 172.759 410.976 175.399C412.56 178.039 415.056 179.359 418.464 179.359C420.384 179.359 422.28 178.855 424.152 177.847C426.024 176.839 427.608 175.495 428.904 173.815L432.216 177.055C429.816 180.367 427.248 182.647 424.512 183.895C421.776 185.143 418.872 185.767 415.8 185.767ZM453.138 185.767C449.634 185.767 446.538 184.999 443.85 183.463C441.162 181.879 439.074 179.647 437.586 176.767C436.098 173.887 435.354 170.527 435.354 166.687C435.354 163.327 436.098 160.183 437.586 157.255C439.122 154.279 441.258 151.903 443.994 150.127C446.73 148.351 449.85 147.463 453.354 147.463C458.01 147.463 461.874 148.831 464.946 151.567C468.066 154.303 469.602 158.863 469.554 165.247L445.938 165.679C445.938 169.903 446.73 173.239 448.314 175.687C449.946 178.135 452.538 179.359 456.09 179.359C457.77 179.359 459.57 178.927 461.49 178.063C463.41 177.199 465.138 175.831 466.674 173.959L469.914 176.983C465.834 182.839 460.242 185.767 453.138 185.767ZM459.618 160.639C459.474 155.215 457.506 152.503 453.714 152.503C451.65 152.503 449.994 153.247 448.746 154.735C447.546 156.175 446.754 158.143 446.37 160.639H459.618Z" fill="#BFD9F2"/>
<path d="M63.7126 67.32C65.5366 67.32 66.7126 66.816 67.2406 65.808C67.7686 64.8 68.0326 63.168 68.0326 60.912V41.904L62.7766 41.976V36H68.0326V33.912C68.0326 28.296 69.2566 24.192 71.7046 21.6C74.1526 18.96 77.6326 17.64 82.1446 17.64C85.2646 17.64 87.5686 18.264 89.0566 19.512C90.5446 20.76 91.2886 22.248 91.2886 23.976C91.2886 25.32 90.8806 26.472 90.0646 27.432C89.2486 28.344 88.1206 28.8 86.6806 28.8C85.3366 28.8 84.2806 28.416 83.5126 27.648C82.7926 26.88 82.4326 25.896 82.4326 24.696C82.4326 24.072 82.4806 23.592 82.5766 23.256C82.1926 22.872 81.6406 22.68 80.9206 22.68C79.0006 22.728 78.0406 24.216 78.0406 27.144V36H86.1046V41.544L78.1126 41.76L78.1846 60.264C78.1846 62.664 78.0886 64.824 77.8966 66.744C79.4806 66.6 81.1606 66.528 82.9366 66.528V72H63.7126V67.32ZM106.789 73.152C103.285 73.152 100.189 72.384 97.5009 70.848C94.8129 69.264 92.7249 67.032 91.2369 64.152C89.7489 61.272 89.0049 57.912 89.0049 54.072C89.0049 50.712 89.7489 47.568 91.2369 44.64C92.7729 41.664 94.9089 39.288 97.6449 37.512C100.381 35.736 103.501 34.848 107.005 34.848C111.661 34.848 115.525 36.216 118.597 38.952C121.717 41.688 123.253 46.248 123.205 52.632L99.5889 53.064C99.5889 57.288 100.381 60.624 101.965 63.072C103.597 65.52 106.189 66.744 109.741 66.744C111.421 66.744 113.221 66.312 115.141 65.448C117.061 64.584 118.789 63.216 120.325 61.344L123.565 64.368C119.485 70.224 113.893 73.152 106.789 73.152ZM113.269 48.024C113.125 42.6 111.157 39.888 107.365 39.888C105.301 39.888 103.645 40.632 102.397 42.12C101.197 43.56 100.405 45.528 100.021 48.024H113.269ZM128.467 67.32C130.291 67.32 131.443 66.816 131.923 65.808C132.451 64.8 132.715 63.168 132.715 60.912V48.816C132.715 46.656 132.811 44.616 133.003 42.696L127.963 42.912V37.44C130.987 37.44 133.435 37.224 135.307 36.792C137.179 36.36 138.427 35.856 139.051 35.28H142.579C142.675 36 142.747 36.936 142.795 38.088C142.843 39.24 142.867 40.368 142.867 41.472H143.011C146.275 37.056 149.731 34.848 153.379 34.848C155.203 34.848 156.691 35.352 157.843 36.36C159.043 37.368 159.643 38.856 159.643 40.824C159.643 42.072 159.235 43.224 158.419 44.28C157.603 45.336 156.379 45.864 154.747 45.864C153.547 45.864 152.467 45.552 151.507 44.928C150.595 44.304 150.067 43.224 149.923 41.688C148.579 41.688 147.187 42.48 145.747 44.064C144.355 45.6 143.419 47.136 142.939 48.672V60.408C142.939 62.712 142.843 64.824 142.651 66.744C144.187 66.6 145.747 66.528 147.331 66.528V72H128.467V67.32ZM163.061 67.32C164.885 67.32 166.037 66.816 166.517 65.808C167.045 64.8 167.309 63.168 167.309 60.912V48.816C167.309 46.656 167.405 44.616 167.597 42.696L162.557 42.912V37.44C165.581 37.44 168.029 37.224 169.901 36.792C171.773 36.36 173.021 35.856 173.645 35.28H177.173C177.173 35.376 177.269 36.576 177.461 38.88H177.605C179.093 37.68 180.773 36.72 182.645 36C184.517 35.232 186.341 34.848 188.117 34.848C190.277 34.848 192.077 35.256 193.517 36.072C195.005 36.84 196.181 38.016 197.045 39.6C198.773 38.16 200.693 37.008 202.805 36.144C204.917 35.28 206.909 34.848 208.781 34.848C212.765 34.848 215.717 36 217.637 38.304C219.605 40.608 220.589 44.448 220.589 49.824V60.408C220.589 62.712 220.493 64.824 220.301 66.744C221.837 66.6 223.397 66.528 224.981 66.528V72H206.765V67.32C208.301 67.32 209.285 66.816 209.717 65.808C210.149 64.752 210.365 63.12 210.365 60.912V49.896C210.317 46.872 209.813 44.736 208.853 43.488C207.893 42.192 206.501 41.544 204.677 41.544C202.565 41.544 200.501 42.336 198.485 43.92C198.917 45.84 199.133 48.12 199.133 50.76V60.408C199.133 62.712 199.037 64.824 198.845 66.744C200.381 66.6 201.941 66.528 203.525 66.528V72H184.949V67.32C186.629 67.32 187.709 66.816 188.189 65.808C188.669 64.8 188.909 63.168 188.909 60.912L188.837 49.68C188.837 46.704 188.405 44.616 187.541 43.416C186.677 42.168 185.381 41.52 183.653 41.472C181.541 41.472 179.501 42.36 177.533 44.136V60.408C177.533 62.712 177.437 64.824 177.245 66.744C178.781 66.6 180.221 66.528 181.565 66.528V72H163.061V67.32ZM246.359 73.152C242.855 73.152 239.759 72.384 237.071 70.848C234.383 69.264 232.295 67.032 230.807 64.152C229.319 61.272 228.575 57.912 228.575 54.072C228.575 50.712 229.319 47.568 230.807 44.64C232.343 41.664 234.479 39.288 237.215 37.512C239.951 35.736 243.071 34.848 246.575 34.848C251.231 34.848 255.095 36.216 258.167 38.952C261.287 41.688 262.823 46.248 262.775 52.632L239.159 53.064C239.159 57.288 239.951 60.624 241.535 63.072C243.167 65.52 245.759 66.744 249.311 66.744C250.991 66.744 252.791 66.312 254.711 65.448C256.631 64.584 258.359 63.216 259.895 61.344L263.135 64.368C259.055 70.224 253.463 73.152 246.359 73.152ZM252.839 48.024C252.695 42.6 250.727 39.888 246.935 39.888C244.871 39.888 243.215 40.632 241.967 42.12C240.767 43.56 239.975 45.528 239.591 48.024H252.839ZM268.037 67.32C269.861 67.32 271.013 66.816 271.493 65.808C272.021 64.8 272.285 63.168 272.285 60.912V48.816C272.285 46.656 272.381 44.616 272.573 42.696L267.533 42.912V37.44C270.557 37.44 273.005 37.224 274.877 36.792C276.749 36.36 277.997 35.856 278.621 35.28H282.149C282.149 35.376 282.245 36.576 282.437 38.88H282.581C283.973 37.776 285.677 36.84 287.693 36.072C289.757 35.256 291.509 34.848 292.949 34.848C297.317 34.848 300.437 36.096 302.309 38.592C304.181 41.088 305.117 45.144 305.117 50.76V60.408C305.117 62.712 305.021 64.824 304.829 66.744C306.413 66.6 307.973 66.528 309.509 66.528V72H290.645V67.32C292.469 67.32 293.645 66.816 294.173 65.808C294.701 64.8 294.965 63.168 294.965 60.912L294.893 50.688C294.893 47.52 294.437 45.192 293.525 43.704C292.661 42.216 291.173 41.472 289.061 41.472C287.909 41.472 286.733 41.736 285.533 42.264C284.333 42.744 283.325 43.368 282.509 44.136V60.408C282.509 62.712 282.413 64.824 282.221 66.744C283.757 66.6 285.317 66.528 286.901 66.528V72H268.037V67.32ZM327.645 73.152C320.157 73.152 316.413 68.544 316.413 59.328L316.557 41.976H311.661V36C313.197 36 314.637 35.52 315.981 34.56C317.373 33.6 318.549 32.424 319.509 31.032C320.469 29.64 321.141 28.296 321.525 27H326.853L326.781 36H335.925V41.544L326.781 41.76L326.709 59.472C326.709 64.128 328.149 66.456 331.029 66.456C333.333 66.456 335.517 65.016 337.581 62.136L341.037 65.376C338.781 68.688 336.525 70.824 334.269 71.784C332.013 72.696 329.805 73.152 327.645 73.152ZM360.195 73.152C356.691 73.152 353.595 72.384 350.907 70.848C348.219 69.264 346.131 67.032 344.643 64.152C343.155 61.272 342.411 57.912 342.411 54.072C342.411 50.712 343.155 47.568 344.643 44.64C346.179 41.664 348.315 39.288 351.051 37.512C353.787 35.736 356.907 34.848 360.411 34.848C365.067 34.848 368.931 36.216 372.003 38.952C375.123 41.688 376.659 46.248 376.611 52.632L352.995 53.064C352.995 57.288 353.787 60.624 355.371 63.072C357.003 65.52 359.595 66.744 363.147 66.744C364.827 66.744 366.627 66.312 368.547 65.448C370.467 64.584 372.195 63.216 373.731 61.344L376.971 64.368C372.891 70.224 367.299 73.152 360.195 73.152ZM366.675 48.024C366.531 42.6 364.563 39.888 360.771 39.888C358.707 39.888 357.051 40.632 355.803 42.12C354.603 43.56 353.811 45.528 353.427 48.024H366.675ZM395.769 73.152C392.889 73.152 390.345 72.408 388.137 70.92C385.977 69.432 384.273 67.32 383.025 64.584C381.825 61.8 381.225 58.584 381.225 54.936C381.225 51.096 381.969 47.664 383.457 44.64C384.945 41.568 387.033 39.168 389.721 37.44C392.457 35.712 395.577 34.848 399.081 34.848C400.953 34.848 403.089 35.28 405.489 36.144V31.392C405.489 29.088 405.585 26.976 405.777 25.056C404.193 25.2 402.489 25.272 400.665 25.272V19.8C403.689 19.8 406.137 19.584 408.009 19.152C409.881 18.72 411.129 18.216 411.753 17.64H415.641V60.408C415.641 62.712 415.545 64.824 415.353 66.744C416.937 66.6 418.497 66.528 420.033 66.528V72H406.353L405.993 68.688H405.921C403.089 71.664 399.705 73.152 395.769 73.152ZM399.513 66.6C400.713 66.6 401.841 66.288 402.897 65.664C403.953 65.04 404.817 64.2 405.489 63.144V41.544C404.961 41.16 404.217 40.848 403.257 40.608C402.297 40.32 401.337 40.176 400.377 40.176C397.305 40.224 395.097 41.544 393.753 44.136C392.457 46.728 391.809 49.968 391.809 53.856C391.809 57.312 392.433 60.312 393.681 62.856C394.977 65.352 396.921 66.6 399.513 66.6Z" fill="#92928B"/>
<path d="M548.384 102.152C546.32 102.152 544.304 101.888 542.336 101.36C540.368 100.832 538.832 100.16 537.728 99.344H537.656L537.872 101.504H532.4L532.112 89.12H536.792C537.032 91.328 538.184 93.2 540.248 94.736C542.36 96.224 544.928 96.968 547.952 96.968C549.296 96.968 550.448 96.656 551.408 96.032C552.416 95.408 552.92 94.52 552.92 93.368C552.92 92.504 552.608 91.784 551.984 91.208C551.36 90.632 550.616 90.152 549.752 89.768C548.888 89.384 547.16 88.688 544.568 87.68C541.496 86.48 539.192 85.496 537.656 84.728C536.12 83.96 534.728 82.832 533.48 81.344C532.28 79.808 531.68 77.84 531.68 75.44C531.68 73.472 532.16 71.624 533.12 69.896C534.128 68.12 535.64 66.68 537.656 65.576C539.72 64.424 542.24 63.848 545.216 63.848C546.608 63.848 548.12 64.064 549.752 64.496C551.384 64.928 552.752 65.528 553.856 66.296H553.928L553.856 64.208H559.328V76.952H554.648C554.216 74.456 553.112 72.488 551.336 71.048C549.56 69.608 547.376 68.888 544.784 68.888C543.44 68.888 542.312 69.2 541.4 69.824C540.488 70.448 540.032 71.408 540.032 72.704C540.032 74.048 540.56 75.056 541.616 75.728C542.672 76.352 544.448 77.072 546.944 77.888C547.232 77.936 547.856 78.128 548.816 78.464C552.896 79.904 556.016 81.584 558.176 83.504C560.384 85.424 561.488 87.944 561.488 91.064C561.488 93.464 560.864 95.504 559.616 97.184C558.416 98.816 556.808 100.064 554.792 100.928C552.824 101.744 550.688 102.152 548.384 102.152ZM569.001 76.232C568.473 74.744 568.089 73.616 567.849 72.848C567.609 72.032 567.393 71.192 567.201 70.328L564.393 70.472V65H581.673V69.608C579.801 69.656 578.865 70.664 578.865 72.632C578.865 73.112 579.009 73.976 579.297 75.224L581.745 84.008C582.417 86.456 582.921 88.736 583.257 90.848H583.329C583.425 90.464 583.617 89.552 583.905 88.112C584.193 86.672 584.625 84.992 585.201 83.072L590.457 65H598.305L604.065 84.872C604.401 86.072 604.977 88.232 605.793 91.352H605.865C606.057 89.96 606.609 87.872 607.521 85.088L610.329 75.944C610.665 74.792 611.001 73.76 611.337 72.848C611.673 71.888 612.033 71.024 612.417 70.256V70.184L608.313 70.472V65H621.993V69.608C619.449 69.608 617.289 72.2 615.513 77.384L607.305 101.216H599.673L594.705 85.88C593.937 83.48 593.097 80.528 592.185 77.024H592.113C591.585 79.904 590.481 84.008 588.801 89.336L584.841 101.216H577.713L569.001 76.232ZM641.489 102.152C637.985 102.152 634.889 101.384 632.201 99.848C629.513 98.264 627.425 96.032 625.937 93.152C624.449 90.272 623.705 86.912 623.705 83.072C623.705 79.712 624.449 76.568 625.937 73.64C627.473 70.664 629.609 68.288 632.345 66.512C635.081 64.736 638.201 63.848 641.705 63.848C646.361 63.848 650.225 65.216 653.297 67.952C656.417 70.688 657.953 75.248 657.905 81.632L634.289 82.064C634.289 86.288 635.081 89.624 636.665 92.072C638.297 94.52 640.889 95.744 644.441 95.744C646.121 95.744 647.921 95.312 649.841 94.448C651.761 93.584 653.489 92.216 655.025 90.344L658.265 93.368C654.185 99.224 648.593 102.152 641.489 102.152ZM647.969 77.024C647.825 71.6 645.857 68.888 642.065 68.888C640.001 68.888 638.345 69.632 637.097 71.12C635.897 72.56 635.105 74.528 634.721 77.024H647.969ZM680.231 102.152C676.727 102.152 673.631 101.384 670.943 99.848C668.255 98.264 666.167 96.032 664.679 93.152C663.191 90.272 662.447 86.912 662.447 83.072C662.447 79.712 663.191 76.568 664.679 73.64C666.215 70.664 668.351 68.288 671.087 66.512C673.823 64.736 676.943 63.848 680.447 63.848C685.103 63.848 688.967 65.216 692.039 67.952C695.159 70.688 696.695 75.248 696.647 81.632L673.031 82.064C673.031 86.288 673.823 89.624 675.407 92.072C677.039 94.52 679.631 95.744 683.183 95.744C684.863 95.744 686.663 95.312 688.583 94.448C690.503 93.584 692.231 92.216 693.767 90.344L697.007 93.368C692.927 99.224 687.335 102.152 680.231 102.152ZM686.711 77.024C686.567 71.6 684.599 68.888 680.807 68.888C678.743 68.888 677.087 69.632 675.839 71.12C674.639 72.56 673.847 74.528 673.463 77.024H686.711ZM716.166 102.152C708.678 102.152 704.934 97.544 704.934 88.328L705.078 70.976H700.182V65C701.718 65 703.158 64.52 704.502 63.56C705.894 62.6 707.07 61.424 708.03 60.032C708.99 58.64 709.662 57.296 710.046 56H715.374L715.302 65H724.446V70.544L715.302 70.76L715.23 88.472C715.23 93.128 716.67 95.456 719.55 95.456C721.854 95.456 724.038 94.016 726.102 91.136L729.558 94.376C727.302 97.688 725.046 99.824 722.79 100.784C720.534 101.696 718.326 102.152 716.166 102.152Z" fill="#92928B"/>
<path d="M339.088 160.505C340.912 160.505 342.064 160.001 342.544 158.993C343.072 157.985 343.336 156.353 343.336 154.097V142.001C343.336 139.841 343.432 137.801 343.624 135.881L338.584 136.097V130.625C341.608 130.625 344.056 130.409 345.928 129.977C347.8 129.545 349.048 129.041 349.672 128.465H353.2C353.296 129.185 353.368 130.121 353.416 131.273C353.464 132.425 353.488 133.553 353.488 134.657H353.632C356.896 130.241 360.352 128.033 364 128.033C365.824 128.033 367.312 128.537 368.464 129.545C369.664 130.553 370.264 132.041 370.264 134.009C370.264 135.257 369.856 136.409 369.04 137.465C368.224 138.521 367 139.049 365.368 139.049C364.168 139.049 363.088 138.737 362.128 138.113C361.216 137.489 360.688 136.409 360.544 134.873C359.2 134.873 357.808 135.665 356.368 137.249C354.976 138.785 354.04 140.321 353.56 141.857V153.593C353.56 155.897 353.464 158.009 353.272 159.929C354.808 159.785 356.368 159.713 357.952 159.713V165.185H339.088V160.505ZM383.834 122.057C382.202 122.057 380.858 121.505 379.802 120.401C378.746 119.249 378.218 117.857 378.218 116.225C378.218 114.593 378.77 113.201 379.874 112.049C380.978 110.849 382.274 110.249 383.762 110.249C385.298 110.249 386.57 110.825 387.578 111.977C388.634 113.129 389.162 114.545 389.162 116.225C389.162 117.905 388.658 119.297 387.65 120.401C386.69 121.505 385.418 122.057 383.834 122.057ZM373.682 160.505C375.506 160.505 376.658 160.001 377.138 158.993C377.666 157.985 377.93 156.353 377.93 154.097V142.145C377.93 139.889 378.026 137.801 378.218 135.881L373.178 136.097V130.625C376.202 130.625 378.65 130.409 380.522 129.977C382.394 129.545 383.642 129.041 384.266 128.465H388.154V153.593C388.154 155.897 388.058 158.009 387.866 159.929C389.402 159.785 390.962 159.713 392.546 159.713V165.185H373.682V160.505ZM414.229 166.337C410.965 166.337 407.989 165.617 405.301 164.177C402.613 162.689 400.477 160.577 398.893 157.841C397.309 155.057 396.517 151.769 396.517 147.977C396.517 144.377 397.309 141.065 398.893 138.041C400.477 134.969 402.685 132.545 405.517 130.769C408.397 128.945 411.637 128.033 415.237 128.033C418.165 128.033 420.661 128.489 422.725 129.401C424.837 130.313 426.421 131.537 427.477 133.073C428.533 134.561 429.061 136.169 429.061 137.897C429.061 139.385 428.605 140.657 427.693 141.713C426.829 142.769 425.629 143.297 424.093 143.297C422.509 143.297 421.309 142.817 420.493 141.857C419.725 140.897 419.341 139.817 419.341 138.617C419.341 137.513 419.629 136.457 420.205 135.449C419.773 134.585 419.077 133.985 418.117 133.649C417.157 133.265 416.197 133.073 415.237 133.073C412.789 133.073 410.797 134.201 409.261 136.457C407.773 138.665 407.029 141.809 407.029 145.889C407.029 149.969 407.821 153.329 409.405 155.969C410.989 158.609 413.485 159.929 416.893 159.929C418.813 159.929 420.709 159.425 422.581 158.417C424.453 157.409 426.037 156.065 427.333 154.385L430.645 157.625C428.245 160.937 425.677 163.217 422.941 164.465C420.205 165.713 417.301 166.337 414.229 166.337ZM451.566 166.337C448.062 166.337 444.966 165.569 442.278 164.033C439.59 162.449 437.502 160.217 436.014 157.337C434.526 154.457 433.782 151.097 433.782 147.257C433.782 143.897 434.526 140.753 436.014 137.825C437.55 134.849 439.686 132.473 442.422 130.697C445.158 128.921 448.278 128.033 451.782 128.033C456.438 128.033 460.302 129.401 463.374 132.137C466.494 134.873 468.03 139.433 467.982 145.817L444.366 146.249C444.366 150.473 445.158 153.809 446.742 156.257C448.374 158.705 450.966 159.929 454.518 159.929C456.198 159.929 457.998 159.497 459.918 158.633C461.838 157.769 463.566 156.401 465.102 154.529L468.342 157.553C464.262 163.409 458.67 166.337 451.566 166.337ZM458.046 141.209C457.902 135.785 455.934 133.073 452.142 133.073C450.078 133.073 448.422 133.817 447.174 135.305C445.974 136.745 445.182 138.713 444.798 141.209H458.046Z" fill="#92928B"/>
</g>
<defs>
<clipPath id="clip0">
<rect width="850" height="200" fill="white"/>
</clipPath>
</defs>
</svg>
