<svg width="646" height="56" viewBox="0 0 646 56" fill="none" xmlns="http://www.w3.org/2000/svg">
<path d="M12.3092 1.23C11.9852 3.606 11.6792 6.558 11.3912 10.086L11.1752 12.246L10.9592 14.298C10.7072 17.034 10.4552 19.194 10.2032 20.778H10.2572C11.3732 18.618 12.6512 17.016 14.0912 15.972C15.5672 14.928 16.9532 14.406 18.2492 14.406C20.8052 14.406 22.7312 15.396 24.0272 17.376C25.3232 19.32 25.9712 21.768 25.9712 24.72C25.9712 30.012 24.7832 34.314 22.4072 37.626C20.0312 40.938 16.3412 42.594 11.3372 42.594C10.2212 42.594 8.81718 42.468 7.12518 42.216C5.43318 41.964 3.95718 41.604 2.69718 41.136C2.91318 34.98 3.18318 29.292 3.50718 24.072C3.83118 18.816 4.02918 15.558 4.10118 14.298L4.26318 11.76C4.33518 9.96 4.47918 8.304 4.69518 6.792L0.96918 6.954L1.18518 2.85C3.41718 2.85 5.21718 2.688 6.58518 2.364C7.95318 2.04 8.88918 1.662 9.39318 1.23H12.3092ZM16.0892 19.374C14.9372 19.374 13.8572 20.256 12.8492 22.02C11.8772 23.784 11.0852 26.142 10.4732 29.094C9.86118 32.01 9.51918 35.16 9.44718 38.544C9.73518 38.688 10.1492 38.814 10.6892 38.922C11.2652 38.994 11.7332 39.03 12.0932 39.03C14.6852 39.03 16.4132 37.554 17.2772 34.602C18.1412 31.614 18.5732 28.23 18.5732 24.45C18.5732 22.65 18.3392 21.354 17.8712 20.562C17.4032 19.77 16.8092 19.374 16.0892 19.374ZM48.4187 14.406C49.7867 14.406 50.8847 14.784 51.7127 15.54C52.5407 16.296 52.9547 17.286 52.9547 18.51C52.9547 19.482 52.6127 20.346 51.9287 21.102C51.2447 21.822 50.3807 22.182 49.3367 22.182C48.5087 22.182 47.7887 21.93 47.1767 21.426C46.6007 20.886 46.3307 20.202 46.3667 19.374C45.3947 19.266 44.3867 20.238 43.3427 22.29C42.2987 24.306 41.4347 26.826 40.7507 29.85C40.0667 32.838 39.7247 35.592 39.7247 38.112C39.7247 38.976 39.7787 40.272 39.8867 42H32.8127C32.7047 40.992 32.6507 40.128 32.6507 39.408C32.6507 38.256 32.7767 36.582 33.0287 34.386C33.2807 32.154 33.5507 29.976 33.8387 27.852C33.9107 27.204 34.0547 26.034 34.2707 24.342C34.4867 22.614 34.5947 21.444 34.5947 20.832C34.5947 19.896 34.3427 19.428 33.8387 19.428C32.9027 19.428 32.0387 20.85 31.2467 23.694L28.2767 22.83C28.7447 20.67 29.5367 18.726 30.6527 16.998C31.8047 15.27 33.4247 14.406 35.5127 14.406C36.8447 14.406 37.9247 14.784 38.7527 15.54C39.6167 16.296 40.0487 17.556 40.0487 19.32C40.0487 20.58 39.8687 22.182 39.5087 24.126H39.5627C40.8947 20.418 42.2987 17.88 43.7747 16.512C45.2867 15.108 46.8347 14.406 48.4187 14.406ZM67.3795 14.406C69.4315 14.406 71.2675 14.892 72.8875 15.864C74.5435 16.8 75.8395 18.186 76.7755 20.022C77.7475 21.822 78.2335 23.964 78.2335 26.448C78.2335 29.328 77.6755 32.01 76.5595 34.494C75.4795 36.942 73.9135 38.904 71.8615 40.38C69.8095 41.856 67.4155 42.594 64.6795 42.594C61.1875 42.594 58.5055 41.442 56.6335 39.138C54.7615 36.834 53.8255 33.9 53.8255 30.336C53.8255 27.456 54.3835 24.81 55.4995 22.398C56.6155 19.95 58.1995 18.006 60.2515 16.566C62.3035 15.126 64.6795 14.406 67.3795 14.406ZM66.5155 17.97C65.4715 17.97 64.5355 18.456 63.7075 19.428C62.9155 20.4 62.2855 21.714 61.8175 23.37C61.3855 25.026 61.1695 26.844 61.1695 28.824C61.1695 31.488 61.5115 33.864 62.1955 35.952C62.8795 38.004 63.9955 39.03 65.5435 39.03C66.7675 39.03 67.7575 38.4 68.5135 37.14C69.3055 35.88 69.8815 34.35 70.2415 32.55C70.6015 30.714 70.7815 28.95 70.7815 27.258C70.7815 24.774 70.4575 22.614 69.8095 20.778C69.1615 18.906 68.0635 17.97 66.5155 17.97ZM97.7625 14.406C99.7425 14.406 102.334 14.784 105.538 15.54L105.106 18.402C105.034 19.05 104.674 21.678 104.026 26.286C103.378 30.894 103.054 34.134 103.054 36.006C103.054 37.05 103.306 37.572 103.81 37.572C104.854 37.572 105.772 36.15 106.564 33.306L109.48 34.17C109.084 36.222 108.256 38.148 106.996 39.948C105.772 41.712 104.098 42.594 101.974 42.594C99.0945 42.594 97.6545 40.956 97.6545 37.68C97.6545 36.42 97.7265 35.376 97.8705 34.548H97.8165C96.5925 37.5 95.2065 39.588 93.6585 40.812C92.1105 42 90.4365 42.594 88.6365 42.594C86.5485 42.594 84.8205 41.766 83.4525 40.11C82.1205 38.418 81.4545 35.97 81.4545 32.766C81.4545 29.418 82.1025 26.358 83.3985 23.586C84.6945 20.778 86.5665 18.546 89.0145 16.89C91.4985 15.234 94.4145 14.406 97.7625 14.406ZM95.7645 17.97C93.6765 17.97 92.0025 19.284 90.7425 21.912C89.4825 24.504 88.8525 28.212 88.8525 33.036C88.8525 34.512 89.0325 35.682 89.3925 36.546C89.7525 37.374 90.2565 37.788 90.9045 37.788C92.1285 37.788 93.2445 36.78 94.2525 34.764C95.2965 32.712 96.1425 30.174 96.7905 27.15C97.4385 24.126 97.8345 21.174 97.9785 18.294C97.2225 18.078 96.4845 17.97 95.7645 17.97ZM135.283 18.51L134.581 24.828C133.861 30.66 133.501 34.386 133.501 36.006C133.501 37.05 133.771 37.572 134.311 37.572C135.247 37.572 136.111 36.15 136.903 33.306L139.873 34.17C139.441 36.294 138.631 38.238 137.443 40.002C136.255 41.73 134.617 42.594 132.529 42.594C129.649 42.594 128.209 40.956 128.209 37.68C128.209 36.636 128.281 35.556 128.425 34.44H128.371C127.183 37.356 125.779 39.444 124.159 40.704C122.539 41.964 120.901 42.594 119.245 42.594C116.617 42.594 114.619 41.64 113.251 39.732C111.919 37.824 111.253 35.34 111.253 32.28C111.253 26.88 112.495 22.56 114.979 19.32C117.499 16.044 121.243 14.406 126.211 14.406C127.219 14.406 128.083 14.442 128.803 14.514L129.073 11.814C129.253 9.69 129.451 8.016 129.667 6.792L125.887 6.954L126.103 2.85C128.371 2.85 130.189 2.688 131.557 2.364C132.925 2.04 133.861 1.662 134.365 1.23H137.281L135.283 18.51ZM125.509 17.97C122.845 17.97 121.027 19.5 120.055 22.56C119.083 25.62 118.597 28.842 118.597 32.226C118.597 34.026 118.831 35.394 119.299 36.33C119.767 37.23 120.415 37.68 121.243 37.68C123.079 37.68 124.609 35.88 125.833 32.28C127.057 28.68 127.903 24.054 128.371 18.402C128.155 18.294 127.741 18.204 127.129 18.132C126.517 18.024 125.977 17.97 125.509 17.97ZM166.557 1.23C166.233 3.606 165.927 6.558 165.639 10.086L165.423 12.246L165.207 14.298C164.955 17.034 164.703 19.194 164.451 20.778H164.505C165.621 18.618 166.899 17.016 168.339 15.972C169.815 14.928 171.201 14.406 172.497 14.406C175.053 14.406 176.979 15.396 178.275 17.376C179.571 19.32 180.219 21.768 180.219 24.72C180.219 30.012 179.031 34.314 176.655 37.626C174.279 40.938 170.589 42.594 165.585 42.594C164.469 42.594 163.065 42.468 161.373 42.216C159.681 41.964 158.205 41.604 156.945 41.136C157.161 34.98 157.431 29.292 157.755 24.072C158.079 18.816 158.277 15.558 158.349 14.298L158.511 11.76C158.583 9.96 158.727 8.304 158.943 6.792L155.217 6.954L155.433 2.85C157.665 2.85 159.465 2.688 160.833 2.364C162.201 2.04 163.137 1.662 163.641 1.23H166.557ZM170.337 19.374C169.185 19.374 168.105 20.256 167.097 22.02C166.125 23.784 165.333 26.142 164.721 29.094C164.109 32.01 163.767 35.16 163.695 38.544C163.983 38.688 164.397 38.814 164.937 38.922C165.513 38.994 165.981 39.03 166.341 39.03C168.933 39.03 170.661 37.554 171.525 34.602C172.389 31.614 172.821 28.23 172.821 24.45C172.821 22.65 172.587 21.354 172.119 20.562C171.651 19.77 171.057 19.374 170.337 19.374ZM197.213 14.406C199.697 14.406 201.659 14.964 203.099 16.08C204.575 17.196 205.313 18.906 205.313 21.21C205.313 23.838 203.945 25.818 201.209 27.15C198.473 28.482 195.053 29.436 190.949 30.012C190.949 32.82 191.417 34.8 192.353 35.952C193.289 37.068 194.441 37.626 195.809 37.626C197.033 37.626 198.293 37.266 199.589 36.546C200.885 35.79 201.965 34.422 202.829 32.442L205.853 33.9C204.413 37.212 202.721 39.498 200.777 40.758C198.833 41.982 196.637 42.594 194.189 42.594C190.841 42.594 188.231 41.604 186.359 39.624C184.487 37.644 183.551 34.71 183.551 30.822C183.551 28.302 184.055 25.782 185.063 23.262C186.071 20.742 187.601 18.636 189.653 16.944C191.705 15.252 194.225 14.406 197.213 14.406ZM196.619 17.97C194.963 17.97 193.685 18.798 192.785 20.454C191.921 22.11 191.363 24.126 191.111 26.502C193.847 25.998 195.845 25.242 197.105 24.234C198.365 23.19 198.995 21.966 198.995 20.562C198.995 19.698 198.743 19.05 198.239 18.618C197.771 18.186 197.231 17.97 196.619 17.97ZM225.116 14.406C227.096 14.406 229.688 14.784 232.892 15.54L232.46 18.402C232.388 19.05 232.028 21.678 231.38 26.286C230.732 30.894 230.408 34.134 230.408 36.006C230.408 37.05 230.66 37.572 231.164 37.572C232.208 37.572 233.126 36.15 233.918 33.306L236.834 34.17C236.438 36.222 235.61 38.148 234.35 39.948C233.126 41.712 231.452 42.594 229.328 42.594C226.448 42.594 225.008 40.956 225.008 37.68C225.008 36.42 225.08 35.376 225.224 34.548H225.17C223.946 37.5 222.56 39.588 221.012 40.812C219.464 42 217.79 42.594 215.99 42.594C213.902 42.594 212.174 41.766 210.806 40.11C209.474 38.418 208.808 35.97 208.808 32.766C208.808 29.418 209.456 26.358 210.752 23.586C212.048 20.778 213.92 18.546 216.368 16.89C218.852 15.234 221.768 14.406 225.116 14.406ZM223.118 17.97C221.03 17.97 219.356 19.284 218.096 21.912C216.836 24.504 216.206 28.212 216.206 33.036C216.206 34.512 216.386 35.682 216.746 36.546C217.106 37.374 217.61 37.788 218.258 37.788C219.482 37.788 220.598 36.78 221.606 34.764C222.65 32.712 223.496 30.174 224.144 27.15C224.792 24.126 225.188 21.174 225.332 18.294C224.576 18.078 223.838 17.97 223.118 17.97ZM258.263 14.406C260.495 14.406 262.133 15.144 263.177 16.62C264.221 18.06 264.743 20.094 264.743 22.722C264.743 24.018 264.527 26.25 264.095 29.418C263.627 32.37 263.393 34.62 263.393 36.168C263.393 37.104 263.663 37.572 264.203 37.572C265.139 37.572 266.003 36.15 266.795 33.306L269.711 34.17C269.495 35.358 269.027 36.6 268.307 37.896C267.623 39.192 266.705 40.308 265.553 41.244C264.401 42.144 263.069 42.594 261.557 42.594C259.649 42.594 258.317 42.09 257.561 41.082C256.841 40.074 256.481 38.544 256.481 36.492C256.481 34.872 256.733 32.118 257.237 28.23C257.309 27.618 257.417 26.574 257.561 25.098C257.741 23.586 257.831 22.434 257.831 21.642C257.831 20.814 257.705 20.238 257.453 19.914C257.237 19.554 256.859 19.374 256.319 19.374C255.275 19.374 254.159 20.4 252.971 22.452C251.819 24.504 250.847 27.006 250.055 29.958C249.263 32.91 248.867 35.628 248.867 38.112C248.867 38.976 248.921 40.272 249.029 42H242.063C241.955 40.992 241.901 40.128 241.901 39.408C241.901 38.256 242.027 36.582 242.279 34.386C242.531 32.154 242.801 29.976 243.089 27.852C243.161 27.204 243.305 26.034 243.521 24.342C243.737 22.614 243.845 21.444 243.845 20.832C243.845 19.896 243.593 19.428 243.089 19.428C242.153 19.428 241.289 20.85 240.497 23.694L237.527 22.83C237.995 20.67 238.787 18.726 239.903 16.998C241.055 15.27 242.675 14.406 244.763 14.406C246.095 14.406 247.175 14.784 248.003 15.54C248.867 16.296 249.299 17.556 249.299 19.32C249.299 20.004 249.245 20.652 249.137 21.264C249.065 21.84 249.011 22.272 248.975 22.56H249.029C251.153 17.124 254.231 14.406 258.263 14.406ZM301.897 14.406C303.877 14.406 306.469 14.784 309.673 15.54L309.241 18.402C309.169 19.05 308.809 21.678 308.161 26.286C307.513 30.894 307.189 34.134 307.189 36.006C307.189 37.05 307.441 37.572 307.945 37.572C308.989 37.572 309.907 36.15 310.699 33.306L313.615 34.17C313.219 36.222 312.391 38.148 311.131 39.948C309.907 41.712 308.233 42.594 306.109 42.594C303.229 42.594 301.789 40.956 301.789 37.68C301.789 36.42 301.861 35.376 302.005 34.548H301.951C300.727 37.5 299.341 39.588 297.793 40.812C296.245 42 294.571 42.594 292.771 42.594C290.683 42.594 288.955 41.766 287.587 40.11C286.255 38.418 285.589 35.97 285.589 32.766C285.589 29.418 286.237 26.358 287.533 23.586C288.829 20.778 290.701 18.546 293.149 16.89C295.633 15.234 298.549 14.406 301.897 14.406ZM299.899 17.97C297.811 17.97 296.137 19.284 294.877 21.912C293.617 24.504 292.987 28.212 292.987 33.036C292.987 34.512 293.167 35.682 293.527 36.546C293.887 37.374 294.391 37.788 295.039 37.788C296.263 37.788 297.379 36.78 298.387 34.764C299.431 32.712 300.277 30.174 300.925 27.15C301.573 24.126 301.969 21.174 302.113 18.294C301.357 18.078 300.619 17.97 299.899 17.97ZM335.044 14.406C337.276 14.406 338.914 15.144 339.958 16.62C341.002 18.06 341.524 20.094 341.524 22.722C341.524 24.018 341.308 26.25 340.876 29.418C340.408 32.37 340.174 34.62 340.174 36.168C340.174 37.104 340.444 37.572 340.984 37.572C341.92 37.572 342.784 36.15 343.576 33.306L346.492 34.17C346.276 35.358 345.808 36.6 345.088 37.896C344.404 39.192 343.486 40.308 342.334 41.244C341.182 42.144 339.85 42.594 338.338 42.594C336.43 42.594 335.098 42.09 334.342 41.082C333.622 40.074 333.262 38.544 333.262 36.492C333.262 34.872 333.514 32.118 334.018 28.23C334.09 27.618 334.198 26.574 334.342 25.098C334.522 23.586 334.612 22.434 334.612 21.642C334.612 20.814 334.486 20.238 334.234 19.914C334.018 19.554 333.64 19.374 333.1 19.374C332.056 19.374 330.94 20.4 329.752 22.452C328.6 24.504 327.628 27.006 326.836 29.958C326.044 32.91 325.648 35.628 325.648 38.112C325.648 38.976 325.702 40.272 325.81 42H318.844C318.736 40.992 318.682 40.128 318.682 39.408C318.682 38.256 318.808 36.582 319.06 34.386C319.312 32.154 319.582 29.976 319.87 27.852C319.942 27.204 320.086 26.034 320.302 24.342C320.518 22.614 320.626 21.444 320.626 20.832C320.626 19.896 320.374 19.428 319.87 19.428C318.934 19.428 318.07 20.85 317.278 23.694L314.308 22.83C314.776 20.67 315.568 18.726 316.684 16.998C317.836 15.27 319.456 14.406 321.544 14.406C322.876 14.406 323.956 14.784 324.784 15.54C325.648 16.296 326.08 17.556 326.08 19.32C326.08 20.004 326.026 20.652 325.918 21.264C325.846 21.84 325.792 22.272 325.756 22.56H325.81C327.934 17.124 331.012 14.406 335.044 14.406ZM372.377 18.51L371.675 24.828C370.955 30.66 370.595 34.386 370.595 36.006C370.595 37.05 370.865 37.572 371.405 37.572C372.341 37.572 373.205 36.15 373.997 33.306L376.967 34.17C376.535 36.294 375.725 38.238 374.537 40.002C373.349 41.73 371.711 42.594 369.623 42.594C366.743 42.594 365.303 40.956 365.303 37.68C365.303 36.636 365.375 35.556 365.519 34.44H365.465C364.277 37.356 362.873 39.444 361.253 40.704C359.633 41.964 357.995 42.594 356.339 42.594C353.711 42.594 351.713 41.64 350.345 39.732C349.013 37.824 348.347 35.34 348.347 32.28C348.347 26.88 349.589 22.56 352.073 19.32C354.593 16.044 358.337 14.406 363.305 14.406C364.313 14.406 365.177 14.442 365.897 14.514L366.167 11.814C366.347 9.69 366.545 8.016 366.761 6.792L362.981 6.954L363.197 2.85C365.465 2.85 367.283 2.688 368.651 2.364C370.019 2.04 370.955 1.662 371.459 1.23H374.375L372.377 18.51ZM362.603 17.97C359.939 17.97 358.121 19.5 357.149 22.56C356.177 25.62 355.691 28.842 355.691 32.226C355.691 34.026 355.925 35.394 356.393 36.33C356.861 37.23 357.509 37.68 358.337 37.68C360.173 37.68 361.703 35.88 362.927 32.28C364.151 28.68 364.997 24.054 365.465 18.402C365.249 18.294 364.835 18.204 364.223 18.132C363.611 18.024 363.071 17.97 362.603 17.97ZM406.243 14.406C408.763 14.406 410.851 15 412.507 16.188C414.163 17.376 414.991 18.942 414.991 20.886C414.991 22.002 414.667 22.902 414.019 23.586C413.371 24.27 412.507 24.612 411.427 24.612C410.347 24.612 409.537 24.27 408.997 23.586C408.457 22.902 408.187 22.182 408.187 21.426C408.187 20.598 408.367 19.842 408.727 19.158C408.547 18.834 408.223 18.564 407.755 18.348C407.287 18.096 406.747 17.97 406.135 17.97C404.011 17.97 402.517 19.266 401.653 21.858C400.789 24.414 400.357 27.168 400.357 30.12C400.357 32.748 400.843 34.656 401.815 35.844C402.823 37.032 403.993 37.626 405.325 37.626C406.549 37.626 407.773 37.212 408.997 36.384C410.221 35.556 411.301 34.098 412.237 32.01L415.315 33.522C413.875 36.834 412.165 39.174 410.185 40.542C408.241 41.874 406.027 42.558 403.543 42.594C400.267 42.558 397.675 41.568 395.767 39.624C393.895 37.644 392.959 34.71 392.959 30.822C392.959 28.338 393.463 25.836 394.471 23.316C395.479 20.76 396.991 18.636 399.007 16.944C401.023 15.252 403.435 14.406 406.243 14.406ZM429.02 4.2C428.66 7.368 428.336 10.05 428.048 12.246C427.94 13.29 427.742 14.856 427.454 16.944C427.202 19.032 426.896 20.904 426.536 22.56H426.59C427.742 19.572 429.11 17.466 430.694 16.242C432.314 15.018 434.024 14.406 435.824 14.406C438.056 14.406 439.712 15.144 440.792 16.62C441.872 18.06 442.412 20.094 442.412 22.722C442.412 24.018 442.196 26.25 441.764 29.418C441.296 32.37 441.062 34.62 441.062 36.168C441.062 37.104 441.332 37.572 441.872 37.572C442.808 37.572 443.672 36.15 444.464 33.306L447.38 34.17C447.164 35.358 446.696 36.6 445.976 37.896C445.292 39.192 444.374 40.308 443.222 41.244C442.07 42.144 440.738 42.594 439.226 42.594C437.318 42.594 435.986 42.09 435.23 41.082C434.474 40.074 434.096 38.544 434.096 36.492C434.096 34.872 434.348 32.118 434.852 28.23C434.924 27.618 435.032 26.574 435.176 25.098C435.356 23.586 435.446 22.434 435.446 21.642C435.446 20.814 435.32 20.238 435.068 19.914C434.852 19.554 434.474 19.374 433.934 19.374C432.89 19.374 431.774 20.4 430.586 22.452C429.398 24.504 428.39 27.024 427.562 30.012C426.77 32.964 426.374 35.664 426.374 38.112C426.374 38.976 426.428 40.272 426.536 42H419.624C419.516 40.992 419.462 40.128 419.462 39.408C419.462 35.268 419.624 30.534 419.948 25.206C420.308 19.878 420.704 15.414 421.136 11.814C421.316 9.762 421.55 8.088 421.838 6.792L418.058 6.954L418.274 2.85C420.542 2.85 422.36 2.688 423.728 2.364C425.096 2.04 426.014 1.662 426.482 1.23H429.398L429.02 4.2ZM458.03 0.797999C459.182 0.797999 460.118 1.212 460.838 2.04C461.558 2.832 461.918 3.84 461.918 5.064C461.918 6.36 461.504 7.458 460.676 8.358C459.884 9.222 458.894 9.654 457.706 9.654C456.518 9.654 455.546 9.258 454.79 8.466C454.07 7.674 453.71 6.684 453.71 5.496C453.71 4.236 454.142 3.138 455.006 2.202C455.906 1.266 456.914 0.797999 458.03 0.797999ZM456.14 14.406C457.94 14.406 459.218 14.946 459.974 16.026C460.766 17.106 461.162 18.654 461.162 20.67C461.162 21.75 461.018 23.388 460.73 25.584C460.442 27.744 460.262 29.13 460.19 29.742C460.118 30.21 459.974 31.254 459.758 32.874C459.542 34.458 459.434 35.556 459.434 36.168C459.434 37.104 459.704 37.572 460.244 37.572C461.216 37.572 462.098 36.15 462.89 33.306L465.806 34.17C465.59 35.358 465.122 36.6 464.402 37.896C463.682 39.192 462.746 40.308 461.594 41.244C460.442 42.144 459.11 42.594 457.598 42.594C455.69 42.594 454.34 42.09 453.548 41.082C452.792 40.074 452.414 38.544 452.414 36.492C452.414 34.872 452.738 32.01 453.386 27.906C453.926 24.378 454.196 22.02 454.196 20.832C454.196 19.896 453.908 19.428 453.332 19.428C452.396 19.428 451.532 20.85 450.74 23.694L447.824 22.83C448.04 21.678 448.508 20.454 449.228 19.158C449.984 17.826 450.938 16.71 452.09 15.81C453.278 14.874 454.628 14.406 456.14 14.406ZM479.4 1.23C479.328 1.986 479.238 2.796 479.13 3.66C479.022 4.524 478.914 5.424 478.806 6.36C477.834 14.928 477.078 21.66 476.538 26.556C476.034 31.452 475.782 34.602 475.782 36.006C475.782 37.05 476.034 37.572 476.538 37.572C477.51 37.572 478.392 36.15 479.184 33.306L482.1 34.17C481.524 36.474 480.57 38.454 479.238 40.11C477.942 41.766 476.124 42.594 473.784 42.594C472.38 42.594 471.21 42.18 470.274 41.352C469.374 40.488 468.924 39.174 468.924 37.41C468.924 34.53 469.104 31.164 469.464 27.312C469.86 23.424 470.436 18.258 471.192 11.814C471.408 9.906 471.642 8.232 471.894 6.792L468.114 6.954L468.33 2.85C470.562 2.85 472.344 2.688 473.676 2.364C475.044 2.04 475.98 1.662 476.484 1.23H479.4ZM492.94 0.797999C494.092 0.797999 495.028 1.212 495.748 2.04C496.468 2.832 496.828 3.84 496.828 5.064C496.828 6.36 496.414 7.458 495.586 8.358C494.794 9.222 493.804 9.654 492.616 9.654C491.428 9.654 490.456 9.258 489.7 8.466C488.98 7.674 488.62 6.684 488.62 5.496C488.62 4.236 489.052 3.138 489.916 2.202C490.816 1.266 491.824 0.797999 492.94 0.797999ZM491.05 14.406C492.85 14.406 494.128 14.946 494.884 16.026C495.676 17.106 496.072 18.654 496.072 20.67C496.072 21.75 495.928 23.388 495.64 25.584C495.352 27.744 495.172 29.13 495.1 29.742C495.028 30.21 494.884 31.254 494.668 32.874C494.452 34.458 494.344 35.556 494.344 36.168C494.344 37.104 494.614 37.572 495.154 37.572C496.126 37.572 497.008 36.15 497.8 33.306L500.716 34.17C500.5 35.358 500.032 36.6 499.312 37.896C498.592 39.192 497.656 40.308 496.504 41.244C495.352 42.144 494.02 42.594 492.508 42.594C490.6 42.594 489.25 42.09 488.458 41.082C487.702 40.074 487.324 38.544 487.324 36.492C487.324 34.872 487.648 32.01 488.296 27.906C488.836 24.378 489.106 22.02 489.106 20.832C489.106 19.896 488.818 19.428 488.242 19.428C487.306 19.428 486.442 20.85 485.65 23.694L482.734 22.83C482.95 21.678 483.418 20.454 484.138 19.158C484.894 17.826 485.848 16.71 487 15.81C488.188 14.874 489.538 14.406 491.05 14.406ZM536.596 14.406C539.152 14.406 541.114 15.342 542.482 17.214C543.886 19.086 544.588 21.588 544.588 24.72C544.588 28.212 544.012 31.308 542.86 34.008C541.744 36.672 540.052 38.778 537.784 40.326C535.516 41.838 532.708 42.594 529.36 42.594C528.604 42.594 528.028 42.576 527.632 42.54L527.416 46.968C527.308 48.768 527.164 50.388 526.984 51.828C528.136 51.72 529.324 51.666 530.548 51.666V55.77H516.886V52.26C518.11 52.26 518.938 51.864 519.37 51.072C519.838 50.28 520.144 49.056 520.288 47.4C521.548 33.792 522.178 24.99 522.178 20.994C522.178 19.95 521.908 19.428 521.368 19.428C520.432 19.428 519.568 20.85 518.776 23.694L515.86 22.83C516.256 20.706 517.03 18.78 518.182 17.052C519.37 15.288 521.008 14.406 523.096 14.406C524.428 14.406 525.49 14.784 526.282 15.54C527.11 16.296 527.524 17.556 527.524 19.32C527.524 20.364 527.452 21.444 527.308 22.56H527.362C528.514 19.608 529.918 17.52 531.574 16.296C533.23 15.036 534.904 14.406 536.596 14.406ZM534.598 19.32C532.834 19.32 531.394 20.958 530.278 24.234C529.162 27.51 528.352 32.334 527.848 38.706C528.604 38.922 529.324 39.03 530.008 39.03C531.88 39.03 533.356 38.22 534.436 36.6C535.516 34.944 536.254 33.036 536.65 30.876C537.046 28.68 537.244 26.646 537.244 24.774C537.244 21.138 536.362 19.32 534.598 19.32ZM564.093 14.406C566.073 14.406 568.665 14.784 571.869 15.54L571.437 18.402C571.365 19.05 571.005 21.678 570.357 26.286C569.709 30.894 569.385 34.134 569.385 36.006C569.385 37.05 569.637 37.572 570.141 37.572C571.185 37.572 572.103 36.15 572.895 33.306L575.811 34.17C575.415 36.222 574.587 38.148 573.327 39.948C572.103 41.712 570.429 42.594 568.305 42.594C565.425 42.594 563.985 40.956 563.985 37.68C563.985 36.42 564.057 35.376 564.201 34.548H564.147C562.923 37.5 561.537 39.588 559.989 40.812C558.441 42 556.767 42.594 554.967 42.594C552.879 42.594 551.151 41.766 549.783 40.11C548.451 38.418 547.785 35.97 547.785 32.766C547.785 29.418 548.433 26.358 549.729 23.586C551.025 20.778 552.897 18.546 555.345 16.89C557.829 15.234 560.745 14.406 564.093 14.406ZM562.095 17.97C560.007 17.97 558.333 19.284 557.073 21.912C555.813 24.504 555.183 28.212 555.183 33.036C555.183 34.512 555.363 35.682 555.723 36.546C556.083 37.374 556.587 37.788 557.235 37.788C558.459 37.788 559.575 36.78 560.583 34.764C561.627 32.712 562.473 30.174 563.121 27.15C563.769 24.126 564.165 21.174 564.309 18.294C563.553 18.078 562.815 17.97 562.095 17.97ZM588.653 14.406C590.129 14.406 591.569 14.658 592.973 15.162C594.377 15.63 595.511 16.314 596.375 17.214C597.275 18.114 597.725 19.158 597.725 20.346C597.725 21.318 597.401 22.164 596.753 22.884C596.141 23.568 595.331 23.91 594.323 23.91C593.387 23.91 592.613 23.586 592.001 22.938C591.389 22.29 591.083 21.516 591.083 20.616C591.083 20.04 591.191 19.518 591.407 19.05C591.119 18.69 590.687 18.42 590.111 18.24C589.535 18.06 588.977 17.97 588.437 17.97C587.573 17.97 586.745 18.24 585.953 18.78C585.197 19.284 584.819 19.95 584.819 20.778C584.819 21.318 584.927 21.768 585.143 22.128C585.395 22.488 585.845 22.902 586.493 23.37C587.177 23.838 588.293 24.522 589.841 25.422C591.677 26.466 593.081 27.33 594.053 28.014C595.061 28.698 595.943 29.58 596.699 30.66C597.491 31.704 597.887 32.91 597.887 34.278C597.887 35.862 597.401 37.284 596.429 38.544C595.457 39.804 594.125 40.794 592.433 41.514C590.777 42.234 588.923 42.594 586.871 42.594C584.207 42.594 581.921 42.018 580.013 40.866C578.141 39.714 577.205 38.202 577.205 36.33C577.205 35.25 577.529 34.35 578.177 33.63C578.861 32.91 579.689 32.55 580.661 32.55C581.633 32.55 582.425 32.874 583.037 33.522C583.649 34.17 583.955 34.962 583.955 35.898C583.955 36.438 583.847 36.978 583.631 37.518C583.811 37.878 584.279 38.22 585.035 38.544C585.791 38.868 586.457 39.03 587.033 39.03C588.509 39.03 589.589 38.724 590.273 38.112C590.957 37.464 591.299 36.654 591.299 35.682C591.299 35.07 591.047 34.494 590.543 33.954C590.075 33.414 589.409 32.874 588.545 32.334C587.681 31.794 586.781 31.272 585.845 30.768C583.073 29.184 581.129 27.816 580.013 26.664C578.933 25.476 578.393 23.982 578.393 22.182C578.393 20.886 578.789 19.644 579.581 18.456C580.409 17.268 581.597 16.296 583.145 15.54C584.729 14.784 586.565 14.406 588.653 14.406ZM612.753 15H619.503L619.179 18.726L612.429 18.834C612.069 21.678 611.745 24.612 611.457 27.636C611.169 30.624 611.025 32.694 611.025 33.846C611.025 34.818 611.187 35.664 611.511 36.384C611.871 37.068 612.573 37.41 613.617 37.41C614.301 37.41 615.093 37.176 615.993 36.708C616.929 36.204 617.757 35.304 618.477 34.008L621.231 35.736C620.043 38.004 618.567 39.714 616.803 40.866C615.039 42.018 613.131 42.594 611.079 42.594C608.379 42.594 606.543 41.802 605.571 40.218C604.599 38.634 604.149 36.51 604.221 33.846C604.437 29.274 604.851 24.288 605.463 18.888L601.143 18.942L601.629 15C604.149 15 606.075 14.28 607.407 12.84C608.775 11.4 609.711 9.402 610.215 6.846H613.833L612.753 15ZM636.596 14.406C639.08 14.406 641.042 14.964 642.482 16.08C643.958 17.196 644.696 18.906 644.696 21.21C644.696 23.838 643.328 25.818 640.592 27.15C637.856 28.482 634.436 29.436 630.332 30.012C630.332 32.82 630.8 34.8 631.736 35.952C632.672 37.068 633.824 37.626 635.192 37.626C636.416 37.626 637.676 37.266 638.972 36.546C640.268 35.79 641.348 34.422 642.212 32.442L645.236 33.9C643.796 37.212 642.104 39.498 640.16 40.758C638.216 41.982 636.02 42.594 633.572 42.594C630.224 42.594 627.614 41.604 625.742 39.624C623.87 37.644 622.934 34.71 622.934 30.822C622.934 28.302 623.438 25.782 624.446 23.262C625.454 20.742 626.984 18.636 629.036 16.944C631.088 15.252 633.608 14.406 636.596 14.406ZM636.002 17.97C634.346 17.97 633.068 18.798 632.168 20.454C631.304 22.11 630.746 24.126 630.494 26.502C633.23 25.998 635.228 25.242 636.488 24.234C637.748 23.19 638.378 21.966 638.378 20.562C638.378 19.698 638.126 19.05 637.622 18.618C637.154 18.186 636.614 17.97 636.002 17.97Z" fill="#92BCE4"/>
</svg>
