<svg width="850" height="200" viewBox="0 0 850 200" fill="none" xmlns="http://www.w3.org/2000/svg">
<g clip-path="url(#clip0)">
<path d="M15.1762 115.736C17.0002 115.736 18.1762 115.232 18.7042 114.224C19.2322 113.216 19.4962 111.584 19.4962 109.328V78.8724C19.4962 76.7124 19.5922 74.6724 19.7842 72.7524L14.6722 72.9684V67.4964C17.6962 67.4964 20.1442 67.2804 22.0162 66.8484C23.8882 66.4164 25.1362 65.9124 25.7602 65.3364H29.2882C29.3842 66.1524 29.5042 67.3044 29.6482 68.7924H29.7202C32.6962 66.2004 35.9122 64.9044 39.3682 64.9044C42.2482 64.9044 44.7682 65.6484 46.9282 67.1364C49.1362 68.6244 50.8402 70.7604 52.0402 73.5444C53.2882 76.2804 53.9122 79.4724 53.9122 83.1204C53.9122 86.9604 53.1682 90.4164 51.6802 93.4884C50.1922 96.5124 48.0802 98.8884 45.3442 100.616C42.6562 102.344 39.5602 103.208 36.0562 103.208C34.1842 103.208 32.0482 102.776 29.6482 101.912V108.824C29.6482 110.888 29.5762 113 29.4322 115.16C30.9202 115.016 32.4562 114.944 34.0402 114.944V120.416H15.1762V115.736ZM34.6162 97.8084C40.4242 97.8084 43.3282 93.2724 43.3282 84.2004C43.3282 80.6484 42.6802 77.6244 41.3842 75.1284C40.1362 72.6324 38.2402 71.3844 35.6962 71.3844C34.4962 71.3844 33.3442 71.6724 32.2402 72.2484C31.1842 72.8244 30.3202 73.5924 29.6482 74.5524V96.5124C30.1282 96.8484 30.8242 97.1604 31.7362 97.4484C32.6962 97.6884 33.6562 97.8084 34.6162 97.8084ZM76.7784 103.208C73.2744 103.208 70.1304 102.464 67.3464 100.976C64.5624 99.4884 62.3784 97.3524 60.7944 94.5684C59.2104 91.7844 58.4184 88.5444 58.4184 84.8484C58.4184 80.9604 59.2344 77.5044 60.8664 74.4804C62.4984 71.4564 64.6824 69.1044 67.4184 67.4244C70.2024 65.7444 73.2504 64.9044 76.5624 64.9044C80.0184 64.9044 83.1144 65.6484 85.8504 67.1364C88.5864 68.6244 90.7464 70.7844 92.3304 73.6164C93.9144 76.4004 94.7064 79.6644 94.7064 83.4084C94.7064 87.3924 93.9384 90.8724 92.4024 93.8484C90.9144 96.8244 88.8024 99.1284 86.0664 100.76C83.3784 102.392 80.2824 103.208 76.7784 103.208ZM76.9224 98.0964C79.5624 98.0964 81.4104 96.8724 82.4664 94.4244C83.5224 91.9764 84.0504 88.9044 84.0504 85.2084C84.0504 81.0804 83.4504 77.5044 82.2504 74.4804C81.0504 71.4564 79.1544 69.9444 76.5624 69.9444C73.9224 69.9444 72.0024 71.1924 70.8024 73.6884C69.6024 76.1844 69.0024 79.2564 69.0024 82.9044C69.0024 87.0804 69.6504 90.6564 70.9464 93.6324C72.2424 96.6084 74.2344 98.0964 76.9224 98.0964ZM116.912 103.208C113.648 103.208 110.672 102.488 107.984 101.048C105.296 99.5604 103.16 97.4484 101.576 94.7124C99.9916 91.9284 99.1996 88.6404 99.1996 84.8484C99.1996 81.2484 99.9916 77.9364 101.576 74.9124C103.16 71.8404 105.368 69.4164 108.2 67.6404C111.08 65.8164 114.32 64.9044 117.92 64.9044C120.848 64.9044 123.344 65.3604 125.408 66.2724C127.52 67.1844 129.104 68.4084 130.16 69.9444C131.216 71.4324 131.744 73.0404 131.744 74.7684C131.744 76.2564 131.288 77.5284 130.376 78.5844C129.512 79.6404 128.312 80.1684 126.776 80.1684C125.192 80.1684 123.992 79.6884 123.176 78.7284C122.408 77.7684 122.024 76.6884 122.024 75.4884C122.024 74.3844 122.312 73.3284 122.888 72.3204C122.456 71.4564 121.76 70.8564 120.8 70.5204C119.84 70.1364 118.88 69.9444 117.92 69.9444C115.472 69.9444 113.48 71.0724 111.944 73.3284C110.456 75.5364 109.712 78.6804 109.712 82.7604C109.712 86.8404 110.504 90.2004 112.088 92.8404C113.672 95.4804 116.168 96.8004 119.576 96.8004C121.496 96.8004 123.392 96.2964 125.264 95.2884C127.136 94.2804 128.72 92.9364 130.016 91.2564L133.328 94.4964C130.928 97.8084 128.36 100.088 125.624 101.336C122.888 102.584 119.984 103.208 116.912 103.208ZM136.033 97.3764C137.857 97.3764 139.033 96.8724 139.561 95.8644C140.089 94.8564 140.353 93.2244 140.353 90.9684V61.3764C140.353 59.0724 140.449 56.9844 140.641 55.1124L135.601 55.3284V49.8564C138.625 49.8564 141.073 49.6404 142.945 49.2084C144.817 48.7764 146.041 48.2724 146.617 47.6964H150.577V80.5284H154.033L159.217 74.5524C160.705 72.8724 161.641 71.8644 162.025 71.5284V71.4564L158.209 71.5284V66.0564H174.409V70.6644C172.105 70.9044 170.137 71.5524 168.505 72.6084C166.921 73.6164 165.481 74.8644 164.185 76.3524L159.577 81.4644V81.5364C160.345 81.9204 161.065 82.4484 161.737 83.1204C162.457 83.7444 163.297 84.7044 164.257 86.0004L169.081 92.3364C170.329 93.8724 171.433 95.0964 172.393 96.0084C173.353 96.9204 174.457 97.3764 175.705 97.3764V102.056H167.425C165.985 102.056 164.713 101.576 163.609 100.616C162.505 99.6564 161.113 98.0484 159.433 95.7924C157.609 93.3444 155.857 90.8484 154.177 88.3044L152.233 85.5684L150.577 85.6404V90.4644C150.577 92.7684 150.481 94.8804 150.289 96.8004C151.825 96.6564 153.385 96.5844 154.969 96.5844V102.056H136.033V97.3764ZM178.686 75.5604H205.182V83.1204L178.686 83.3364V75.5604ZM211.857 97.3764C213.681 97.3764 214.833 96.8724 215.313 95.8644C215.841 94.8564 216.105 93.2244 216.105 90.9684V78.8724C216.105 76.7124 216.201 74.6724 216.393 72.7524L211.353 72.9684V67.4964C214.377 67.4964 216.825 67.2804 218.697 66.8484C220.569 66.4164 221.817 65.9124 222.441 65.3364H225.969C225.969 65.4324 226.065 66.6324 226.257 68.9364H226.401C227.889 67.7364 229.569 66.7764 231.441 66.0564C233.313 65.2884 235.137 64.9044 236.913 64.9044C239.073 64.9044 240.873 65.3124 242.313 66.1284C243.801 66.8964 244.977 68.0724 245.841 69.6564C247.569 68.2164 249.489 67.0644 251.601 66.2004C253.713 65.3364 255.705 64.9044 257.577 64.9044C261.561 64.9044 264.513 66.0564 266.433 68.3604C268.401 70.6644 269.385 74.5044 269.385 79.8804V90.4644C269.385 92.7684 269.289 94.8804 269.097 96.8004C270.633 96.6564 272.193 96.5844 273.777 96.5844V102.056H255.561V97.3764C257.097 97.3764 258.081 96.8724 258.513 95.8644C258.945 94.8084 259.161 93.1764 259.161 90.9684V79.9524C259.113 76.9284 258.609 74.7924 257.649 73.5444C256.689 72.2484 255.297 71.6004 253.473 71.6004C251.361 71.6004 249.297 72.3924 247.281 73.9764C247.713 75.8964 247.929 78.1764 247.929 80.8164V90.4644C247.929 92.7684 247.833 94.8804 247.641 96.8004C249.177 96.6564 250.737 96.5844 252.321 96.5844V102.056H233.745V97.3764C235.425 97.3764 236.505 96.8724 236.985 95.8644C237.465 94.8564 237.705 93.2244 237.705 90.9684L237.633 79.7364C237.633 76.7604 237.201 74.6724 236.337 73.4724C235.473 72.2244 234.177 71.5764 232.449 71.5284C230.337 71.5284 228.297 72.4164 226.329 74.1924V90.4644C226.329 92.7684 226.233 94.8804 226.041 96.8004C227.577 96.6564 229.017 96.5844 230.361 96.5844V102.056H211.857V97.3764ZM287.091 103.208C284.067 103.208 281.667 102.32 279.891 100.544C278.163 98.7204 277.299 96.4164 277.299 93.6324C277.299 89.4084 279.267 86.2164 283.203 84.0564C287.139 81.8484 291.867 80.6244 297.387 80.3844V76.6404C297.387 72.2724 295.755 70.0884 292.491 70.0884C290.379 70.0884 288.651 70.7604 287.307 72.1044C287.883 72.7764 288.171 73.6884 288.171 74.8404C288.171 75.9924 287.763 77.0244 286.947 77.9364C286.179 78.8484 285.027 79.3044 283.491 79.3044C282.051 79.3044 280.923 78.8484 280.107 77.9364C279.291 76.9764 278.883 75.8004 278.883 74.4084C278.883 72.5364 279.555 70.8804 280.899 69.4404C282.243 68.0004 284.067 66.8964 286.371 66.1284C288.723 65.3124 291.291 64.9044 294.075 64.9044C302.955 64.9044 307.395 69.4884 307.395 78.6564L307.323 90.4644C307.323 92.7684 307.227 94.8804 307.035 96.8004C308.619 96.6564 310.179 96.5844 311.715 96.5844V102.056H298.107C298.011 101.432 297.915 100.328 297.819 98.7444H297.747C294.819 101.72 291.267 103.208 287.091 103.208ZM291.627 96.1524C293.787 96.1524 295.683 95.2884 297.315 93.5604V85.4964C294.483 85.7844 292.131 86.5044 290.259 87.6564C288.435 88.8084 287.523 90.3684 287.523 92.3364C287.523 93.6324 287.907 94.5924 288.675 95.2164C289.491 95.8404 290.475 96.1524 291.627 96.1524ZM315.849 97.3764C317.673 97.3764 318.825 96.8724 319.305 95.8644C319.833 94.8564 320.097 93.2244 320.097 90.9684V78.8724C320.097 76.7124 320.193 74.6724 320.385 72.7524L315.345 72.9684V67.4964C318.369 67.4964 320.817 67.2804 322.689 66.8484C324.561 66.4164 325.809 65.9124 326.433 65.3364H329.961C330.057 66.0564 330.129 66.9924 330.177 68.1444C330.225 69.2964 330.249 70.4244 330.249 71.5284H330.393C333.657 67.1124 337.113 64.9044 340.761 64.9044C342.585 64.9044 344.073 65.4084 345.225 66.4164C346.425 67.4244 347.025 68.9124 347.025 70.8804C347.025 72.1284 346.617 73.2804 345.801 74.3364C344.985 75.3924 343.761 75.9204 342.129 75.9204C340.929 75.9204 339.849 75.6084 338.889 74.9844C337.977 74.3604 337.449 73.2804 337.305 71.7444C335.961 71.7444 334.569 72.5364 333.129 74.1204C331.737 75.6564 330.801 77.1924 330.321 78.7284V90.4644C330.321 92.7684 330.225 94.8804 330.033 96.8004C331.569 96.6564 333.129 96.5844 334.713 96.5844V102.056H315.849V97.3764ZM348.658 97.3764C350.482 97.3764 351.658 96.8724 352.186 95.8644C352.714 94.8564 352.978 93.2244 352.978 90.9684V61.3764C352.978 59.0724 353.074 56.9844 353.266 55.1124L348.226 55.3284V49.8564C351.25 49.8564 353.698 49.6404 355.57 49.2084C357.442 48.7764 358.666 48.2724 359.242 47.6964H363.202V80.5284H366.658L371.842 74.5524C373.33 72.8724 374.266 71.8644 374.65 71.5284V71.4564L370.834 71.5284V66.0564H387.034V70.6644C384.73 70.9044 382.762 71.5524 381.13 72.6084C379.546 73.6164 378.106 74.8644 376.81 76.3524L372.202 81.4644V81.5364C372.97 81.9204 373.69 82.4484 374.362 83.1204C375.082 83.7444 375.922 84.7044 376.882 86.0004L381.706 92.3364C382.954 93.8724 384.058 95.0964 385.018 96.0084C385.978 96.9204 387.082 97.3764 388.33 97.3764V102.056H380.05C378.61 102.056 377.338 101.576 376.234 100.616C375.13 99.6564 373.738 98.0484 372.058 95.7924C370.234 93.3444 368.482 90.8484 366.802 88.3044L364.858 85.5684L363.202 85.6404V90.4644C363.202 92.7684 363.106 94.8804 362.914 96.8004C364.45 96.6564 366.01 96.5844 367.594 96.5844V102.056H348.658V97.3764ZM407.796 103.208C404.292 103.208 401.196 102.44 398.508 100.904C395.82 99.3204 393.732 97.0884 392.244 94.2084C390.756 91.3284 390.012 87.9684 390.012 84.1284C390.012 80.7684 390.756 77.6244 392.244 74.6964C393.78 71.7204 395.916 69.3444 398.652 67.5684C401.388 65.7924 404.508 64.9044 408.012 64.9044C412.668 64.9044 416.532 66.2724 419.604 69.0084C422.724 71.7444 424.26 76.3044 424.212 82.6884L400.596 83.1204C400.596 87.3444 401.388 90.6804 402.972 93.1284C404.604 95.5764 407.196 96.8004 410.748 96.8004C412.428 96.8004 414.228 96.3684 416.148 95.5044C418.068 94.6404 419.796 93.2724 421.332 91.4004L424.572 94.4244C420.492 100.28 414.9 103.208 407.796 103.208ZM414.276 78.0804C414.132 72.6564 412.164 69.9444 408.372 69.9444C406.308 69.9444 404.652 70.6884 403.404 72.1764C402.204 73.6164 401.412 75.5844 401.028 78.0804H414.276ZM443.37 103.208C440.49 103.208 437.946 102.464 435.738 100.976C433.578 99.4884 431.874 97.3764 430.626 94.6404C429.426 91.8564 428.826 88.6404 428.826 84.9924C428.826 81.1524 429.57 77.7204 431.058 74.6964C432.546 71.6244 434.634 69.2244 437.322 67.4964C440.058 65.7684 443.178 64.9044 446.682 64.9044C448.554 64.9044 450.69 65.3364 453.09 66.2004V61.4484C453.09 59.1444 453.186 57.0324 453.378 55.1124C451.794 55.2564 450.09 55.3284 448.266 55.3284V49.8564C451.29 49.8564 453.738 49.6404 455.61 49.2084C457.482 48.7764 458.73 48.2724 459.354 47.6964H463.242V90.4644C463.242 92.7684 463.146 94.8804 462.954 96.8004C464.538 96.6564 466.098 96.5844 467.634 96.5844V102.056H453.954L453.594 98.7444H453.522C450.69 101.72 447.306 103.208 443.37 103.208ZM447.114 96.6564C448.314 96.6564 449.442 96.3444 450.498 95.7204C451.554 95.0964 452.418 94.2564 453.09 93.2004V71.6004C452.562 71.2164 451.818 70.9044 450.858 70.6644C449.898 70.3764 448.938 70.2324 447.978 70.2324C444.906 70.2804 442.698 71.6004 441.354 74.1924C440.058 76.7844 439.41 80.0244 439.41 83.9124C439.41 87.3684 440.034 90.3684 441.282 92.9124C442.578 95.4084 444.522 96.6564 447.114 96.6564Z" fill="#BFD9F2"/>
<path d="M505.154 154.781C499.346 154.781 495.146 153.893 492.554 152.117C490.01 150.341 488.738 148.085 488.738 145.349C488.738 143.669 489.266 142.085 490.322 140.597C491.426 139.157 493.178 137.981 495.578 137.069C493.706 136.541 492.338 135.725 491.474 134.621C490.658 133.517 490.25 132.221 490.25 130.733C490.25 129.293 490.802 127.829 491.906 126.341C493.058 124.853 494.834 123.749 497.234 123.029V122.957C495.074 122.093 493.346 120.749 492.05 118.925C490.802 117.053 490.178 114.845 490.178 112.301C490.178 109.613 490.922 107.189 492.41 105.029C493.946 102.869 495.938 101.189 498.386 99.989C500.882 98.741 503.498 98.117 506.234 98.117C507.674 98.117 509.186 98.309 510.77 98.693C512.354 99.029 513.698 99.581 514.802 100.349C515.714 97.853 516.938 95.789 518.474 94.157C520.01 92.477 521.834 91.637 523.946 91.637C525.53 91.637 526.754 92.045 527.618 92.861C528.482 93.677 528.914 94.805 528.914 96.245C528.914 97.349 528.554 98.357 527.834 99.269C527.162 100.181 526.082 100.637 524.594 100.637C523.826 100.637 523.058 100.373 522.29 99.845C521.57 99.269 521.138 98.597 520.994 97.829C520.37 98.021 519.746 98.645 519.122 99.701C518.498 100.709 518.138 101.645 518.042 102.509C519.386 103.709 520.418 105.101 521.138 106.685C521.906 108.269 522.29 109.973 522.29 111.797C522.29 114.485 521.522 116.933 519.986 119.141C518.45 121.301 516.434 123.005 513.938 124.253C511.442 125.453 508.778 126.053 505.946 126.053L503.93 125.981C502.874 125.885 502.106 125.837 501.626 125.837C500.57 125.837 499.682 126.029 498.962 126.413C498.242 126.797 497.882 127.325 497.882 127.997C497.882 128.861 498.53 129.485 499.826 129.869C501.17 130.205 503.594 130.469 507.098 130.661C513.146 130.997 517.73 132.005 520.85 133.685C523.97 135.365 525.53 138.173 525.53 142.109C525.53 144.701 524.522 146.957 522.506 148.877C520.538 150.797 517.97 152.261 514.802 153.269C511.682 154.277 508.466 154.781 505.154 154.781ZM506.234 121.229C508.058 121.229 509.498 120.413 510.554 118.781C511.658 117.149 512.21 115.253 512.21 113.093C512.21 110.357 511.682 107.981 510.626 105.965C509.57 103.949 508.082 102.941 506.162 102.941C504.338 102.941 502.874 103.781 501.77 105.461C500.666 107.141 500.114 109.133 500.114 111.437C500.114 114.125 500.666 116.429 501.77 118.349C502.874 120.269 504.362 121.229 506.234 121.229ZM507.242 149.813C509.402 149.813 511.25 149.525 512.786 148.949C514.37 148.373 515.57 147.629 516.386 146.717C517.202 145.853 517.61 144.965 517.61 144.053C517.61 142.565 516.746 141.437 515.018 140.669C513.338 139.901 510.746 139.445 507.242 139.301C506.858 139.253 506.234 139.229 505.37 139.229C504.89 139.181 504.05 139.109 502.85 139.013C501.65 138.965 500.666 138.869 499.898 138.725C499.178 139.301 498.602 140.045 498.17 140.957C497.786 141.869 497.594 142.781 497.594 143.693C497.594 145.565 498.458 147.053 500.186 148.157C501.962 149.261 504.314 149.813 507.242 149.813ZM529.752 130.589C531.576 130.589 532.728 130.085 533.208 129.077C533.736 128.069 534 126.437 534 124.181V112.085C534 109.925 534.096 107.885 534.288 105.965L529.248 106.181V100.709C532.272 100.709 534.72 100.493 536.592 100.061C538.464 99.629 539.712 99.125 540.336 98.549H543.864C543.96 99.269 544.032 100.205 544.08 101.357C544.128 102.509 544.152 103.637 544.152 104.741H544.296C547.56 100.325 551.016 98.117 554.664 98.117C556.488 98.117 557.976 98.621 559.128 99.629C560.328 100.637 560.928 102.125 560.928 104.093C560.928 105.341 560.52 106.493 559.704 107.549C558.888 108.605 557.664 109.133 556.032 109.133C554.832 109.133 553.752 108.821 552.792 108.197C551.88 107.573 551.352 106.493 551.208 104.957C549.864 104.957 548.472 105.749 547.032 107.333C545.64 108.869 544.704 110.405 544.224 111.941V123.677C544.224 125.981 544.128 128.093 543.936 130.013C545.472 129.869 547.032 129.797 548.616 129.797V135.269H529.752V130.589ZM572.994 136.421C569.97 136.421 567.57 135.533 565.794 133.757C564.066 131.933 563.202 129.629 563.202 126.845C563.202 122.621 565.17 119.429 569.106 117.269C573.042 115.061 577.77 113.837 583.29 113.597V109.853C583.29 105.485 581.658 103.301 578.394 103.301C576.282 103.301 574.554 103.973 573.21 105.317C573.786 105.989 574.074 106.901 574.074 108.053C574.074 109.205 573.666 110.237 572.85 111.149C572.082 112.061 570.93 112.517 569.394 112.517C567.954 112.517 566.826 112.061 566.01 111.149C565.194 110.189 564.786 109.013 564.786 107.621C564.786 105.749 565.458 104.093 566.802 102.653C568.146 101.213 569.97 100.109 572.274 99.341C574.626 98.525 577.194 98.117 579.978 98.117C588.858 98.117 593.298 102.701 593.298 111.869L593.226 123.677C593.226 125.981 593.13 128.093 592.938 130.013C594.522 129.869 596.082 129.797 597.618 129.797V135.269H584.01C583.914 134.645 583.818 133.541 583.722 131.957H583.65C580.722 134.933 577.17 136.421 572.994 136.421ZM577.53 129.365C579.69 129.365 581.586 128.501 583.218 126.773V118.709C580.386 118.997 578.034 119.717 576.162 120.869C574.338 122.021 573.426 123.581 573.426 125.549C573.426 126.845 573.81 127.805 574.578 128.429C575.394 129.053 576.378 129.365 577.53 129.365ZM601.752 130.589C603.576 130.589 604.728 130.085 605.208 129.077C605.736 128.069 606 126.437 606 124.181V112.085C606 109.925 606.096 107.885 606.288 105.965L601.248 106.181V100.709C604.272 100.709 606.72 100.493 608.592 100.061C610.464 99.629 611.712 99.125 612.336 98.549H615.864C615.864 98.645 615.96 99.845 616.152 102.149H616.296C617.688 101.045 619.392 100.109 621.408 99.341C623.472 98.525 625.224 98.117 626.664 98.117C631.032 98.117 634.152 99.365 636.024 101.861C637.896 104.357 638.832 108.413 638.832 114.029V123.677C638.832 125.981 638.736 128.093 638.544 130.013C640.128 129.869 641.688 129.797 643.224 129.797V135.269H624.36V130.589C626.184 130.589 627.36 130.085 627.888 129.077C628.416 128.069 628.68 126.437 628.68 124.181L628.608 113.957C628.608 110.789 628.152 108.461 627.24 106.973C626.376 105.485 624.888 104.741 622.776 104.741C621.624 104.741 620.448 105.005 619.248 105.533C618.048 106.013 617.04 106.637 616.224 107.405V123.677C616.224 125.981 616.128 128.093 615.936 130.013C617.472 129.869 619.032 129.797 620.616 129.797V135.269H601.752V130.589ZM661.421 136.421C658.541 136.421 655.997 135.677 653.789 134.189C651.629 132.701 649.925 130.589 648.677 127.853C647.477 125.069 646.877 121.853 646.877 118.205C646.877 114.365 647.621 110.933 649.109 107.909C650.597 104.837 652.685 102.437 655.373 100.709C658.109 98.981 661.229 98.117 664.733 98.117C666.605 98.117 668.741 98.549 671.141 99.413V94.661C671.141 92.357 671.237 90.245 671.429 88.325C669.845 88.469 668.141 88.541 666.317 88.541V83.069C669.341 83.069 671.789 82.853 673.661 82.421C675.533 81.989 676.781 81.485 677.405 80.909H681.293V123.677C681.293 125.981 681.197 128.093 681.005 130.013C682.589 129.869 684.149 129.797 685.685 129.797V135.269H672.005L671.645 131.957H671.573C668.741 134.933 665.357 136.421 661.421 136.421ZM665.165 129.869C666.365 129.869 667.493 129.557 668.549 128.933C669.605 128.309 670.469 127.469 671.141 126.413V104.813C670.613 104.429 669.869 104.117 668.909 103.877C667.949 103.589 666.989 103.445 666.029 103.445C662.957 103.493 660.749 104.813 659.405 107.405C658.109 109.997 657.461 113.237 657.461 117.125C657.461 120.581 658.085 123.581 659.333 126.125C660.629 128.621 662.573 129.869 665.165 129.869ZM690.416 130.589C692.24 130.589 693.392 130.085 693.872 129.077C694.4 128.069 694.664 126.437 694.664 124.181V112.085C694.664 109.925 694.76 107.885 694.952 105.965L689.912 106.181V100.709C692.936 100.709 695.384 100.493 697.256 100.061C699.128 99.629 700.376 99.125 701 98.549H704.528C704.528 98.645 704.624 99.845 704.816 102.149H704.96C706.448 100.949 708.128 99.989 710 99.269C711.872 98.501 713.696 98.117 715.472 98.117C717.632 98.117 719.432 98.525 720.872 99.341C722.36 100.109 723.536 101.285 724.4 102.869C726.128 101.429 728.048 100.277 730.16 99.413C732.272 98.549 734.264 98.117 736.136 98.117C740.12 98.117 743.072 99.269 744.992 101.573C746.96 103.877 747.944 107.717 747.944 113.093V123.677C747.944 125.981 747.848 128.093 747.656 130.013C749.192 129.869 750.752 129.797 752.336 129.797V135.269H734.12V130.589C735.656 130.589 736.64 130.085 737.072 129.077C737.504 128.021 737.72 126.389 737.72 124.181V113.165C737.672 110.141 737.168 108.005 736.208 106.757C735.248 105.461 733.856 104.813 732.032 104.813C729.92 104.813 727.856 105.605 725.84 107.189C726.272 109.109 726.488 111.389 726.488 114.029V123.677C726.488 125.981 726.392 128.093 726.2 130.013C727.736 129.869 729.296 129.797 730.88 129.797V135.269H712.304V130.589C713.984 130.589 715.064 130.085 715.544 129.077C716.024 128.069 716.264 126.437 716.264 124.181L716.192 112.949C716.192 109.973 715.76 107.885 714.896 106.685C714.032 105.437 712.736 104.789 711.008 104.741C708.896 104.741 706.856 105.629 704.888 107.405V123.677C704.888 125.981 704.792 128.093 704.6 130.013C706.136 129.869 707.576 129.797 708.92 129.797V135.269H690.416V130.589ZM765.65 136.421C762.626 136.421 760.226 135.533 758.45 133.757C756.722 131.933 755.858 129.629 755.858 126.845C755.858 122.621 757.826 119.429 761.762 117.269C765.698 115.061 770.426 113.837 775.946 113.597V109.853C775.946 105.485 774.314 103.301 771.05 103.301C768.938 103.301 767.21 103.973 765.866 105.317C766.442 105.989 766.73 106.901 766.73 108.053C766.73 109.205 766.322 110.237 765.506 111.149C764.738 112.061 763.586 112.517 762.05 112.517C760.61 112.517 759.482 112.061 758.666 111.149C757.85 110.189 757.442 109.013 757.442 107.621C757.442 105.749 758.114 104.093 759.458 102.653C760.802 101.213 762.626 100.109 764.93 99.341C767.282 98.525 769.85 98.117 772.634 98.117C781.514 98.117 785.954 102.701 785.954 111.869L785.882 123.677C785.882 125.981 785.786 128.093 785.594 130.013C787.178 129.869 788.738 129.797 790.274 129.797V135.269H776.666C776.57 134.645 776.474 133.541 776.378 131.957H776.306C773.378 134.933 769.826 136.421 765.65 136.421ZM770.186 129.365C772.346 129.365 774.242 128.501 775.874 126.773V118.709C773.042 118.997 770.69 119.717 768.818 120.869C766.994 122.021 766.082 123.581 766.082 125.549C766.082 126.845 766.466 127.805 767.234 128.429C768.05 129.053 769.034 129.365 770.186 129.365ZM793.727 101.861C794.687 100.613 795.623 98.885 796.535 96.677C797.447 94.421 797.879 92.357 797.831 90.485C797.399 90.629 796.895 90.701 796.319 90.701C794.927 90.701 793.751 90.317 792.791 89.549C791.831 88.733 791.351 87.533 791.351 85.949C791.351 84.413 791.831 83.141 792.791 82.133C793.799 81.077 795.095 80.549 796.679 80.549C798.743 80.549 800.327 81.269 801.431 82.709C802.583 84.101 803.159 85.901 803.159 88.109C803.159 90.461 802.583 93.005 801.431 95.741C800.327 98.477 798.695 101.189 796.535 103.877L793.727 101.861ZM823.202 136.421C821.138 136.421 819.122 136.157 817.154 135.629C815.186 135.101 813.65 134.429 812.546 133.613H812.474L812.69 135.773H807.218L806.93 123.389H811.61C811.85 125.597 813.002 127.469 815.066 129.005C817.178 130.493 819.746 131.237 822.77 131.237C824.114 131.237 825.266 130.925 826.226 130.301C827.234 129.677 827.738 128.789 827.738 127.637C827.738 126.773 827.426 126.053 826.802 125.477C826.178 124.901 825.434 124.421 824.57 124.037C823.706 123.653 821.978 122.957 819.386 121.949C816.314 120.749 814.01 119.765 812.474 118.997C810.938 118.229 809.546 117.101 808.298 115.613C807.098 114.077 806.498 112.109 806.498 109.709C806.498 107.741 806.978 105.893 807.938 104.165C808.946 102.389 810.458 100.949 812.474 99.845C814.538 98.693 817.058 98.117 820.034 98.117C821.426 98.117 822.938 98.333 824.57 98.765C826.202 99.197 827.57 99.797 828.674 100.565H828.746L828.674 98.477H834.146V111.221H829.466C829.034 108.725 827.93 106.757 826.154 105.317C824.378 103.877 822.194 103.157 819.602 103.157C818.258 103.157 817.13 103.469 816.218 104.093C815.306 104.717 814.85 105.677 814.85 106.973C814.85 108.317 815.378 109.325 816.434 109.997C817.49 110.621 819.266 111.341 821.762 112.157C822.05 112.205 822.674 112.397 823.634 112.733C827.714 114.173 830.834 115.853 832.994 117.773C835.202 119.693 836.306 122.213 836.306 125.333C836.306 127.733 835.682 129.773 834.434 131.453C833.234 133.085 831.626 134.333 829.61 135.197C827.642 136.013 825.506 136.421 823.202 136.421Z" fill="#BFD9F2"/>
<path d="M356.322 201.402C348.834 201.402 345.09 196.794 345.09 187.578L345.234 170.226H340.338V164.25C341.874 164.25 343.314 163.77 344.658 162.81C346.05 161.85 347.226 160.674 348.186 159.282C349.146 157.89 349.818 156.546 350.202 155.25H355.53L355.458 164.25H364.602V169.794L355.458 170.01L355.386 187.722C355.386 192.378 356.826 194.706 359.706 194.706C362.01 194.706 364.194 193.266 366.258 190.386L369.714 193.626C367.458 196.938 365.202 199.074 362.946 200.034C360.69 200.946 358.482 201.402 356.322 201.402ZM389.449 201.402C385.945 201.402 382.801 200.658 380.017 199.17C377.233 197.682 375.049 195.546 373.465 192.762C371.881 189.978 371.089 186.738 371.089 183.042C371.089 179.154 371.905 175.698 373.537 172.674C375.169 169.65 377.353 167.298 380.089 165.618C382.873 163.938 385.921 163.098 389.233 163.098C392.689 163.098 395.785 163.842 398.521 165.33C401.257 166.818 403.417 168.978 405.001 171.81C406.585 174.594 407.377 177.858 407.377 181.602C407.377 185.586 406.609 189.066 405.073 192.042C403.585 195.018 401.473 197.322 398.737 198.954C396.049 200.586 392.953 201.402 389.449 201.402ZM389.593 196.29C392.233 196.29 394.081 195.066 395.137 192.618C396.193 190.17 396.721 187.098 396.721 183.402C396.721 179.274 396.121 175.698 394.921 172.674C393.721 169.65 391.825 168.138 389.233 168.138C386.593 168.138 384.673 169.386 383.473 171.882C382.273 174.378 381.673 177.45 381.673 181.098C381.673 185.274 382.321 188.85 383.617 191.826C384.913 194.802 386.905 196.29 389.593 196.29ZM412.453 195.57C414.277 195.57 415.453 195.066 415.981 194.058C416.509 193.05 416.773 191.418 416.773 189.162V170.154L411.517 170.226V164.25H416.773V162.162C416.773 156.546 417.997 152.442 420.445 149.85C422.893 147.21 426.373 145.89 430.885 145.89C434.005 145.89 436.309 146.514 437.797 147.762C439.285 149.01 440.029 150.498 440.029 152.226C440.029 153.57 439.621 154.722 438.805 155.682C437.989 156.594 436.861 157.05 435.421 157.05C434.077 157.05 433.021 156.666 432.253 155.898C431.533 155.13 431.173 154.146 431.173 152.946C431.173 152.322 431.221 151.842 431.317 151.506C430.933 151.122 430.381 150.93 429.661 150.93C427.741 150.978 426.781 152.466 426.781 155.394V164.25H434.845V169.794L426.853 170.01L426.925 188.514C426.925 190.914 426.829 193.074 426.637 194.994C428.221 194.85 429.901 194.778 431.677 194.778V200.25H412.453V195.57ZM453.791 201.402C449.519 201.402 446.447 200.154 444.575 197.658C442.751 195.162 441.839 191.106 441.839 185.49V177.21C441.839 175.194 441.911 173.106 442.055 170.946L437.015 171.162V165.69C440.039 165.69 442.487 165.474 444.359 165.042C446.231 164.61 447.479 164.106 448.103 163.53H452.063V185.562C452.063 188.73 452.471 191.058 453.287 192.546C454.103 194.034 455.399 194.778 457.175 194.778C458.375 194.778 459.599 194.442 460.847 193.77C462.143 193.098 463.223 192.282 464.087 191.322V177.21C464.087 174.954 464.183 172.866 464.375 170.946L459.335 171.162V165.69C462.359 165.69 464.783 165.474 466.607 165.042C468.479 164.61 469.727 164.106 470.351 163.53H474.311V188.658C474.311 190.962 474.215 193.074 474.023 194.994C475.559 194.85 477.119 194.778 478.703 194.778V200.25H465.023L464.591 196.506H464.519C462.743 198.042 461.015 199.242 459.335 200.106C457.703 200.97 455.855 201.402 453.791 201.402Z" fill="#BFD9F2"/>
<path d="M15.1762 81.68C17.0002 81.68 18.1762 81.176 18.7042 80.168C19.2322 79.16 19.4962 77.528 19.4962 75.272V44.816C19.4962 42.656 19.5922 40.616 19.7842 38.696L14.6722 38.912V33.44C17.6962 33.44 20.1442 33.224 22.0162 32.792C23.8882 32.36 25.1362 31.856 25.7602 31.28H29.2882C29.3842 32.096 29.5042 33.248 29.6482 34.736H29.7202C32.6962 32.144 35.9122 30.848 39.3682 30.848C42.2482 30.848 44.7682 31.592 46.9282 33.08C49.1362 34.568 50.8402 36.704 52.0402 39.488C53.2882 42.224 53.9122 45.416 53.9122 49.064C53.9122 52.904 53.1682 56.36 51.6802 59.432C50.1922 62.456 48.0802 64.832 45.3442 66.56C42.6562 68.288 39.5602 69.152 36.0562 69.152C34.1842 69.152 32.0482 68.72 29.6482 67.856V74.768C29.6482 76.832 29.5762 78.944 29.4322 81.104C30.9202 80.96 32.4562 80.888 34.0402 80.888V86.36H15.1762V81.68ZM34.6162 63.752C40.4242 63.752 43.3282 59.216 43.3282 50.144C43.3282 46.592 42.6802 43.568 41.3842 41.072C40.1362 38.576 38.2402 37.328 35.6962 37.328C34.4962 37.328 33.3442 37.616 32.2402 38.192C31.1842 38.768 30.3202 39.536 29.6482 40.496V62.456C30.1282 62.792 30.8242 63.104 31.7362 63.392C32.6962 63.632 33.6562 63.752 34.6162 63.752ZM76.7784 69.152C73.2744 69.152 70.1304 68.408 67.3464 66.92C64.5624 65.432 62.3784 63.296 60.7944 60.512C59.2104 57.728 58.4184 54.488 58.4184 50.792C58.4184 46.904 59.2344 43.448 60.8664 40.424C62.4984 37.4 64.6824 35.048 67.4184 33.368C70.2024 31.688 73.2504 30.848 76.5624 30.848C80.0184 30.848 83.1144 31.592 85.8504 33.08C88.5864 34.568 90.7464 36.728 92.3304 39.56C93.9144 42.344 94.7064 45.608 94.7064 49.352C94.7064 53.336 93.9384 56.816 92.4024 59.792C90.9144 62.768 88.8024 65.072 86.0664 66.704C83.3784 68.336 80.2824 69.152 76.7784 69.152ZM76.9224 64.04C79.5624 64.04 81.4104 62.816 82.4664 60.368C83.5224 57.92 84.0504 54.848 84.0504 51.152C84.0504 47.024 83.4504 43.448 82.2504 40.424C81.0504 37.4 79.1544 35.888 76.5624 35.888C73.9224 35.888 72.0024 37.136 70.8024 39.632C69.6024 42.128 69.0024 45.2 69.0024 48.848C69.0024 53.024 69.6504 56.6 70.9464 59.576C72.2424 62.552 74.2344 64.04 76.9224 64.04ZM116.912 69.152C113.648 69.152 110.672 68.432 107.984 66.992C105.296 65.504 103.16 63.392 101.576 60.656C99.9916 57.872 99.1996 54.584 99.1996 50.792C99.1996 47.192 99.9916 43.88 101.576 40.856C103.16 37.784 105.368 35.36 108.2 33.584C111.08 31.76 114.32 30.848 117.92 30.848C120.848 30.848 123.344 31.304 125.408 32.216C127.52 33.128 129.104 34.352 130.16 35.888C131.216 37.376 131.744 38.984 131.744 40.712C131.744 42.2 131.288 43.472 130.376 44.528C129.512 45.584 128.312 46.112 126.776 46.112C125.192 46.112 123.992 45.632 123.176 44.672C122.408 43.712 122.024 42.632 122.024 41.432C122.024 40.328 122.312 39.272 122.888 38.264C122.456 37.4 121.76 36.8 120.8 36.464C119.84 36.08 118.88 35.888 117.92 35.888C115.472 35.888 113.48 37.016 111.944 39.272C110.456 41.48 109.712 44.624 109.712 48.704C109.712 52.784 110.504 56.144 112.088 58.784C113.672 61.424 116.168 62.744 119.576 62.744C121.496 62.744 123.392 62.24 125.264 61.232C127.136 60.224 128.72 58.88 130.016 57.2L133.328 60.44C130.928 63.752 128.36 66.032 125.624 67.28C122.888 68.528 119.984 69.152 116.912 69.152ZM136.033 63.32C137.857 63.32 139.033 62.816 139.561 61.808C140.089 60.8 140.353 59.168 140.353 56.912V27.32C140.353 25.016 140.449 22.928 140.641 21.056L135.601 21.272V15.8C138.625 15.8 141.073 15.584 142.945 15.152C144.817 14.72 146.041 14.216 146.617 13.64H150.577V46.472H154.033L159.217 40.496C160.705 38.816 161.641 37.808 162.025 37.472V37.4L158.209 37.472V32H174.409V36.608C172.105 36.848 170.137 37.496 168.505 38.552C166.921 39.56 165.481 40.808 164.185 42.296L159.577 47.408V47.48C160.345 47.864 161.065 48.392 161.737 49.064C162.457 49.688 163.297 50.648 164.257 51.944L169.081 58.28C170.329 59.816 171.433 61.04 172.393 61.952C173.353 62.864 174.457 63.32 175.705 63.32V68H167.425C165.985 68 164.713 67.52 163.609 66.56C162.505 65.6 161.113 63.992 159.433 61.736C157.609 59.288 155.857 56.792 154.177 54.248L152.233 51.512L150.577 51.584V56.408C150.577 58.712 150.481 60.824 150.289 62.744C151.825 62.6 153.385 62.528 154.969 62.528V68H136.033V63.32ZM178.686 41.504H205.182V49.064L178.686 49.28V41.504ZM211.857 63.32C213.681 63.32 214.833 62.816 215.313 61.808C215.841 60.8 216.105 59.168 216.105 56.912V44.816C216.105 42.656 216.201 40.616 216.393 38.696L211.353 38.912V33.44C214.377 33.44 216.825 33.224 218.697 32.792C220.569 32.36 221.817 31.856 222.441 31.28H225.969C225.969 31.376 226.065 32.576 226.257 34.88H226.401C227.889 33.68 229.569 32.72 231.441 32C233.313 31.232 235.137 30.848 236.913 30.848C239.073 30.848 240.873 31.256 242.313 32.072C243.801 32.84 244.977 34.016 245.841 35.6C247.569 34.16 249.489 33.008 251.601 32.144C253.713 31.28 255.705 30.848 257.577 30.848C261.561 30.848 264.513 32 266.433 34.304C268.401 36.608 269.385 40.448 269.385 45.824V56.408C269.385 58.712 269.289 60.824 269.097 62.744C270.633 62.6 272.193 62.528 273.777 62.528V68H255.561V63.32C257.097 63.32 258.081 62.816 258.513 61.808C258.945 60.752 259.161 59.12 259.161 56.912V45.896C259.113 42.872 258.609 40.736 257.649 39.488C256.689 38.192 255.297 37.544 253.473 37.544C251.361 37.544 249.297 38.336 247.281 39.92C247.713 41.84 247.929 44.12 247.929 46.76V56.408C247.929 58.712 247.833 60.824 247.641 62.744C249.177 62.6 250.737 62.528 252.321 62.528V68H233.745V63.32C235.425 63.32 236.505 62.816 236.985 61.808C237.465 60.8 237.705 59.168 237.705 56.912L237.633 45.68C237.633 42.704 237.201 40.616 236.337 39.416C235.473 38.168 234.177 37.52 232.449 37.472C230.337 37.472 228.297 38.36 226.329 40.136V56.408C226.329 58.712 226.233 60.824 226.041 62.744C227.577 62.6 229.017 62.528 230.361 62.528V68H211.857V63.32ZM287.091 69.152C284.067 69.152 281.667 68.264 279.891 66.488C278.163 64.664 277.299 62.36 277.299 59.576C277.299 55.352 279.267 52.16 283.203 50C287.139 47.792 291.867 46.568 297.387 46.328V42.584C297.387 38.216 295.755 36.032 292.491 36.032C290.379 36.032 288.651 36.704 287.307 38.048C287.883 38.72 288.171 39.632 288.171 40.784C288.171 41.936 287.763 42.968 286.947 43.88C286.179 44.792 285.027 45.248 283.491 45.248C282.051 45.248 280.923 44.792 280.107 43.88C279.291 42.92 278.883 41.744 278.883 40.352C278.883 38.48 279.555 36.824 280.899 35.384C282.243 33.944 284.067 32.84 286.371 32.072C288.723 31.256 291.291 30.848 294.075 30.848C302.955 30.848 307.395 35.432 307.395 44.6L307.323 56.408C307.323 58.712 307.227 60.824 307.035 62.744C308.619 62.6 310.179 62.528 311.715 62.528V68H298.107C298.011 67.376 297.915 66.272 297.819 64.688H297.747C294.819 67.664 291.267 69.152 287.091 69.152ZM291.627 62.096C293.787 62.096 295.683 61.232 297.315 59.504V51.44C294.483 51.728 292.131 52.448 290.259 53.6C288.435 54.752 287.523 56.312 287.523 58.28C287.523 59.576 287.907 60.536 288.675 61.16C289.491 61.784 290.475 62.096 291.627 62.096ZM315.849 63.32C317.673 63.32 318.825 62.816 319.305 61.808C319.833 60.8 320.097 59.168 320.097 56.912V44.816C320.097 42.656 320.193 40.616 320.385 38.696L315.345 38.912V33.44C318.369 33.44 320.817 33.224 322.689 32.792C324.561 32.36 325.809 31.856 326.433 31.28H329.961C330.057 32 330.129 32.936 330.177 34.088C330.225 35.24 330.249 36.368 330.249 37.472H330.393C333.657 33.056 337.113 30.848 340.761 30.848C342.585 30.848 344.073 31.352 345.225 32.36C346.425 33.368 347.025 34.856 347.025 36.824C347.025 38.072 346.617 39.224 345.801 40.28C344.985 41.336 343.761 41.864 342.129 41.864C340.929 41.864 339.849 41.552 338.889 40.928C337.977 40.304 337.449 39.224 337.305 37.688C335.961 37.688 334.569 38.48 333.129 40.064C331.737 41.6 330.801 43.136 330.321 44.672V56.408C330.321 58.712 330.225 60.824 330.033 62.744C331.569 62.6 333.129 62.528 334.713 62.528V68H315.849V63.32ZM348.658 63.32C350.482 63.32 351.658 62.816 352.186 61.808C352.714 60.8 352.978 59.168 352.978 56.912V27.32C352.978 25.016 353.074 22.928 353.266 21.056L348.226 21.272V15.8C351.25 15.8 353.698 15.584 355.57 15.152C357.442 14.72 358.666 14.216 359.242 13.64H363.202V46.472H366.658L371.842 40.496C373.33 38.816 374.266 37.808 374.65 37.472V37.4L370.834 37.472V32H387.034V36.608C384.73 36.848 382.762 37.496 381.13 38.552C379.546 39.56 378.106 40.808 376.81 42.296L372.202 47.408V47.48C372.97 47.864 373.69 48.392 374.362 49.064C375.082 49.688 375.922 50.648 376.882 51.944L381.706 58.28C382.954 59.816 384.058 61.04 385.018 61.952C385.978 62.864 387.082 63.32 388.33 63.32V68H380.05C378.61 68 377.338 67.52 376.234 66.56C375.13 65.6 373.738 63.992 372.058 61.736C370.234 59.288 368.482 56.792 366.802 54.248L364.858 51.512L363.202 51.584V56.408C363.202 58.712 363.106 60.824 362.914 62.744C364.45 62.6 366.01 62.528 367.594 62.528V68H348.658V63.32ZM407.796 69.152C404.292 69.152 401.196 68.384 398.508 66.848C395.82 65.264 393.732 63.032 392.244 60.152C390.756 57.272 390.012 53.912 390.012 50.072C390.012 46.712 390.756 43.568 392.244 40.64C393.78 37.664 395.916 35.288 398.652 33.512C401.388 31.736 404.508 30.848 408.012 30.848C412.668 30.848 416.532 32.216 419.604 34.952C422.724 37.688 424.26 42.248 424.212 48.632L400.596 49.064C400.596 53.288 401.388 56.624 402.972 59.072C404.604 61.52 407.196 62.744 410.748 62.744C412.428 62.744 414.228 62.312 416.148 61.448C418.068 60.584 419.796 59.216 421.332 57.344L424.572 60.368C420.492 66.224 414.9 69.152 407.796 69.152ZM414.276 44.024C414.132 38.6 412.164 35.888 408.372 35.888C406.308 35.888 404.652 36.632 403.404 38.12C402.204 39.56 401.412 41.528 401.028 44.024H414.276ZM443.37 69.152C440.49 69.152 437.946 68.408 435.738 66.92C433.578 65.432 431.874 63.32 430.626 60.584C429.426 57.8 428.826 54.584 428.826 50.936C428.826 47.096 429.57 43.664 431.058 40.64C432.546 37.568 434.634 35.168 437.322 33.44C440.058 31.712 443.178 30.848 446.682 30.848C448.554 30.848 450.69 31.28 453.09 32.144V27.392C453.09 25.088 453.186 22.976 453.378 21.056C451.794 21.2 450.09 21.272 448.266 21.272V15.8C451.29 15.8 453.738 15.584 455.61 15.152C457.482 14.72 458.73 14.216 459.354 13.64H463.242V56.408C463.242 58.712 463.146 60.824 462.954 62.744C464.538 62.6 466.098 62.528 467.634 62.528V68H453.954L453.594 64.688H453.522C450.69 67.664 447.306 69.152 443.37 69.152ZM447.114 62.6C448.314 62.6 449.442 62.288 450.498 61.664C451.554 61.04 452.418 60.2 453.09 59.144V37.544C452.562 37.16 451.818 36.848 450.858 36.608C449.898 36.32 448.938 36.176 447.978 36.176C444.906 36.224 442.698 37.544 441.354 40.136C440.058 42.728 439.41 45.968 439.41 49.856C439.41 53.312 440.034 56.312 441.282 58.856C442.578 61.352 444.522 62.6 447.114 62.6Z" fill="#92928B"/>
<path d="M505.154 124.526C499.346 124.526 495.146 123.638 492.554 121.862C490.01 120.086 488.738 117.83 488.738 115.094C488.738 113.414 489.266 111.83 490.322 110.342C491.426 108.902 493.178 107.726 495.578 106.814C493.706 106.286 492.338 105.47 491.474 104.366C490.658 103.262 490.25 101.966 490.25 100.478C490.25 99.0381 490.802 97.5741 491.906 96.0861C493.058 94.5981 494.834 93.4941 497.234 92.7741V92.7021C495.074 91.8381 493.346 90.4941 492.05 88.6701C490.802 86.7981 490.178 84.5901 490.178 82.0461C490.178 79.3581 490.922 76.9341 492.41 74.7741C493.946 72.6141 495.938 70.9341 498.386 69.7341C500.882 68.4861 503.498 67.8621 506.234 67.8621C507.674 67.8621 509.186 68.0541 510.77 68.4381C512.354 68.7741 513.698 69.3261 514.802 70.0941C515.714 67.5981 516.938 65.5341 518.474 63.9021C520.01 62.2221 521.834 61.3821 523.946 61.3821C525.53 61.3821 526.754 61.7901 527.618 62.6061C528.482 63.4221 528.914 64.5501 528.914 65.9901C528.914 67.0941 528.554 68.1021 527.834 69.0141C527.162 69.9261 526.082 70.3821 524.594 70.3821C523.826 70.3821 523.058 70.1181 522.29 69.5901C521.57 69.0141 521.138 68.3421 520.994 67.5741C520.37 67.7661 519.746 68.3901 519.122 69.4461C518.498 70.4541 518.138 71.3901 518.042 72.2541C519.386 73.4541 520.418 74.8461 521.138 76.4301C521.906 78.0141 522.29 79.7181 522.29 81.5421C522.29 84.2301 521.522 86.6781 519.986 88.8861C518.45 91.0461 516.434 92.7501 513.938 93.9981C511.442 95.1981 508.778 95.7981 505.946 95.7981L503.93 95.7261C502.874 95.6301 502.106 95.5821 501.626 95.5821C500.57 95.5821 499.682 95.7741 498.962 96.1581C498.242 96.5421 497.882 97.0701 497.882 97.7421C497.882 98.6061 498.53 99.2301 499.826 99.6141C501.17 99.9501 503.594 100.214 507.098 100.406C513.146 100.742 517.73 101.75 520.85 103.43C523.97 105.11 525.53 107.918 525.53 111.854C525.53 114.446 524.522 116.702 522.506 118.622C520.538 120.542 517.97 122.006 514.802 123.014C511.682 124.022 508.466 124.526 505.154 124.526ZM506.234 90.9741C508.058 90.9741 509.498 90.1581 510.554 88.5261C511.658 86.8941 512.21 84.9981 512.21 82.8381C512.21 80.1021 511.682 77.7261 510.626 75.7101C509.57 73.6941 508.082 72.6861 506.162 72.6861C504.338 72.6861 502.874 73.5261 501.77 75.2061C500.666 76.8861 500.114 78.8781 500.114 81.1821C500.114 83.8701 500.666 86.1741 501.77 88.0941C502.874 90.0141 504.362 90.9741 506.234 90.9741ZM507.242 119.558C509.402 119.558 511.25 119.27 512.786 118.694C514.37 118.118 515.57 117.374 516.386 116.462C517.202 115.598 517.61 114.71 517.61 113.798C517.61 112.31 516.746 111.182 515.018 110.414C513.338 109.646 510.746 109.19 507.242 109.046C506.858 108.998 506.234 108.974 505.37 108.974C504.89 108.926 504.05 108.854 502.85 108.758C501.65 108.71 500.666 108.614 499.898 108.47C499.178 109.046 498.602 109.79 498.17 110.702C497.786 111.614 497.594 112.526 497.594 113.438C497.594 115.31 498.458 116.798 500.186 117.902C501.962 119.006 504.314 119.558 507.242 119.558ZM529.752 100.334C531.576 100.334 532.728 99.8301 533.208 98.8221C533.736 97.8141 534 96.1821 534 93.9261V81.8301C534 79.6701 534.096 77.6301 534.288 75.7101L529.248 75.9261V70.4541C532.272 70.4541 534.72 70.2381 536.592 69.8061C538.464 69.3741 539.712 68.8701 540.336 68.2941H543.864C543.96 69.0141 544.032 69.9501 544.08 71.1021C544.128 72.2541 544.152 73.3821 544.152 74.4861H544.296C547.56 70.0701 551.016 67.8621 554.664 67.8621C556.488 67.8621 557.976 68.3661 559.128 69.3741C560.328 70.3821 560.928 71.8701 560.928 73.8381C560.928 75.0861 560.52 76.2381 559.704 77.2941C558.888 78.3501 557.664 78.8781 556.032 78.8781C554.832 78.8781 553.752 78.5661 552.792 77.9421C551.88 77.3181 551.352 76.2381 551.208 74.7021C549.864 74.7021 548.472 75.4941 547.032 77.0781C545.64 78.6141 544.704 80.1501 544.224 81.6861V93.4221C544.224 95.7261 544.128 97.8381 543.936 99.7581C545.472 99.6141 547.032 99.5421 548.616 99.5421V105.014H529.752V100.334ZM572.994 106.166C569.97 106.166 567.57 105.278 565.794 103.502C564.066 101.678 563.202 99.3741 563.202 96.5901C563.202 92.3661 565.17 89.1741 569.106 87.0141C573.042 84.8061 577.77 83.5821 583.29 83.3421V79.5981C583.29 75.2301 581.658 73.0461 578.394 73.0461C576.282 73.0461 574.554 73.7181 573.21 75.0621C573.786 75.7341 574.074 76.6461 574.074 77.7981C574.074 78.9501 573.666 79.9821 572.85 80.8941C572.082 81.8061 570.93 82.2621 569.394 82.2621C567.954 82.2621 566.826 81.8061 566.01 80.8941C565.194 79.9341 564.786 78.7581 564.786 77.3661C564.786 75.4941 565.458 73.8381 566.802 72.3981C568.146 70.9581 569.97 69.8541 572.274 69.0861C574.626 68.2701 577.194 67.8621 579.978 67.8621C588.858 67.8621 593.298 72.4461 593.298 81.6141L593.226 93.4221C593.226 95.7261 593.13 97.8381 592.938 99.7581C594.522 99.6141 596.082 99.5421 597.618 99.5421V105.014H584.01C583.914 104.39 583.818 103.286 583.722 101.702H583.65C580.722 104.678 577.17 106.166 572.994 106.166ZM577.53 99.1101C579.69 99.1101 581.586 98.2461 583.218 96.5181V88.4541C580.386 88.7421 578.034 89.4621 576.162 90.6141C574.338 91.7661 573.426 93.3261 573.426 95.2941C573.426 96.5901 573.81 97.5501 574.578 98.1741C575.394 98.7981 576.378 99.1101 577.53 99.1101ZM601.752 100.334C603.576 100.334 604.728 99.8301 605.208 98.8221C605.736 97.8141 606 96.1821 606 93.9261V81.8301C606 79.6701 606.096 77.6301 606.288 75.7101L601.248 75.9261V70.4541C604.272 70.4541 606.72 70.2381 608.592 69.8061C610.464 69.3741 611.712 68.8701 612.336 68.2941H615.864C615.864 68.3901 615.96 69.5901 616.152 71.8941H616.296C617.688 70.7901 619.392 69.8541 621.408 69.0861C623.472 68.2701 625.224 67.8621 626.664 67.8621C631.032 67.8621 634.152 69.1101 636.024 71.6061C637.896 74.1021 638.832 78.1581 638.832 83.7741V93.4221C638.832 95.7261 638.736 97.8381 638.544 99.7581C640.128 99.6141 641.688 99.5421 643.224 99.5421V105.014H624.36V100.334C626.184 100.334 627.36 99.8301 627.888 98.8221C628.416 97.8141 628.68 96.1821 628.68 93.9261L628.608 83.7021C628.608 80.5341 628.152 78.2061 627.24 76.7181C626.376 75.2301 624.888 74.4861 622.776 74.4861C621.624 74.4861 620.448 74.7501 619.248 75.2781C618.048 75.7581 617.04 76.3821 616.224 77.1501V93.4221C616.224 95.7261 616.128 97.8381 615.936 99.7581C617.472 99.6141 619.032 99.5421 620.616 99.5421V105.014H601.752V100.334ZM661.421 106.166C658.541 106.166 655.997 105.422 653.789 103.934C651.629 102.446 649.925 100.334 648.677 97.5981C647.477 94.8141 646.877 91.5981 646.877 87.9501C646.877 84.1101 647.621 80.6781 649.109 77.6541C650.597 74.5821 652.685 72.1821 655.373 70.4541C658.109 68.7261 661.229 67.8621 664.733 67.8621C666.605 67.8621 668.741 68.2941 671.141 69.1581V64.4061C671.141 62.1021 671.237 59.9901 671.429 58.0701C669.845 58.2141 668.141 58.2861 666.317 58.2861V52.8141C669.341 52.8141 671.789 52.5981 673.661 52.1661C675.533 51.7341 676.781 51.2301 677.405 50.6541H681.293V93.4221C681.293 95.7261 681.197 97.8381 681.005 99.7581C682.589 99.6141 684.149 99.5421 685.685 99.5421V105.014H672.005L671.645 101.702H671.573C668.741 104.678 665.357 106.166 661.421 106.166ZM665.165 99.6141C666.365 99.6141 667.493 99.3021 668.549 98.6781C669.605 98.0541 670.469 97.2141 671.141 96.1581V74.5581C670.613 74.1741 669.869 73.8621 668.909 73.6221C667.949 73.3341 666.989 73.1901 666.029 73.1901C662.957 73.2381 660.749 74.5581 659.405 77.1501C658.109 79.7421 657.461 82.9821 657.461 86.8701C657.461 90.3261 658.085 93.3261 659.333 95.8701C660.629 98.3661 662.573 99.6141 665.165 99.6141ZM690.416 100.334C692.24 100.334 693.392 99.8301 693.872 98.8221C694.4 97.8141 694.664 96.1821 694.664 93.9261V81.8301C694.664 79.6701 694.76 77.6301 694.952 75.7101L689.912 75.9261V70.4541C692.936 70.4541 695.384 70.2381 697.256 69.8061C699.128 69.3741 700.376 68.8701 701 68.2941H704.528C704.528 68.3901 704.624 69.5901 704.816 71.8941H704.96C706.448 70.6941 708.128 69.7341 710 69.0141C711.872 68.2461 713.696 67.8621 715.472 67.8621C717.632 67.8621 719.432 68.2701 720.872 69.0861C722.36 69.8541 723.536 71.0301 724.4 72.6141C726.128 71.1741 728.048 70.0221 730.16 69.1581C732.272 68.2941 734.264 67.8621 736.136 67.8621C740.12 67.8621 743.072 69.0141 744.992 71.3181C746.96 73.6221 747.944 77.4621 747.944 82.8381V93.4221C747.944 95.7261 747.848 97.8381 747.656 99.7581C749.192 99.6141 750.752 99.5421 752.336 99.5421V105.014H734.12V100.334C735.656 100.334 736.64 99.8301 737.072 98.8221C737.504 97.7661 737.72 96.1341 737.72 93.9261V82.9101C737.672 79.8861 737.168 77.7501 736.208 76.5021C735.248 75.2061 733.856 74.5581 732.032 74.5581C729.92 74.5581 727.856 75.3501 725.84 76.9341C726.272 78.8541 726.488 81.1341 726.488 83.7741V93.4221C726.488 95.7261 726.392 97.8381 726.2 99.7581C727.736 99.6141 729.296 99.5421 730.88 99.5421V105.014H712.304V100.334C713.984 100.334 715.064 99.8301 715.544 98.8221C716.024 97.8141 716.264 96.1821 716.264 93.9261L716.192 82.6941C716.192 79.7181 715.76 77.6301 714.896 76.4301C714.032 75.1821 712.736 74.5341 711.008 74.4861C708.896 74.4861 706.856 75.3741 704.888 77.1501V93.4221C704.888 95.7261 704.792 97.8381 704.6 99.7581C706.136 99.6141 707.576 99.5421 708.92 99.5421V105.014H690.416V100.334ZM765.65 106.166C762.626 106.166 760.226 105.278 758.45 103.502C756.722 101.678 755.858 99.3741 755.858 96.5901C755.858 92.3661 757.826 89.1741 761.762 87.0141C765.698 84.8061 770.426 83.5821 775.946 83.3421V79.5981C775.946 75.2301 774.314 73.0461 771.05 73.0461C768.938 73.0461 767.21 73.7181 765.866 75.0621C766.442 75.7341 766.73 76.6461 766.73 77.7981C766.73 78.9501 766.322 79.9821 765.506 80.8941C764.738 81.8061 763.586 82.2621 762.05 82.2621C760.61 82.2621 759.482 81.8061 758.666 80.8941C757.85 79.9341 757.442 78.7581 757.442 77.3661C757.442 75.4941 758.114 73.8381 759.458 72.3981C760.802 70.9581 762.626 69.8541 764.93 69.0861C767.282 68.2701 769.85 67.8621 772.634 67.8621C781.514 67.8621 785.954 72.4461 785.954 81.6141L785.882 93.4221C785.882 95.7261 785.786 97.8381 785.594 99.7581C787.178 99.6141 788.738 99.5421 790.274 99.5421V105.014H776.666C776.57 104.39 776.474 103.286 776.378 101.702H776.306C773.378 104.678 769.826 106.166 765.65 106.166ZM770.186 99.1101C772.346 99.1101 774.242 98.2461 775.874 96.5181V88.4541C773.042 88.7421 770.69 89.4621 768.818 90.6141C766.994 91.7661 766.082 93.3261 766.082 95.2941C766.082 96.5901 766.466 97.5501 767.234 98.1741C768.05 98.7981 769.034 99.1101 770.186 99.1101ZM793.727 71.6061C794.687 70.3581 795.623 68.6301 796.535 66.4221C797.447 64.1661 797.879 62.1021 797.831 60.2301C797.399 60.3741 796.895 60.4461 796.319 60.4461C794.927 60.4461 793.751 60.0621 792.791 59.2941C791.831 58.4781 791.351 57.2781 791.351 55.6941C791.351 54.1581 791.831 52.8861 792.791 51.8781C793.799 50.8221 795.095 50.2941 796.679 50.2941C798.743 50.2941 800.327 51.0141 801.431 52.4541C802.583 53.8461 803.159 55.6461 803.159 57.8541C803.159 60.2061 802.583 62.7501 801.431 65.4861C800.327 68.2221 798.695 70.9341 796.535 73.6221L793.727 71.6061ZM823.203 106.166C821.139 106.166 819.123 105.902 817.155 105.374C815.187 104.846 813.651 104.174 812.547 103.358H812.475L812.691 105.518H807.219L806.931 93.1341H811.611C811.851 95.3421 813.003 97.2141 815.067 98.7501C817.179 100.238 819.747 100.982 822.771 100.982C824.115 100.982 825.267 100.67 826.227 100.046C827.235 99.4221 827.739 98.5341 827.739 97.3821C827.739 96.5181 827.427 95.7981 826.803 95.2221C826.179 94.6461 825.435 94.1661 824.571 93.7821C823.707 93.3981 821.979 92.7021 819.387 91.6941C816.315 90.4941 814.011 89.5101 812.475 88.7421C810.939 87.9741 809.547 86.8461 808.299 85.3581C807.099 83.8221 806.499 81.8541 806.499 79.4541C806.499 77.4861 806.979 75.6381 807.939 73.9101C808.947 72.1341 810.459 70.6941 812.475 69.5901C814.539 68.4381 817.059 67.8621 820.035 67.8621C821.427 67.8621 822.939 68.0781 824.571 68.5101C826.203 68.9421 827.571 69.5421 828.675 70.3101H828.747L828.675 68.2221H834.147V80.9661H829.467C829.035 78.4701 827.931 76.5021 826.155 75.0621C824.379 73.6221 822.195 72.9021 819.603 72.9021C818.259 72.9021 817.131 73.2141 816.219 73.8381C815.307 74.4621 814.851 75.4221 814.851 76.7181C814.851 78.0621 815.379 79.0701 816.435 79.7421C817.491 80.3661 819.267 81.0861 821.763 81.9021C822.051 81.9501 822.675 82.1421 823.635 82.4781C827.715 83.9181 830.835 85.5981 832.995 87.5181C835.203 89.4381 836.307 91.9581 836.307 95.0781C836.307 97.4781 835.683 99.5181 834.435 101.198C833.235 102.83 831.627 104.078 829.611 104.942C827.643 105.758 825.507 106.166 823.203 106.166Z" fill="#92928B"/>
<path d="M356.322 178.585C348.834 178.585 345.09 173.977 345.09 164.761L345.234 147.409H340.338V141.433C341.874 141.433 343.314 140.953 344.658 139.993C346.05 139.033 347.226 137.857 348.186 136.465C349.146 135.073 349.818 133.729 350.202 132.433H355.53L355.458 141.433H364.602V146.977L355.458 147.193L355.386 164.905C355.386 169.561 356.826 171.889 359.706 171.889C362.01 171.889 364.194 170.449 366.258 167.569L369.714 170.809C367.458 174.121 365.202 176.257 362.946 177.217C360.69 178.129 358.482 178.585 356.322 178.585ZM389.449 178.585C385.945 178.585 382.801 177.841 380.017 176.353C377.233 174.865 375.049 172.729 373.465 169.945C371.881 167.161 371.089 163.921 371.089 160.225C371.089 156.337 371.905 152.881 373.537 149.857C375.169 146.833 377.353 144.481 380.089 142.801C382.873 141.121 385.921 140.281 389.233 140.281C392.689 140.281 395.785 141.025 398.521 142.513C401.257 144.001 403.417 146.161 405.001 148.993C406.585 151.777 407.377 155.041 407.377 158.785C407.377 162.769 406.609 166.249 405.073 169.225C403.585 172.201 401.473 174.505 398.737 176.137C396.049 177.769 392.953 178.585 389.449 178.585ZM389.593 173.473C392.233 173.473 394.081 172.249 395.137 169.801C396.193 167.353 396.721 164.281 396.721 160.585C396.721 156.457 396.121 152.881 394.921 149.857C393.721 146.833 391.825 145.321 389.233 145.321C386.593 145.321 384.673 146.569 383.473 149.065C382.273 151.561 381.673 154.633 381.673 158.281C381.673 162.457 382.321 166.033 383.617 169.009C384.913 171.985 386.905 173.473 389.593 173.473ZM412.453 172.753C414.277 172.753 415.453 172.249 415.981 171.241C416.509 170.233 416.773 168.601 416.773 166.345V147.337L411.517 147.409V141.433H416.773V139.345C416.773 133.729 417.997 129.625 420.445 127.033C422.893 124.393 426.373 123.073 430.885 123.073C434.005 123.073 436.309 123.697 437.797 124.945C439.285 126.193 440.029 127.681 440.029 129.409C440.029 130.753 439.621 131.905 438.805 132.865C437.989 133.777 436.861 134.233 435.421 134.233C434.077 134.233 433.021 133.849 432.253 133.081C431.533 132.313 431.173 131.329 431.173 130.129C431.173 129.505 431.221 129.025 431.317 128.689C430.933 128.305 430.381 128.113 429.661 128.113C427.741 128.161 426.781 129.649 426.781 132.577V141.433H434.845V146.977L426.853 147.193L426.925 165.697C426.925 168.097 426.829 170.257 426.637 172.177C428.221 172.033 429.901 171.961 431.677 171.961V177.433H412.453V172.753ZM453.791 178.585C449.519 178.585 446.447 177.337 444.575 174.841C442.751 172.345 441.839 168.289 441.839 162.673V154.393C441.839 152.377 441.911 150.289 442.055 148.129L437.015 148.345V142.873C440.039 142.873 442.487 142.657 444.359 142.225C446.231 141.793 447.479 141.289 448.103 140.713H452.063V162.745C452.063 165.913 452.471 168.241 453.287 169.729C454.103 171.217 455.399 171.961 457.175 171.961C458.375 171.961 459.599 171.625 460.847 170.953C462.143 170.281 463.223 169.465 464.087 168.505V154.393C464.087 152.137 464.183 150.049 464.375 148.129L459.335 148.345V142.873C462.359 142.873 464.783 142.657 466.607 142.225C468.479 141.793 469.727 141.289 470.351 140.713H474.311V165.841C474.311 168.145 474.215 170.257 474.023 172.177C475.559 172.033 477.119 171.961 478.703 171.961V177.433H465.023L464.591 173.689H464.519C462.743 175.225 461.015 176.425 459.335 177.289C457.703 178.153 455.855 178.585 453.791 178.585Z" fill="#92928B"/>
</g>
<defs>
<clipPath id="clip0">
<rect width="850" height="200" fill="white"/>
</clipPath>
</defs>
</svg>
