<svg width="535" height="150" viewBox="0 0 535 150" fill="none" xmlns="http://www.w3.org/2000/svg">
<g clip-path="url(#clip0)">
<path d="M17.0115 73.152C14.9475 73.152 12.9315 72.888 10.9635 72.36C8.99545 71.832 7.45945 71.16 6.35545 70.344H6.28345L6.49945 72.504H1.02745L0.739451 60.12H5.41945C5.65945 62.328 6.81145 64.2 8.87545 65.736C10.9875 67.224 13.5555 67.968 16.5795 67.968C17.9235 67.968 19.0755 67.656 20.0355 67.032C21.0435 66.408 21.5475 65.52 21.5475 64.368C21.5475 63.504 21.2355 62.784 20.6115 62.208C19.9875 61.632 19.2435 61.152 18.3795 60.768C17.5155 60.384 15.7875 59.688 13.1955 58.68C10.1235 57.48 7.81945 56.496 6.28345 55.728C4.74745 54.96 3.35545 53.832 2.10745 52.344C0.907451 50.808 0.307451 48.84 0.307451 46.44C0.307451 44.472 0.787451 42.624 1.74745 40.896C2.75545 39.12 4.26745 37.68 6.28345 36.576C8.34745 35.424 10.8675 34.848 13.8435 34.848C15.2355 34.848 16.7475 35.064 18.3795 35.496C20.0115 35.928 21.3795 36.528 22.4835 37.296H22.5555L22.4835 35.208H27.9555V47.952H23.2755C22.8435 45.456 21.7395 43.488 19.9635 42.048C18.1875 40.608 16.0035 39.888 13.4115 39.888C12.0675 39.888 10.9395 40.2 10.0275 40.824C9.11545 41.448 8.65945 42.408 8.65945 43.704C8.65945 45.048 9.18745 46.056 10.2435 46.728C11.2995 47.352 13.0755 48.072 15.5715 48.888C15.8595 48.936 16.4835 49.128 17.4435 49.464C21.5235 50.904 24.6435 52.584 26.8035 54.504C29.0115 56.424 30.1155 58.944 30.1155 62.064C30.1155 64.464 29.4915 66.504 28.2435 68.184C27.0435 69.816 25.4355 71.064 23.4195 71.928C21.4515 72.744 19.3155 73.152 17.0115 73.152ZM45.5488 28.872C43.9168 28.872 42.5728 28.32 41.5168 27.216C40.4608 26.064 39.9328 24.672 39.9328 23.04C39.9328 21.408 40.4848 20.016 41.5888 18.864C42.6928 17.664 43.9888 17.064 45.4768 17.064C47.0128 17.064 48.2848 17.64 49.2928 18.792C50.3488 19.944 50.8768 21.36 50.8768 23.04C50.8768 24.72 50.3728 26.112 49.3648 27.216C48.4048 28.32 47.1328 28.872 45.5488 28.872ZM35.3968 67.32C37.2208 67.32 38.3728 66.816 38.8528 65.808C39.3808 64.8 39.6448 63.168 39.6448 60.912V48.96C39.6448 46.704 39.7408 44.616 39.9328 42.696L34.8928 42.912V37.44C37.9168 37.44 40.3648 37.224 42.2368 36.792C44.1088 36.36 45.3568 35.856 45.9808 35.28H49.8688V60.408C49.8688 62.712 49.7728 64.824 49.5808 66.744C51.1168 66.6 52.6768 66.528 54.2608 66.528V72H35.3968V67.32ZM75.9435 73.152C72.6795 73.152 69.7035 72.432 67.0155 70.992C64.3275 69.504 62.1915 67.392 60.6075 64.656C59.0235 61.872 58.2315 58.584 58.2315 54.792C58.2315 51.192 59.0235 47.88 60.6075 44.856C62.1915 41.784 64.3995 39.36 67.2315 37.584C70.1115 35.76 73.3515 34.848 76.9515 34.848C79.8795 34.848 82.3755 35.304 84.4395 36.216C86.5515 37.128 88.1355 38.352 89.1915 39.888C90.2475 41.376 90.7755 42.984 90.7755 44.712C90.7755 46.2 90.3195 47.472 89.4075 48.528C88.5435 49.584 87.3435 50.112 85.8075 50.112C84.2235 50.112 83.0235 49.632 82.2075 48.672C81.4395 47.712 81.0555 46.632 81.0555 45.432C81.0555 44.328 81.3435 43.272 81.9195 42.264C81.4875 41.4 80.7915 40.8 79.8315 40.464C78.8715 40.08 77.9115 39.888 76.9515 39.888C74.5035 39.888 72.5115 41.016 70.9755 43.272C69.4875 45.48 68.7435 48.624 68.7435 52.704C68.7435 56.784 69.5355 60.144 71.1195 62.784C72.7035 65.424 75.1995 66.744 78.6075 66.744C80.5275 66.744 82.4235 66.24 84.2955 65.232C86.1675 64.224 87.7515 62.88 89.0475 61.2L92.3595 64.44C89.9595 67.752 87.3915 70.032 84.6555 71.28C81.9195 72.528 79.0155 73.152 75.9435 73.152ZM95.0651 67.32C96.3611 67.32 97.2971 67.08 97.8731 66.6C98.4971 66.072 98.8811 65.376 99.0251 64.512C99.2171 63.648 99.3131 62.448 99.3131 60.912V31.32C99.3131 29.016 99.4091 26.928 99.6011 25.056L94.5611 25.272V19.8C97.5851 19.8 100.033 19.584 101.905 19.152C103.777 18.72 105.025 18.216 105.649 17.64H109.537V38.88C110.929 37.776 112.657 36.84 114.721 36.072C116.785 35.256 118.561 34.848 120.049 34.848C124.369 34.848 127.465 36.096 129.337 38.592C131.209 41.088 132.169 45.144 132.217 50.76V60.408C132.217 62.712 132.121 64.824 131.929 66.744C133.465 66.6 135.025 66.528 136.609 66.528V72H117.673V67.32C119.497 67.32 120.673 66.816 121.201 65.808C121.729 64.8 121.993 63.168 121.993 60.912L121.921 50.688C121.921 47.52 121.441 45.192 120.481 43.704C119.569 42.216 118.105 41.472 116.089 41.472C114.937 41.472 113.761 41.736 112.561 42.264C111.361 42.744 110.353 43.368 109.537 44.136V60.408C109.537 62.712 109.441 64.824 109.249 66.744C110.833 66.6 112.393 66.528 113.929 66.528V72H95.0651V67.32ZM155.488 73.152C151.216 73.152 148.144 71.904 146.272 69.408C144.448 66.912 143.536 62.856 143.536 57.24V48.96C143.536 46.944 143.608 44.856 143.752 42.696L138.712 42.912V37.44C141.736 37.44 144.184 37.224 146.056 36.792C147.928 36.36 149.176 35.856 149.8 35.28H153.76V57.312C153.76 60.48 154.168 62.808 154.984 64.296C155.8 65.784 157.096 66.528 158.872 66.528C160.072 66.528 161.296 66.192 162.544 65.52C163.84 64.848 164.92 64.032 165.784 63.072V48.96C165.784 46.704 165.88 44.616 166.072 42.696L161.032 42.912V37.44C164.056 37.44 166.48 37.224 168.304 36.792C170.176 36.36 171.424 35.856 172.048 35.28H176.008V60.408C176.008 62.712 175.912 64.824 175.72 66.744C177.256 66.6 178.816 66.528 180.4 66.528V72H166.72L166.288 68.256H166.216C164.44 69.792 162.712 70.992 161.032 71.856C159.4 72.72 157.552 73.152 155.488 73.152ZM194.092 73.152C191.068 73.152 188.668 72.264 186.892 70.488C185.164 68.664 184.3 66.36 184.3 63.576C184.3 59.352 186.268 56.16 190.204 54C194.14 51.792 198.868 50.568 204.388 50.328V46.584C204.388 42.216 202.756 40.032 199.492 40.032C197.38 40.032 195.652 40.704 194.308 42.048C194.884 42.72 195.172 43.632 195.172 44.784C195.172 45.936 194.764 46.968 193.948 47.88C193.18 48.792 192.028 49.248 190.492 49.248C189.052 49.248 187.924 48.792 187.108 47.88C186.292 46.92 185.884 45.744 185.884 44.352C185.884 42.48 186.556 40.824 187.9 39.384C189.244 37.944 191.068 36.84 193.372 36.072C195.724 35.256 198.292 34.848 201.076 34.848C209.956 34.848 214.396 39.432 214.396 48.6L214.324 60.408C214.324 62.712 214.228 64.824 214.036 66.744C215.62 66.6 217.18 66.528 218.716 66.528V72H205.108C205.012 71.376 204.916 70.272 204.82 68.688H204.748C201.82 71.664 198.268 73.152 194.092 73.152ZM198.628 66.096C200.788 66.096 202.684 65.232 204.316 63.504V55.44C201.484 55.728 199.132 56.448 197.26 57.6C195.436 58.752 194.524 60.312 194.524 62.28C194.524 63.576 194.908 64.536 195.676 65.16C196.492 65.784 197.476 66.096 198.628 66.096ZM222.85 67.32C224.674 67.32 225.826 66.816 226.306 65.808C226.834 64.8 227.098 63.168 227.098 60.912V48.816C227.098 46.656 227.194 44.616 227.386 42.696L222.346 42.912V37.44C225.37 37.44 227.818 37.224 229.69 36.792C231.562 36.36 232.81 35.856 233.434 35.28H236.962C236.962 35.376 237.058 36.576 237.25 38.88H237.394C238.786 37.776 240.49 36.84 242.506 36.072C244.57 35.256 246.322 34.848 247.762 34.848C252.13 34.848 255.25 36.096 257.122 38.592C258.994 41.088 259.93 45.144 259.93 50.76V60.408C259.93 62.712 259.834 64.824 259.642 66.744C261.226 66.6 262.786 66.528 264.322 66.528V72H245.458V67.32C247.282 67.32 248.458 66.816 248.986 65.808C249.514 64.8 249.778 63.168 249.778 60.912L249.706 50.688C249.706 47.52 249.25 45.192 248.338 43.704C247.474 42.216 245.986 41.472 243.874 41.472C242.722 41.472 241.546 41.736 240.346 42.264C239.146 42.744 238.138 43.368 237.322 44.136V60.408C237.322 62.712 237.226 64.824 237.034 66.744C238.57 66.6 240.13 66.528 241.714 66.528V72H222.85V67.32ZM304.529 73.152C301.265 73.152 298.289 72.432 295.601 70.992C292.913 69.504 290.777 67.392 289.193 64.656C287.609 61.872 286.817 58.584 286.817 54.792C286.817 51.192 287.609 47.88 289.193 44.856C290.777 41.784 292.985 39.36 295.817 37.584C298.697 35.76 301.937 34.848 305.537 34.848C308.465 34.848 310.961 35.304 313.025 36.216C315.137 37.128 316.721 38.352 317.777 39.888C318.833 41.376 319.361 42.984 319.361 44.712C319.361 46.2 318.905 47.472 317.993 48.528C317.129 49.584 315.929 50.112 314.393 50.112C312.809 50.112 311.609 49.632 310.793 48.672C310.025 47.712 309.641 46.632 309.641 45.432C309.641 44.328 309.929 43.272 310.505 42.264C310.073 41.4 309.377 40.8 308.417 40.464C307.457 40.08 306.497 39.888 305.537 39.888C303.089 39.888 301.097 41.016 299.561 43.272C298.073 45.48 297.329 48.624 297.329 52.704C297.329 56.784 298.121 60.144 299.705 62.784C301.289 65.424 303.785 66.744 307.193 66.744C309.113 66.744 311.009 66.24 312.881 65.232C314.753 64.224 316.337 62.88 317.633 61.2L320.945 64.44C318.545 67.752 315.977 70.032 313.241 71.28C310.505 72.528 307.601 73.152 304.529 73.152ZM339.707 73.152C335.435 73.152 332.363 71.904 330.491 69.408C328.667 66.912 327.755 62.856 327.755 57.24V48.96C327.755 46.944 327.827 44.856 327.971 42.696L322.931 42.912V37.44C325.955 37.44 328.403 37.224 330.275 36.792C332.147 36.36 333.395 35.856 334.019 35.28H337.979V57.312C337.979 60.48 338.387 62.808 339.203 64.296C340.019 65.784 341.315 66.528 343.091 66.528C344.291 66.528 345.515 66.192 346.763 65.52C348.059 64.848 349.139 64.032 350.003 63.072V48.96C350.003 46.704 350.099 44.616 350.291 42.696L345.251 42.912V37.44C348.275 37.44 350.699 37.224 352.523 36.792C354.395 36.36 355.643 35.856 356.267 35.28H360.227V60.408C360.227 62.712 360.131 64.824 359.939 66.744C361.475 66.6 363.035 66.528 364.619 66.528V72H350.939L350.507 68.256H350.435C348.659 69.792 346.931 70.992 345.251 71.856C343.619 72.72 341.771 73.152 339.707 73.152ZM379.463 28.872C377.831 28.872 376.487 28.32 375.431 27.216C374.375 26.064 373.847 24.672 373.847 23.04C373.847 21.408 374.399 20.016 375.503 18.864C376.607 17.664 377.903 17.064 379.391 17.064C380.927 17.064 382.199 17.64 383.207 18.792C384.263 19.944 384.791 21.36 384.791 23.04C384.791 24.72 384.287 26.112 383.279 27.216C382.319 28.32 381.047 28.872 379.463 28.872ZM369.311 67.32C371.135 67.32 372.287 66.816 372.767 65.808C373.295 64.8 373.559 63.168 373.559 60.912V48.96C373.559 46.704 373.655 44.616 373.847 42.696L368.807 42.912V37.44C371.831 37.44 374.279 37.224 376.151 36.792C378.023 36.36 379.271 35.856 379.895 35.28H383.783V60.408C383.783 62.712 383.687 64.824 383.495 66.744C385.031 66.6 386.591 66.528 388.175 66.528V72H369.311V67.32ZM409.426 73.152C407.362 73.152 405.346 72.888 403.378 72.36C401.41 71.832 399.874 71.16 398.77 70.344H398.698L398.914 72.504H393.442L393.154 60.12H397.834C398.074 62.328 399.226 64.2 401.29 65.736C403.402 67.224 405.97 67.968 408.994 67.968C410.338 67.968 411.49 67.656 412.45 67.032C413.458 66.408 413.962 65.52 413.962 64.368C413.962 63.504 413.65 62.784 413.026 62.208C412.402 61.632 411.658 61.152 410.794 60.768C409.93 60.384 408.202 59.688 405.61 58.68C402.538 57.48 400.234 56.496 398.698 55.728C397.162 54.96 395.77 53.832 394.522 52.344C393.322 50.808 392.722 48.84 392.722 46.44C392.722 44.472 393.202 42.624 394.162 40.896C395.17 39.12 396.682 37.68 398.698 36.576C400.762 35.424 403.282 34.848 406.258 34.848C407.65 34.848 409.162 35.064 410.794 35.496C412.426 35.928 413.794 36.528 414.898 37.296H414.97L414.898 35.208H420.37V47.952H415.69C415.258 45.456 414.154 43.488 412.378 42.048C410.602 40.608 408.418 39.888 405.826 39.888C404.482 39.888 403.354 40.2 402.442 40.824C401.53 41.448 401.074 42.408 401.074 43.704C401.074 45.048 401.602 46.056 402.658 46.728C403.714 47.352 405.49 48.072 407.986 48.888C408.274 48.936 408.898 49.128 409.858 49.464C413.938 50.904 417.058 52.584 419.218 54.504C421.426 56.424 422.53 58.944 422.53 62.064C422.53 64.464 421.906 66.504 420.658 68.184C419.458 69.816 417.85 71.064 415.834 71.928C413.866 72.744 411.73 73.152 409.426 73.152ZM437.963 28.872C436.331 28.872 434.987 28.32 433.931 27.216C432.875 26.064 432.347 24.672 432.347 23.04C432.347 21.408 432.899 20.016 434.003 18.864C435.107 17.664 436.403 17.064 437.891 17.064C439.427 17.064 440.699 17.64 441.707 18.792C442.763 19.944 443.291 21.36 443.291 23.04C443.291 24.72 442.787 26.112 441.779 27.216C440.819 28.32 439.547 28.872 437.963 28.872ZM427.811 67.32C429.635 67.32 430.787 66.816 431.267 65.808C431.795 64.8 432.059 63.168 432.059 60.912V48.96C432.059 46.704 432.155 44.616 432.347 42.696L427.307 42.912V37.44C430.331 37.44 432.779 37.224 434.651 36.792C436.523 36.36 437.771 35.856 438.395 35.28H442.283V60.408C442.283 62.712 442.187 64.824 441.995 66.744C443.531 66.6 445.091 66.528 446.675 66.528V72H427.811V67.32ZM451.366 67.32C453.19 67.32 454.342 66.816 454.822 65.808C455.35 64.8 455.614 63.168 455.614 60.912V48.816C455.614 46.656 455.71 44.616 455.902 42.696L450.862 42.912V37.44C453.886 37.44 456.334 37.224 458.206 36.792C460.078 36.36 461.326 35.856 461.95 35.28H465.478C465.478 35.376 465.574 36.576 465.766 38.88H465.91C467.302 37.776 469.006 36.84 471.022 36.072C473.086 35.256 474.838 34.848 476.278 34.848C480.646 34.848 483.766 36.096 485.638 38.592C487.51 41.088 488.446 45.144 488.446 50.76V60.408C488.446 62.712 488.35 64.824 488.158 66.744C489.742 66.6 491.302 66.528 492.838 66.528V72H473.974V67.32C475.798 67.32 476.974 66.816 477.502 65.808C478.03 64.8 478.294 63.168 478.294 60.912L478.222 50.688C478.222 47.52 477.766 45.192 476.854 43.704C475.99 42.216 474.502 41.472 472.39 41.472C471.238 41.472 470.062 41.736 468.862 42.264C467.662 42.744 466.654 43.368 465.838 44.136V60.408C465.838 62.712 465.742 64.824 465.55 66.744C467.086 66.6 468.646 66.528 470.23 66.528V72H451.366V67.32ZM514.203 73.152C510.699 73.152 507.603 72.384 504.915 70.848C502.227 69.264 500.139 67.032 498.651 64.152C497.163 61.272 496.419 57.912 496.419 54.072C496.419 50.712 497.163 47.568 498.651 44.64C500.187 41.664 502.323 39.288 505.059 37.512C507.795 35.736 510.915 34.848 514.419 34.848C519.075 34.848 522.939 36.216 526.011 38.952C529.131 41.688 530.667 46.248 530.619 52.632L507.003 53.064C507.003 57.288 507.795 60.624 509.379 63.072C511.011 65.52 513.603 66.744 517.155 66.744C518.835 66.744 520.635 66.312 522.555 65.448C524.475 64.584 526.203 63.216 527.739 61.344L530.979 64.368C526.899 70.224 521.307 73.152 514.203 73.152ZM520.683 48.024C520.539 42.6 518.571 39.888 514.779 39.888C512.715 39.888 511.059 40.632 509.811 42.12C508.611 43.56 507.819 45.528 507.435 48.024H520.683Z" fill="#92928B"/>
<path d="M231.362 137.23C232.058 137.23 232.55 137.05 232.838 136.69C233.15 136.354 233.33 135.922 233.378 135.394C233.426 134.89 233.462 134.038 233.486 132.838L233.558 115.45C233.558 114.442 233.606 113.662 233.702 113.11L231.146 113.254V111.742C232.562 111.742 233.534 111.67 234.062 111.526C234.59 111.358 235.022 111.106 235.358 110.77H236.438C236.534 111.946 236.582 112.594 236.582 112.714C237.302 112.066 238.166 111.55 239.174 111.166C240.182 110.758 241.178 110.554 242.162 110.554C243.578 110.554 244.886 110.926 246.086 111.67C247.286 112.39 248.246 113.434 248.966 114.802C249.71 116.146 250.082 117.706 250.082 119.482C250.082 121.474 249.662 123.25 248.822 124.81C247.982 126.346 246.854 127.546 245.438 128.41C244.046 129.274 242.534 129.706 240.902 129.706C239.246 129.706 237.806 129.31 236.582 128.518V134.494C236.582 135.574 236.534 136.39 236.438 136.942L238.706 136.834V138.31H231.362V137.23ZM240.83 128.266C241.958 128.266 242.93 127.918 243.746 127.222C244.586 126.526 245.234 125.554 245.69 124.306C246.146 123.058 246.374 121.642 246.374 120.058C246.374 117.898 245.906 116.074 244.97 114.586C244.058 113.074 242.69 112.318 240.866 112.318C240.074 112.318 239.306 112.51 238.562 112.894C237.818 113.278 237.17 113.758 236.618 114.334C236.642 114.502 236.654 115.234 236.654 116.53L236.618 126.862C237.842 127.798 239.246 128.266 240.83 128.266ZM258.207 129.706C256.455 129.706 255.111 129.31 254.175 128.518C253.263 127.726 252.807 126.694 252.807 125.422C252.807 124.03 253.359 122.854 254.463 121.894C255.591 120.934 256.995 120.226 258.675 119.77C260.379 119.29 262.083 119.062 263.787 119.086V116.854C263.787 115.294 263.559 114.082 263.103 113.218C262.647 112.33 261.675 111.886 260.187 111.886C259.443 111.886 258.735 112.042 258.063 112.354C257.391 112.666 256.899 113.134 256.587 113.758C256.899 114.094 257.055 114.55 257.055 115.126C257.055 115.486 256.923 115.834 256.659 116.17C256.395 116.482 256.011 116.638 255.507 116.638C255.003 116.638 254.607 116.482 254.319 116.17C254.031 115.834 253.887 115.402 253.887 114.874C253.887 114.082 254.187 113.362 254.787 112.714C255.411 112.042 256.263 111.514 257.343 111.13C258.447 110.746 259.671 110.554 261.015 110.554C263.031 110.554 264.519 111.094 265.479 112.174C266.439 113.23 266.907 114.91 266.883 117.214L266.847 125.314C266.847 126.082 266.799 126.898 266.703 127.762L269.259 127.618V129.13H264.111C264.039 128.77 263.955 128.086 263.859 127.078C262.107 128.83 260.223 129.706 258.207 129.706ZM259.035 127.654C259.947 127.654 260.775 127.486 261.519 127.15C262.263 126.79 263.019 126.25 263.787 125.53C263.763 125.17 263.751 124.558 263.751 123.694L263.787 120.31C261.819 120.382 260.067 120.79 258.531 121.534C256.995 122.254 256.227 123.37 256.227 124.882C256.227 125.77 256.491 126.454 257.019 126.934C257.547 127.414 258.219 127.654 259.035 127.654ZM271.729 128.05C272.425 128.05 272.917 127.882 273.205 127.546C273.517 127.186 273.697 126.742 273.745 126.214C273.817 125.662 273.853 124.81 273.853 123.658V115.45C273.853 114.442 273.901 113.662 273.997 113.11L271.441 113.218V111.742H272.557C273.469 111.742 274.129 111.67 274.537 111.526C274.945 111.358 275.329 111.106 275.689 110.77H276.733C276.829 111.706 276.889 112.894 276.913 114.334C277.513 113.35 278.365 112.474 279.469 111.706C280.597 110.938 281.761 110.554 282.961 110.554C283.681 110.554 284.281 110.746 284.761 111.13C285.241 111.514 285.481 112.078 285.481 112.822C285.481 113.206 285.325 113.59 285.013 113.974C284.725 114.358 284.305 114.55 283.753 114.55C283.225 114.55 282.793 114.358 282.457 113.974C282.121 113.566 281.989 113.086 282.061 112.534C281.149 112.51 280.225 112.858 279.289 113.578C278.377 114.298 277.597 115.258 276.949 116.458L276.985 125.314C276.985 126.394 276.937 127.21 276.841 127.762L279.109 127.654V129.13H271.729V128.05ZM294.317 129.706C291.029 129.706 289.397 127.498 289.421 123.082L289.493 112.642L286.721 112.678V111.13C287.873 111.106 288.845 110.59 289.637 109.582C290.453 108.55 291.053 107.386 291.437 106.09H292.661V111.13H298.709V112.534L292.661 112.606C292.637 116.278 292.613 118.822 292.589 120.238C292.589 121.654 292.589 122.446 292.589 122.614C292.589 124.318 292.793 125.59 293.201 126.43C293.609 127.246 294.317 127.654 295.325 127.654C295.949 127.654 296.561 127.462 297.161 127.078C297.785 126.694 298.325 126.166 298.781 125.494L299.753 126.286C298.817 127.678 297.893 128.602 296.981 129.058C296.069 129.49 295.181 129.706 294.317 129.706ZM314.492 107.206C313.988 107.206 313.544 107.002 313.16 106.594C312.776 106.162 312.584 105.658 312.584 105.082C312.584 104.506 312.776 104.002 313.16 103.57C313.568 103.138 314.024 102.922 314.528 102.922C315.08 102.922 315.536 103.138 315.896 103.57C316.28 103.978 316.472 104.482 316.472 105.082C316.472 105.658 316.268 106.162 315.86 106.594C315.476 107.002 315.02 107.206 314.492 107.206ZM310.928 128.05C311.624 128.05 312.116 127.882 312.404 127.546C312.716 127.186 312.896 126.742 312.944 126.214C313.016 125.662 313.052 124.81 313.052 123.658V115.45C313.052 114.754 313.1 113.974 313.196 113.11L310.64 113.254V111.742C312.056 111.742 313.064 111.658 313.664 111.49C314.288 111.322 314.768 111.082 315.104 110.77H316.148V125.314C316.148 126.394 316.1 127.21 316.004 127.762L318.272 127.654V129.13H310.928V128.05Z" fill="#92BCE4"/>
</g>
<defs>
<clipPath id="clip0">
<rect width="535" height="150" fill="white"/>
</clipPath>
</defs>
</svg>
