<svg width="486" height="56" viewBox="0 0 486 56" fill="none" xmlns="http://www.w3.org/2000/svg">
<path d="M11.5547 14.406C13.0307 14.406 14.4707 14.658 15.8747 15.162C17.2787 15.63 18.4127 16.314 19.2767 17.214C20.1767 18.114 20.6267 19.158 20.6267 20.346C20.6267 21.318 20.3027 22.164 19.6547 22.884C19.0427 23.568 18.2327 23.91 17.2247 23.91C16.2887 23.91 15.5147 23.586 14.9027 22.938C14.2907 22.29 13.9847 21.516 13.9847 20.616C13.9847 20.04 14.0927 19.518 14.3087 19.05C14.0207 18.69 13.5887 18.42 13.0127 18.24C12.4367 18.06 11.8787 17.97 11.3387 17.97C10.4747 17.97 9.64666 18.24 8.85466 18.78C8.09866 19.284 7.72066 19.95 7.72066 20.778C7.72066 21.318 7.82866 21.768 8.04466 22.128C8.29666 22.488 8.74666 22.902 9.39466 23.37C10.0787 23.838 11.1947 24.522 12.7427 25.422C14.5787 26.466 15.9827 27.33 16.9547 28.014C17.9627 28.698 18.8447 29.58 19.6007 30.66C20.3927 31.704 20.7887 32.91 20.7887 34.278C20.7887 35.862 20.3027 37.284 19.3307 38.544C18.3587 39.804 17.0267 40.794 15.3347 41.514C13.6787 42.234 11.8247 42.594 9.77266 42.594C7.10866 42.594 4.82266 42.018 2.91466 40.866C1.04266 39.714 0.106656 38.202 0.106656 36.33C0.106656 35.25 0.430656 34.35 1.07866 33.63C1.76266 32.91 2.59066 32.55 3.56266 32.55C4.53466 32.55 5.32666 32.874 5.93866 33.522C6.55066 34.17 6.85666 34.962 6.85666 35.898C6.85666 36.438 6.74866 36.978 6.53266 37.518C6.71266 37.878 7.18066 38.22 7.93666 38.544C8.69266 38.868 9.35866 39.03 9.93466 39.03C11.4107 39.03 12.4907 38.724 13.1747 38.112C13.8587 37.464 14.2007 36.654 14.2007 35.682C14.2007 35.07 13.9487 34.494 13.4447 33.954C12.9767 33.414 12.3107 32.874 11.4467 32.334C10.5827 31.794 9.68266 31.272 8.74666 30.768C5.97466 29.184 4.03066 27.816 2.91466 26.664C1.83466 25.476 1.29466 23.982 1.29466 22.182C1.29466 20.886 1.69066 19.644 2.48266 18.456C3.31066 17.268 4.49866 16.296 6.04666 15.54C7.63066 14.784 9.46666 14.406 11.5547 14.406ZM33.3863 0.797999C34.5383 0.797999 35.4743 1.212 36.1943 2.04C36.9143 2.832 37.2743 3.84 37.2743 5.064C37.2743 6.36 36.8603 7.458 36.0323 8.358C35.2403 9.222 34.2503 9.654 33.0623 9.654C31.8743 9.654 30.9023 9.258 30.1463 8.466C29.4263 7.674 29.0663 6.684 29.0663 5.496C29.0663 4.236 29.4983 3.138 30.3623 2.202C31.2623 1.266 32.2703 0.797999 33.3863 0.797999ZM31.4963 14.406C33.2963 14.406 34.5743 14.946 35.3303 16.026C36.1223 17.106 36.5183 18.654 36.5183 20.67C36.5183 21.75 36.3743 23.388 36.0863 25.584C35.7983 27.744 35.6183 29.13 35.5463 29.742C35.4743 30.21 35.3303 31.254 35.1143 32.874C34.8983 34.458 34.7903 35.556 34.7903 36.168C34.7903 37.104 35.0603 37.572 35.6003 37.572C36.5723 37.572 37.4543 36.15 38.2463 33.306L41.1623 34.17C40.9463 35.358 40.4783 36.6 39.7583 37.896C39.0383 39.192 38.1023 40.308 36.9503 41.244C35.7983 42.144 34.4663 42.594 32.9543 42.594C31.0463 42.594 29.6963 42.09 28.9043 41.082C28.1483 40.074 27.7703 38.544 27.7703 36.492C27.7703 34.872 28.0943 32.01 28.7423 27.906C29.2823 24.378 29.5523 22.02 29.5523 20.832C29.5523 19.896 29.2643 19.428 28.6883 19.428C27.7523 19.428 26.8883 20.85 26.0963 23.694L23.1803 22.83C23.3963 21.678 23.8643 20.454 24.5843 19.158C25.3403 17.826 26.2943 16.71 27.4463 15.81C28.6343 14.874 29.9843 14.406 31.4963 14.406ZM56.3768 14.406C58.8968 14.406 60.9848 15 62.6408 16.188C64.2968 17.376 65.1248 18.942 65.1248 20.886C65.1248 22.002 64.8008 22.902 64.1528 23.586C63.5048 24.27 62.6408 24.612 61.5608 24.612C60.4808 24.612 59.6708 24.27 59.1308 23.586C58.5908 22.902 58.3208 22.182 58.3208 21.426C58.3208 20.598 58.5008 19.842 58.8608 19.158C58.6808 18.834 58.3568 18.564 57.8888 18.348C57.4208 18.096 56.8808 17.97 56.2688 17.97C54.1448 17.97 52.6508 19.266 51.7868 21.858C50.9228 24.414 50.4908 27.168 50.4908 30.12C50.4908 32.748 50.9768 34.656 51.9488 35.844C52.9568 37.032 54.1268 37.626 55.4588 37.626C56.6828 37.626 57.9068 37.212 59.1308 36.384C60.3548 35.556 61.4348 34.098 62.3708 32.01L65.4488 33.522C64.0088 36.834 62.2988 39.174 60.3188 40.542C58.3748 41.874 56.1608 42.558 53.6768 42.594C50.4008 42.558 47.8088 41.568 45.9008 39.624C44.0288 37.644 43.0928 34.71 43.0928 30.822C43.0928 28.338 43.5968 25.836 44.6048 23.316C45.6128 20.76 47.1248 18.636 49.1408 16.944C51.1568 15.252 53.5688 14.406 56.3768 14.406ZM79.1538 4.2C78.7938 7.368 78.4698 10.05 78.1818 12.246C78.0738 13.29 77.8758 14.856 77.5878 16.944C77.3358 19.032 77.0298 20.904 76.6698 22.56H76.7238C77.8758 19.572 79.2438 17.466 80.8278 16.242C82.4478 15.018 84.1578 14.406 85.9578 14.406C88.1898 14.406 89.8458 15.144 90.9258 16.62C92.0058 18.06 92.5458 20.094 92.5458 22.722C92.5458 24.018 92.3298 26.25 91.8978 29.418C91.4298 32.37 91.1958 34.62 91.1958 36.168C91.1958 37.104 91.4658 37.572 92.0058 37.572C92.9418 37.572 93.8058 36.15 94.5978 33.306L97.5138 34.17C97.2978 35.358 96.8298 36.6 96.1098 37.896C95.4258 39.192 94.5078 40.308 93.3558 41.244C92.2038 42.144 90.8718 42.594 89.3598 42.594C87.4518 42.594 86.1198 42.09 85.3638 41.082C84.6078 40.074 84.2298 38.544 84.2298 36.492C84.2298 34.872 84.4818 32.118 84.9858 28.23C85.0578 27.618 85.1658 26.574 85.3098 25.098C85.4898 23.586 85.5798 22.434 85.5798 21.642C85.5798 20.814 85.4538 20.238 85.2018 19.914C84.9858 19.554 84.6078 19.374 84.0678 19.374C83.0238 19.374 81.9078 20.4 80.7198 22.452C79.5318 24.504 78.5238 27.024 77.6958 30.012C76.9038 32.964 76.5078 35.664 76.5078 38.112C76.5078 38.976 76.5618 40.272 76.6698 42H69.7578C69.6498 40.992 69.5958 40.128 69.5958 39.408C69.5958 35.268 69.7578 30.534 70.0818 25.206C70.4418 19.878 70.8378 15.414 71.2698 11.814C71.4498 9.762 71.6838 8.088 71.9718 6.792L68.1918 6.954L68.4078 2.85C70.6758 2.85 72.4938 2.688 73.8618 2.364C75.2298 2.04 76.1478 1.662 76.6158 1.23H79.5318L79.1538 4.2ZM105.95 14.406C107.858 14.406 109.19 14.91 109.946 15.918C110.702 16.926 111.08 18.456 111.08 20.508C111.08 22.128 110.828 24.882 110.324 28.77C109.892 32.226 109.676 34.422 109.676 35.358C109.676 36.15 109.784 36.726 110 37.086C110.252 37.446 110.648 37.626 111.188 37.626C112.16 37.626 113.204 36.6 114.32 34.548C115.472 32.496 116.426 29.994 117.182 27.042C117.974 24.054 118.37 21.336 118.37 18.888C118.37 17.16 118.316 15.864 118.208 15H125.174C125.282 16.008 125.336 16.872 125.336 17.592C125.336 18.744 125.21 20.436 124.958 22.668C124.706 24.864 124.436 27.024 124.148 29.148C123.608 33.072 123.338 35.412 123.338 36.168C123.338 37.104 123.59 37.572 124.094 37.572C125.03 37.572 125.894 36.15 126.686 33.306L129.602 34.17C129.206 36.294 128.432 38.238 127.28 40.002C126.128 41.73 124.508 42.594 122.42 42.594C121.088 42.594 119.99 42.216 119.126 41.46C118.298 40.704 117.884 39.444 117.884 37.68C117.884 37.032 117.92 36.384 117.992 35.736C118.064 35.052 118.118 34.53 118.154 34.17H118.1C115.976 39.786 113.024 42.594 109.244 42.594C107.012 42.594 105.374 41.874 104.33 40.434C103.286 38.958 102.764 36.906 102.764 34.278C102.764 33.126 102.872 31.794 103.088 30.282C103.304 28.77 103.43 27.852 103.466 27.528C103.934 24.576 104.168 22.344 104.168 20.832C104.168 19.896 103.88 19.428 103.304 19.428C102.368 19.428 101.504 20.85 100.712 23.694L97.7956 22.83C98.0116 21.642 98.4616 20.4 99.1456 19.104C99.8656 17.808 100.802 16.71 101.954 15.81C103.106 14.874 104.438 14.406 105.95 14.406ZM147.781 14.406C149.761 14.406 152.353 14.784 155.557 15.54L155.125 18.402C155.053 19.05 154.693 21.678 154.045 26.286C153.397 30.894 153.073 34.134 153.073 36.006C153.073 37.05 153.325 37.572 153.829 37.572C154.873 37.572 155.791 36.15 156.583 33.306L159.499 34.17C159.103 36.222 158.275 38.148 157.015 39.948C155.791 41.712 154.117 42.594 151.993 42.594C149.113 42.594 147.673 40.956 147.673 37.68C147.673 36.42 147.745 35.376 147.889 34.548H147.835C146.611 37.5 145.225 39.588 143.677 40.812C142.129 42 140.455 42.594 138.655 42.594C136.567 42.594 134.839 41.766 133.471 40.11C132.139 38.418 131.473 35.97 131.473 32.766C131.473 29.418 132.121 26.358 133.417 23.586C134.713 20.778 136.585 18.546 139.033 16.89C141.517 15.234 144.433 14.406 147.781 14.406ZM145.783 17.97C143.695 17.97 142.021 19.284 140.761 21.912C139.501 24.504 138.871 28.212 138.871 33.036C138.871 34.512 139.051 35.682 139.411 36.546C139.771 37.374 140.275 37.788 140.923 37.788C142.147 37.788 143.263 36.78 144.271 34.764C145.315 32.712 146.161 30.174 146.809 27.15C147.457 24.126 147.853 21.174 147.997 18.294C147.241 18.078 146.503 17.97 145.783 17.97ZM180.928 14.406C183.16 14.406 184.798 15.144 185.842 16.62C186.886 18.06 187.408 20.094 187.408 22.722C187.408 24.018 187.192 26.25 186.76 29.418C186.292 32.37 186.058 34.62 186.058 36.168C186.058 37.104 186.328 37.572 186.868 37.572C187.804 37.572 188.668 36.15 189.46 33.306L192.376 34.17C192.16 35.358 191.692 36.6 190.972 37.896C190.288 39.192 189.37 40.308 188.218 41.244C187.066 42.144 185.734 42.594 184.222 42.594C182.314 42.594 180.982 42.09 180.226 41.082C179.506 40.074 179.146 38.544 179.146 36.492C179.146 34.872 179.398 32.118 179.902 28.23C179.974 27.618 180.082 26.574 180.226 25.098C180.406 23.586 180.496 22.434 180.496 21.642C180.496 20.814 180.37 20.238 180.118 19.914C179.902 19.554 179.524 19.374 178.984 19.374C177.94 19.374 176.824 20.4 175.636 22.452C174.484 24.504 173.512 27.006 172.72 29.958C171.928 32.91 171.532 35.628 171.532 38.112C171.532 38.976 171.586 40.272 171.694 42H164.728C164.62 40.992 164.566 40.128 164.566 39.408C164.566 38.256 164.692 36.582 164.944 34.386C165.196 32.154 165.466 29.976 165.754 27.852C165.826 27.204 165.97 26.034 166.186 24.342C166.402 22.614 166.51 21.444 166.51 20.832C166.51 19.896 166.258 19.428 165.754 19.428C164.818 19.428 163.954 20.85 163.162 23.694L160.192 22.83C160.66 20.67 161.452 18.726 162.568 16.998C163.72 15.27 165.34 14.406 167.428 14.406C168.76 14.406 169.84 14.784 170.668 15.54C171.532 16.296 171.964 17.556 171.964 19.32C171.964 20.004 171.91 20.652 171.802 21.264C171.73 21.84 171.676 22.272 171.64 22.56H171.694C173.818 17.124 176.896 14.406 180.928 14.406ZM228.126 14.406C230.682 14.406 232.644 15.342 234.012 17.214C235.416 19.086 236.118 21.588 236.118 24.72C236.118 28.212 235.542 31.308 234.39 34.008C233.274 36.672 231.582 38.778 229.314 40.326C227.046 41.838 224.238 42.594 220.89 42.594C220.134 42.594 219.558 42.576 219.162 42.54L218.946 46.968C218.838 48.768 218.694 50.388 218.514 51.828C219.666 51.72 220.854 51.666 222.078 51.666V55.77H208.416V52.26C209.64 52.26 210.468 51.864 210.9 51.072C211.368 50.28 211.674 49.056 211.818 47.4C213.078 33.792 213.708 24.99 213.708 20.994C213.708 19.95 213.438 19.428 212.898 19.428C211.962 19.428 211.098 20.85 210.306 23.694L207.39 22.83C207.786 20.706 208.56 18.78 209.712 17.052C210.9 15.288 212.538 14.406 214.626 14.406C215.958 14.406 217.02 14.784 217.812 15.54C218.64 16.296 219.054 17.556 219.054 19.32C219.054 20.364 218.982 21.444 218.838 22.56H218.892C220.044 19.608 221.448 17.52 223.104 16.296C224.76 15.036 226.434 14.406 228.126 14.406ZM226.128 19.32C224.364 19.32 222.924 20.958 221.808 24.234C220.692 27.51 219.882 32.334 219.378 38.706C220.134 38.922 220.854 39.03 221.538 39.03C223.41 39.03 224.886 38.22 225.966 36.6C227.046 34.944 227.784 33.036 228.18 30.876C228.576 28.68 228.774 26.646 228.774 24.774C228.774 21.138 227.892 19.32 226.128 19.32ZM253.085 14.406C255.569 14.406 257.531 14.964 258.971 16.08C260.447 17.196 261.185 18.906 261.185 21.21C261.185 23.838 259.817 25.818 257.081 27.15C254.345 28.482 250.925 29.436 246.821 30.012C246.821 32.82 247.289 34.8 248.225 35.952C249.161 37.068 250.313 37.626 251.681 37.626C252.905 37.626 254.165 37.266 255.461 36.546C256.757 35.79 257.837 34.422 258.701 32.442L261.725 33.9C260.285 37.212 258.593 39.498 256.649 40.758C254.705 41.982 252.509 42.594 250.061 42.594C246.713 42.594 244.103 41.604 242.231 39.624C240.359 37.644 239.423 34.71 239.423 30.822C239.423 28.302 239.927 25.782 240.935 23.262C241.943 20.742 243.473 18.636 245.525 16.944C247.577 15.252 250.097 14.406 253.085 14.406ZM252.491 17.97C250.835 17.97 249.557 18.798 248.657 20.454C247.793 22.11 247.235 24.126 246.983 26.502C249.719 25.998 251.717 25.242 252.977 24.234C254.237 23.19 254.867 21.966 254.867 20.562C254.867 19.698 254.615 19.05 254.111 18.618C253.643 18.186 253.103 17.97 252.491 17.97ZM284.552 14.406C287.108 14.406 289.07 15.342 290.438 17.214C291.842 19.086 292.544 21.588 292.544 24.72C292.544 28.212 291.968 31.308 290.816 34.008C289.7 36.672 288.008 38.778 285.74 40.326C283.472 41.838 280.664 42.594 277.316 42.594C276.56 42.594 275.984 42.576 275.588 42.54L275.372 46.968C275.264 48.768 275.12 50.388 274.94 51.828C276.092 51.72 277.28 51.666 278.504 51.666V55.77H264.842V52.26C266.066 52.26 266.894 51.864 267.326 51.072C267.794 50.28 268.1 49.056 268.244 47.4C269.504 33.792 270.134 24.99 270.134 20.994C270.134 19.95 269.864 19.428 269.324 19.428C268.388 19.428 267.524 20.85 266.732 23.694L263.816 22.83C264.212 20.706 264.986 18.78 266.138 17.052C267.326 15.288 268.964 14.406 271.052 14.406C272.384 14.406 273.446 14.784 274.238 15.54C275.066 16.296 275.48 17.556 275.48 19.32C275.48 20.364 275.408 21.444 275.264 22.56H275.318C276.47 19.608 277.874 17.52 279.53 16.296C281.186 15.036 282.86 14.406 284.552 14.406ZM282.554 19.32C280.79 19.32 279.35 20.958 278.234 24.234C277.118 27.51 276.308 32.334 275.804 38.706C276.56 38.922 277.28 39.03 277.964 39.03C279.836 39.03 281.312 38.22 282.392 36.6C283.472 34.944 284.21 33.036 284.606 30.876C285.002 28.68 285.2 26.646 285.2 24.774C285.2 21.138 284.318 19.32 282.554 19.32ZM315.613 14.406C318.169 14.406 320.131 15.342 321.499 17.214C322.903 19.086 323.605 21.588 323.605 24.72C323.605 28.212 323.029 31.308 321.877 34.008C320.761 36.672 319.069 38.778 316.801 40.326C314.533 41.838 311.725 42.594 308.377 42.594C307.621 42.594 307.045 42.576 306.649 42.54L306.433 46.968C306.325 48.768 306.181 50.388 306.001 51.828C307.153 51.72 308.341 51.666 309.565 51.666V55.77H295.903V52.26C297.127 52.26 297.955 51.864 298.387 51.072C298.855 50.28 299.161 49.056 299.305 47.4C300.565 33.792 301.195 24.99 301.195 20.994C301.195 19.95 300.925 19.428 300.385 19.428C299.449 19.428 298.585 20.85 297.793 23.694L294.877 22.83C295.273 20.706 296.047 18.78 297.199 17.052C298.387 15.288 300.025 14.406 302.113 14.406C303.445 14.406 304.507 14.784 305.299 15.54C306.127 16.296 306.541 17.556 306.541 19.32C306.541 20.364 306.469 21.444 306.325 22.56H306.379C307.531 19.608 308.935 17.52 310.591 16.296C312.247 15.036 313.921 14.406 315.613 14.406ZM313.615 19.32C311.851 19.32 310.411 20.958 309.295 24.234C308.179 27.51 307.369 32.334 306.865 38.706C307.621 38.922 308.341 39.03 309.025 39.03C310.897 39.03 312.373 38.22 313.453 36.6C314.533 34.944 315.271 33.036 315.667 30.876C316.063 28.68 316.261 26.646 316.261 24.774C316.261 21.138 315.379 19.32 313.615 19.32ZM340.571 14.406C343.055 14.406 345.017 14.964 346.457 16.08C347.933 17.196 348.671 18.906 348.671 21.21C348.671 23.838 347.303 25.818 344.567 27.15C341.831 28.482 338.411 29.436 334.307 30.012C334.307 32.82 334.775 34.8 335.711 35.952C336.647 37.068 337.799 37.626 339.167 37.626C340.391 37.626 341.651 37.266 342.947 36.546C344.243 35.79 345.323 34.422 346.187 32.442L349.211 33.9C347.771 37.212 346.079 39.498 344.135 40.758C342.191 41.982 339.995 42.594 337.547 42.594C334.199 42.594 331.589 41.604 329.717 39.624C327.845 37.644 326.909 34.71 326.909 30.822C326.909 28.302 327.413 25.782 328.421 23.262C329.429 20.742 330.959 18.636 333.011 16.944C335.063 15.252 337.583 14.406 340.571 14.406ZM339.977 17.97C338.321 17.97 337.043 18.798 336.143 20.454C335.279 22.11 334.721 24.126 334.469 26.502C337.205 25.998 339.203 25.242 340.463 24.234C341.723 23.19 342.353 21.966 342.353 20.562C342.353 19.698 342.101 19.05 341.597 18.618C341.129 18.186 340.589 17.97 339.977 17.97ZM371.39 14.406C372.758 14.406 373.856 14.784 374.684 15.54C375.512 16.296 375.926 17.286 375.926 18.51C375.926 19.482 375.584 20.346 374.9 21.102C374.216 21.822 373.352 22.182 372.308 22.182C371.48 22.182 370.76 21.93 370.148 21.426C369.572 20.886 369.302 20.202 369.338 19.374C368.366 19.266 367.358 20.238 366.314 22.29C365.27 24.306 364.406 26.826 363.722 29.85C363.038 32.838 362.696 35.592 362.696 38.112C362.696 38.976 362.75 40.272 362.858 42H355.784C355.676 40.992 355.622 40.128 355.622 39.408C355.622 38.256 355.748 36.582 356 34.386C356.252 32.154 356.522 29.976 356.81 27.852C356.882 27.204 357.026 26.034 357.242 24.342C357.458 22.614 357.566 21.444 357.566 20.832C357.566 19.896 357.314 19.428 356.81 19.428C355.874 19.428 355.01 20.85 354.218 23.694L351.248 22.83C351.716 20.67 352.508 18.726 353.624 16.998C354.776 15.27 356.396 14.406 358.484 14.406C359.816 14.406 360.896 14.784 361.724 15.54C362.588 16.296 363.02 17.556 363.02 19.32C363.02 20.58 362.84 22.182 362.48 24.126H362.534C363.866 20.418 365.27 17.88 366.746 16.512C368.258 15.108 369.806 14.406 371.39 14.406ZM390.027 14.406C392.547 14.406 394.635 15 396.291 16.188C397.947 17.376 398.775 18.942 398.775 20.886C398.775 22.002 398.451 22.902 397.803 23.586C397.155 24.27 396.291 24.612 395.211 24.612C394.131 24.612 393.321 24.27 392.781 23.586C392.241 22.902 391.971 22.182 391.971 21.426C391.971 20.598 392.151 19.842 392.511 19.158C392.331 18.834 392.007 18.564 391.539 18.348C391.071 18.096 390.531 17.97 389.919 17.97C387.795 17.97 386.301 19.266 385.437 21.858C384.573 24.414 384.141 27.168 384.141 30.12C384.141 32.748 384.627 34.656 385.599 35.844C386.607 37.032 387.777 37.626 389.109 37.626C390.333 37.626 391.557 37.212 392.781 36.384C394.005 35.556 395.085 34.098 396.021 32.01L399.099 33.522C397.659 36.834 395.949 39.174 393.969 40.542C392.025 41.874 389.811 42.558 387.327 42.594C384.051 42.558 381.459 41.568 379.551 39.624C377.679 37.644 376.743 34.71 376.743 30.822C376.743 28.338 377.247 25.836 378.255 23.316C379.263 20.76 380.775 18.636 382.791 16.944C384.807 15.252 387.219 14.406 390.027 14.406ZM415.558 14.406C417.61 14.406 419.446 14.892 421.066 15.864C422.722 16.8 424.018 18.186 424.954 20.022C425.926 21.822 426.412 23.964 426.412 26.448C426.412 29.328 425.854 32.01 424.738 34.494C423.658 36.942 422.092 38.904 420.04 40.38C417.988 41.856 415.594 42.594 412.858 42.594C409.366 42.594 406.684 41.442 404.812 39.138C402.94 36.834 402.004 33.9 402.004 30.336C402.004 27.456 402.562 24.81 403.678 22.398C404.794 19.95 406.378 18.006 408.43 16.566C410.482 15.126 412.858 14.406 415.558 14.406ZM414.694 17.97C413.65 17.97 412.714 18.456 411.886 19.428C411.094 20.4 410.464 21.714 409.996 23.37C409.564 25.026 409.348 26.844 409.348 28.824C409.348 31.488 409.69 33.864 410.374 35.952C411.058 38.004 412.174 39.03 413.722 39.03C414.946 39.03 415.936 38.4 416.692 37.14C417.484 35.88 418.06 34.35 418.42 32.55C418.78 30.714 418.96 28.95 418.96 27.258C418.96 24.774 418.636 22.614 417.988 20.778C417.34 18.906 416.242 17.97 414.694 17.97ZM448.857 14.406C450.225 14.406 451.323 14.784 452.151 15.54C452.979 16.296 453.393 17.286 453.393 18.51C453.393 19.482 453.051 20.346 452.367 21.102C451.683 21.822 450.819 22.182 449.775 22.182C448.947 22.182 448.227 21.93 447.615 21.426C447.039 20.886 446.769 20.202 446.805 19.374C445.833 19.266 444.825 20.238 443.781 22.29C442.737 24.306 441.873 26.826 441.189 29.85C440.505 32.838 440.163 35.592 440.163 38.112C440.163 38.976 440.217 40.272 440.325 42H433.251C433.143 40.992 433.089 40.128 433.089 39.408C433.089 38.256 433.215 36.582 433.467 34.386C433.719 32.154 433.989 29.976 434.277 27.852C434.349 27.204 434.493 26.034 434.709 24.342C434.925 22.614 435.033 21.444 435.033 20.832C435.033 19.896 434.781 19.428 434.277 19.428C433.341 19.428 432.477 20.85 431.685 23.694L428.715 22.83C429.183 20.67 429.975 18.726 431.091 16.998C432.243 15.27 433.863 14.406 435.951 14.406C437.283 14.406 438.363 14.784 439.191 15.54C440.055 16.296 440.487 17.556 440.487 19.32C440.487 20.58 440.307 22.182 439.947 24.126H440.001C441.333 20.418 442.737 17.88 444.213 16.512C445.725 15.108 447.273 14.406 448.857 14.406ZM474.236 14.406C476.468 14.406 478.106 15.144 479.15 16.62C480.194 18.06 480.716 20.094 480.716 22.722C480.716 24.018 480.5 26.25 480.068 29.418C479.6 32.37 479.366 34.62 479.366 36.168C479.366 37.104 479.636 37.572 480.176 37.572C481.112 37.572 481.976 36.15 482.768 33.306L485.684 34.17C485.468 35.358 485 36.6 484.28 37.896C483.596 39.192 482.678 40.308 481.526 41.244C480.374 42.144 479.042 42.594 477.53 42.594C475.622 42.594 474.29 42.09 473.534 41.082C472.814 40.074 472.454 38.544 472.454 36.492C472.454 34.872 472.706 32.118 473.21 28.23C473.282 27.618 473.39 26.574 473.534 25.098C473.714 23.586 473.804 22.434 473.804 21.642C473.804 20.814 473.678 20.238 473.426 19.914C473.21 19.554 472.832 19.374 472.292 19.374C471.248 19.374 470.132 20.4 468.944 22.452C467.792 24.504 466.82 27.006 466.028 29.958C465.236 32.91 464.84 35.628 464.84 38.112C464.84 38.976 464.894 40.272 465.002 42H458.036C457.928 40.992 457.874 40.128 457.874 39.408C457.874 38.256 458 36.582 458.252 34.386C458.504 32.154 458.774 29.976 459.062 27.852C459.134 27.204 459.278 26.034 459.494 24.342C459.71 22.614 459.818 21.444 459.818 20.832C459.818 19.896 459.566 19.428 459.062 19.428C458.126 19.428 457.262 20.85 456.47 23.694L453.5 22.83C453.968 20.67 454.76 18.726 455.876 16.998C457.028 15.27 458.648 14.406 460.736 14.406C462.068 14.406 463.148 14.784 463.976 15.54C464.84 16.296 465.272 17.556 465.272 19.32C465.272 20.004 465.218 20.652 465.11 21.264C465.038 21.84 464.984 22.272 464.948 22.56H465.002C467.126 17.124 470.204 14.406 474.236 14.406Z" fill="#92BCE4"/>
</svg>
